<svg width="15" height="13" viewBox="0 0 15 13" fill="none" xmlns="http://www.w3.org/2000/svg">
<path d="M13.7554 1.14929C13.3913 0.784935 12.9588 0.495898 12.4829 0.298699C12.007 0.101499 11.4969 0 10.9817 0C10.4666 0 9.95644 0.101499 9.48052 0.298699C9.00459 0.495898 8.57219 0.784935 8.208 1.14929L7.45218 1.90512L6.69636 1.14929C5.96072 0.413658 4.96298 0.000381306 3.92263 0.000381314C2.88229 0.000381322 1.88455 0.413658 1.14891 1.14929C0.413276 1.88493 7.75119e-09 2.88267 0 3.92302C-7.75119e-09 4.96336 0.413276 5.9611 1.14891 6.69674L1.90473 7.45256L7.45218 13L12.9996 7.45256L13.7554 6.69674C14.1198 6.33255 14.4088 5.90014 14.606 5.42422C14.8032 4.94829 14.9047 4.43818 14.9047 3.92302C14.9047 3.40785 14.8032 2.89774 14.606 2.42182C14.4088 1.94589 14.1198 1.51348 13.7554 1.14929Z" fill="#43B02A"/>
</svg>
