<svg width="56" height="56" viewBox="0 0 56 56" fill="none" xmlns="http://www.w3.org/2000/svg">
<path d="M52.9795 34.9635V15.0236C52.9795 14.5957 52.7299 14.207 52.3407 14.029L40.5062 8.6158C40.2208 8.48542 39.8816 8.48411 39.5964 8.61569L28.2136 13.821L20.9206 10.486V3.26703C20.9206 1.46552 19.455 0 17.6533 0H3.26725C1.46562 0 0 1.46563 0 3.26703V17.6526C0 19.4541 1.46562 20.9196 3.26725 20.9196H3.44772V47.546C3.44772 47.9183 3.63705 48.265 3.95041 48.4662C4.26377 48.6675 4.65773 48.6955 4.99636 48.5406L16.3791 43.3355L27.7587 48.5406C28.0447 48.6712 28.3827 48.6719 28.6687 48.5406L38.0563 44.246C38.6783 47.2353 40.4089 49.5089 42.2202 51.8861C42.4505 52.1884 42.683 52.4935 42.9158 52.8036C42.9307 52.8234 42.9462 52.8427 42.9624 52.8615L44.718 54.8961C45.501 55.8017 46.3364 55.9963 46.8993 56H46.9065C46.9065 56 46.9112 56 46.9136 56C47.4765 55.9963 48.3119 55.8018 49.0949 54.896L50.8529 52.8621C50.8694 52.843 50.8853 52.8233 50.9006 52.8031C51.1346 52.4909 51.3684 52.1838 51.5999 51.8796C53.8851 48.8775 56.0435 46.0417 55.9995 41.7176C55.9975 39.0388 54.8304 36.6279 52.9795 34.9635ZM50.792 33.5051C49.613 32.9454 48.296 32.631 46.9065 32.631C44.7217 32.631 42.7147 33.406 41.145 34.695V11.3134L50.792 15.726V33.5051ZM2.1875 17.6527V3.26703C2.1875 2.67181 2.67181 2.1875 3.26725 2.1875H17.6535C18.2488 2.1875 18.7332 2.67181 18.7332 3.26703V17.6526C18.7332 18.2478 18.2489 18.7321 17.6535 18.7321H14.1344C13.758 18.7321 13.408 18.9258 13.2079 19.2446L10.4603 23.6243L7.7128 19.2446C7.51275 18.9258 7.16275 18.7321 6.78628 18.7321H3.26725C2.67181 18.7322 2.1875 18.2479 2.1875 17.6527ZM5.63522 20.9197H6.18122L9.53367 26.2638C9.73372 26.5826 10.0837 26.7763 10.4602 26.7763C10.8367 26.7763 11.1867 26.5826 11.3867 26.2638L14.7393 20.9197H15.2853V41.4304L5.63511 45.8433V20.9197H5.63522ZM29.3074 45.8429V36.1989C29.3074 35.5949 28.8177 35.1051 28.2136 35.1051C27.6095 35.1051 27.1199 35.5949 27.1199 36.1989V45.843L17.4729 41.4304V20.9197H17.6533C19.4549 20.9197 20.9206 19.4542 20.9206 17.6527V12.8914L27.1199 15.7263V26.374C27.1199 26.978 27.6095 27.4678 28.2136 27.4678C28.8177 27.4678 29.3074 26.978 29.3074 26.374V15.7263L38.9574 11.3133V37.3153C38.2306 38.6204 37.8144 40.1212 37.8133 41.7177C37.8126 41.7963 37.814 41.8735 37.8147 41.9511L29.3074 45.8429ZM49.8592 50.5548C49.6321 50.8532 49.4027 51.1545 49.1732 51.4604L47.4401 53.4655C47.2533 53.6817 47.0592 53.8076 46.9065 53.8124C46.7537 53.8076 46.5597 53.6817 46.3735 53.4662L44.6427 51.4605C44.4143 51.1565 44.1861 50.857 43.96 50.5605C41.8152 47.7455 39.9628 45.3143 40.0008 41.7353C40.0008 41.7315 40.0008 41.7275 40.0008 41.7237C40.0008 37.9162 43.0987 34.8185 46.9063 34.8185C50.714 34.8185 53.8118 37.9162 53.8118 41.7237V41.7353C53.85 45.3118 52.0007 47.7414 49.8592 50.5548Z" fill="#43B02A"/>
<path d="M46.9063 37.5481C44.6039 37.5481 42.7307 39.4213 42.7307 41.7237C42.7307 44.026 44.6039 45.8992 46.9063 45.8992C49.2088 45.8992 51.0819 44.026 51.0819 41.7237C51.0819 39.4213 49.2088 37.5481 46.9063 37.5481ZM46.9063 43.7117C45.8101 43.7117 44.9182 42.82 44.9182 41.7237C44.9182 40.6274 45.8101 39.7356 46.9063 39.7356C48.0025 39.7356 48.8944 40.6274 48.8944 41.7237C48.8944 42.82 48.0026 43.7117 46.9063 43.7117Z" fill="#43B02A"/>
<path d="M5.729 16.2847H15.1917C15.7958 16.2847 16.2854 15.7949 16.2854 15.191V5.72873C16.2854 5.12476 15.7958 4.63498 15.1917 4.63498H5.729C5.12493 4.63498 4.63525 5.12476 4.63525 5.72873V15.191C4.63525 15.7949 5.12493 16.2847 5.729 16.2847ZM6.82275 6.82248H9.3666V8.37342C9.3666 8.97739 9.85627 9.46717 10.4603 9.46717C11.0644 9.46717 11.5541 8.97739 11.5541 8.37342V6.82248H14.0979V14.0972H6.82275V6.82248Z" fill="#43B02A"/>
<path d="M28.2136 30.191C27.6095 30.191 27.1199 30.6808 27.1199 31.2847V31.291C27.1199 31.8949 27.6095 32.3816 28.2136 32.3816C28.8177 32.3816 29.3074 31.8888 29.3074 31.2848C29.3074 30.6809 28.8177 30.191 28.2136 30.191Z" fill="#43B02A"/>
</svg>
