<svg width="54" height="54" viewBox="0 0 54 54" fill="none" xmlns="http://www.w3.org/2000/svg">
<path d="M50.7194 28.2471C50.3206 28.2471 49.9207 28.3177 49.544 28.4564C49.4536 26.3418 47.8514 25.2367 46.2679 25.2367C45.8025 25.2367 45.3357 25.3326 44.9059 25.521C44.4267 24.0859 43.1156 23.3412 41.8164 23.3412C41.4191 23.3412 41.0208 23.4114 40.6453 23.5489V21.2554V2.89037C40.6454 1.29663 39.3487 0 37.7551 0H13.5064C11.9128 0 10.6161 1.29663 10.6161 2.89037V12.0481H1.05469C0.472288 12.0481 0 12.5204 0 13.1029V28.7744C0 29.3569 0.472288 29.8291 1.05469 29.8291H10.616V44.2306C10.616 45.8243 11.9127 47.121 13.5063 47.121H33.5116C34.8101 48.7193 34.8108 50.1086 34.8108 51.8421C34.8108 53.032 35.7789 54 36.9687 54H38.8253C39.4077 54 39.88 53.5277 39.88 52.9452C39.88 52.3627 39.4077 51.8904 38.8253 51.8904H36.9688C36.9444 51.8904 36.9203 51.8664 36.9203 51.842C36.9203 49.8311 36.9203 47.7517 34.8426 45.4311C34.3503 44.8814 33.7376 44.4342 33.1453 44.0017C32.0249 43.184 31.3447 42.6361 31.3447 41.9246L31.3418 38.607V34.2309C31.3479 33.931 31.4142 33.71 31.5198 33.6388C31.6579 33.5456 32.0175 33.5364 32.5095 33.7258C33.4663 34.0937 34.0847 34.9982 34.0847 36.0299V39.3872C34.0847 39.9697 34.557 40.442 35.1394 40.442C35.7218 40.442 36.1941 39.9697 36.1941 39.3872V36.0299V21.2555C36.1941 20.0175 37.1689 19.9548 37.3643 19.9548C37.6735 19.9548 37.968 20.0651 38.1726 20.2573C38.4139 20.4843 38.5362 20.8201 38.5362 21.2554V33.441C38.5362 34.0235 39.0085 34.4958 39.5909 34.4958C40.1733 34.4958 40.6456 34.0235 40.6456 33.441V26.7503C40.6456 25.5134 41.6211 25.4507 41.8167 25.4507C42.1257 25.4507 42.4202 25.5609 42.6245 25.753C42.8655 25.9796 42.9877 26.3151 42.9877 26.7503V34.5591C42.9877 35.1416 43.46 35.6139 44.0424 35.6139C44.6248 35.6139 45.0971 35.1416 45.0971 34.5591V28.6456C45.0971 27.4087 46.0726 27.3461 46.2682 27.3461C46.5772 27.3461 46.8717 27.4562 47.076 27.6483C47.317 27.875 47.4392 28.2104 47.4392 28.6456V35.6741C47.4392 36.2566 47.9115 36.7289 48.4939 36.7289C49.0763 36.7289 49.5486 36.2566 49.5486 35.6741V31.6561C49.5486 30.4191 50.5241 30.3565 50.7197 30.3565C51.0287 30.3565 51.3232 30.4667 51.5275 30.6588C51.7685 30.8854 51.8907 31.2209 51.8907 31.6561V42.2856C51.7215 43.7835 51.3712 44.4639 51.0325 45.1222C50.6255 45.9133 50.2045 46.7315 50.2045 48.4307V51.8419C50.2045 51.865 50.1792 51.8903 50.1561 51.8903H48.2993C47.7169 51.8903 47.2446 52.3626 47.2446 52.9451C47.2446 53.5276 47.7169 53.9999 48.2993 53.9999H50.156C51.3458 53.9999 52.3138 53.0319 52.3138 51.842V48.4308C52.3138 47.2425 52.5501 46.783 52.9081 46.0874C53.2985 45.3284 53.7846 44.3838 53.9938 42.4579C53.9979 42.4202 54 42.382 54 42.344V31.6562C53.9999 29.4182 52.3496 28.2471 50.7194 28.2471ZM19.5059 2.10948H31.7555V3.23715C31.7555 3.86226 31.2482 4.37083 30.6248 4.37083H20.6366C20.0132 4.37083 19.5059 3.86226 19.5059 3.23715V2.10948ZM2.10937 14.1576H5.05912C4.68291 15.6115 3.54838 16.7587 2.10937 17.1419V14.1576ZM2.10937 27.7196V24.7352C3.54838 25.1184 4.68291 26.2657 5.05912 27.7196H2.10937ZM2.10937 22.5791V19.2979C4.71265 18.8505 6.77066 16.7779 7.21268 14.1575H22.437V27.7195H7.21268C6.77066 25.0992 4.71265 23.0266 2.10937 22.5791ZM13.5064 45.0114C13.0758 45.0114 12.7255 44.6612 12.7255 44.2304V41.8024H29.2352L29.2354 41.9255C29.2354 43.3036 30.0702 44.2554 30.9892 45.0113H13.5064V45.0114ZM38.536 18.0532C38.1603 17.9154 37.7616 17.8453 37.3641 17.8453C36.5115 17.8453 35.7115 18.1561 35.1117 18.7206C34.6433 19.1615 34.0846 19.9592 34.0846 21.2555V32.1685C33.8301 32.0073 33.557 31.8688 33.2668 31.7571C32.1459 31.3257 31.1067 31.3731 30.3402 31.8901C29.847 32.2229 29.2544 32.8944 29.2325 34.2038C29.2324 34.2097 29.2324 34.2155 29.2324 34.2214V38.608L29.2334 39.693H12.7254V29.8291H22.437V31.3634C22.437 31.9459 22.9092 32.4182 23.4916 32.4182C24.074 32.4182 24.5463 31.9459 24.5463 31.3634V10.5138C24.5463 9.93134 24.074 9.45905 23.4916 9.45905C22.9092 9.45905 22.437 9.93134 22.437 10.5138V12.0481H12.7254V2.89037C12.7254 2.45984 13.0757 2.10948 13.5063 2.10948H17.3965V3.23715C17.3965 5.02537 18.85 6.4803 20.6366 6.4803H30.6248C32.4113 6.4803 33.8649 5.02537 33.8649 3.23715V2.10948H37.7551C38.1857 2.10948 38.536 2.45974 38.536 2.89037V18.0532Z" fill="#43B02A"/>
<path d="M19.1381 20.9386C19.1381 18.4069 17.0905 16.3471 14.5737 16.3471C12.0569 16.3471 10.0093 18.4068 10.0093 20.9386C10.0093 23.4703 12.0569 25.53 14.5737 25.53C17.0905 25.53 19.1381 23.4702 19.1381 20.9386ZM12.1185 20.9386C12.1185 19.57 13.2198 18.4566 14.5736 18.4566C15.9273 18.4566 17.0286 19.5699 17.0286 20.9386C17.0286 22.3072 15.9273 23.4206 14.5736 23.4206C13.2199 23.4205 12.1185 22.3071 12.1185 20.9386Z" fill="#43B02A"/>
<path d="M43.5668 53.9999H43.5638C42.9814 53.9999 42.5092 53.5276 42.5092 52.9451C42.5092 52.3626 42.9814 51.8903 43.5638 51.8903C44.1462 51.8903 44.6201 52.3626 44.6201 52.9451C44.6201 53.5276 44.1493 53.9999 43.5668 53.9999Z" fill="#43B02A"/>
</svg>
