<svg width="49" height="55" viewBox="0 0 49 55" fill="none" xmlns="http://www.w3.org/2000/svg">
<path d="M48.5695 33.3916L44.7198 25.8303C44.5363 25.47 44.1663 25.2432 43.762 25.2432H24.3433H4.92445C4.52013 25.2432 4.15009 25.47 3.96663 25.8303L0.116966 33.3916C-0.0526297 33.7249 -0.0369381 34.1222 0.158452 34.441C0.353842 34.7598 0.70088 34.954 1.07468 34.954H2.41619V53.9252C2.41619 54.5187 2.89736 55 3.49094 55H45.1922C45.7857 55 46.2669 54.5187 46.2669 53.9252V34.9541H47.6115C47.9854 34.9541 48.3325 34.7598 48.5278 34.4411C48.7234 34.1222 48.7391 33.7249 48.5695 33.3916ZM43.1032 27.3927L45.8585 32.8045H28.8518L26.0965 27.3927H43.1032ZM5.58338 27.3927H22.5901L19.8347 32.8045H2.82803L5.58338 27.3927ZM44.1176 52.8505H25.4181V46.8939C25.4181 46.3004 24.9369 45.8191 24.3433 45.8191C23.7497 45.8191 23.2686 46.3004 23.2686 46.8939V52.8505H4.56591V34.9541H20.4937C20.898 34.9541 21.268 34.7273 21.4515 34.367L23.2686 30.7978V37.2427C23.2686 37.8362 23.7497 38.3174 24.3433 38.3174C24.9369 38.3174 25.4181 37.8362 25.4181 37.2427V30.7978L27.2352 34.367C27.4186 34.7273 27.7887 34.9541 28.193 34.9541H44.1176V52.8505Z" fill="#43B02A"/>
<path d="M15.1526 46.9646H9.03276C8.43917 46.9646 7.95801 47.4459 7.95801 48.0394C7.95801 48.6328 8.43917 49.1141 9.03276 49.1141H15.1526C15.7462 49.1141 16.2274 48.6328 16.2274 48.0394C16.2274 47.4459 15.7462 46.9646 15.1526 46.9646Z" fill="#43B02A"/>
<path d="M24.3432 22.0828C30.4246 22.0828 35.3723 17.1289 35.3723 11.0399C35.3722 4.95247 30.4246 0 24.3432 0C18.2601 0 13.311 4.95247 13.311 11.0399C13.311 17.1289 18.26 22.0828 24.3432 22.0828ZM24.3432 2.14951C29.2394 2.14951 33.2228 6.13771 33.2228 11.0399C33.2228 15.9438 29.2394 19.9332 24.3432 19.9332C19.4453 19.9332 15.4605 15.9438 15.4605 11.0399C15.4605 6.13771 19.4452 2.14951 24.3432 2.14951Z" fill="#43B02A"/>
<path d="M19.5248 12.6518L22.3855 15.0767C22.5803 15.2418 22.8269 15.3316 23.0804 15.3316C23.1109 15.3316 23.1416 15.3303 23.1722 15.3277C23.4574 15.3032 23.7211 15.1661 23.9048 14.9465L29.2882 8.51238C29.6691 8.05722 29.6088 7.37938 29.1536 6.99838C28.6984 6.6177 28.0206 6.67778 27.6397 7.13304L22.9504 12.7376L20.9149 11.012C20.4621 10.6282 19.7838 10.6839 19.4001 11.1369C19.0161 11.5898 19.072 12.2679 19.5248 12.6518Z" fill="#43B02A"/>
<path d="M3.2293 12.1146H7.87933C8.47291 12.1146 8.95408 11.6334 8.95408 11.0399C8.95408 10.4464 8.47291 9.96512 7.87933 9.96512H3.2293C2.63571 9.96512 2.15454 10.4464 2.15454 11.0399C2.15454 11.6334 2.63571 12.1146 3.2293 12.1146Z" fill="#43B02A"/>
<path d="M2.72786 4.63617L7.37789 7.08865C7.53781 7.17302 7.70923 7.213 7.8784 7.213C8.26424 7.213 8.63739 7.0046 8.82999 6.6394C9.10684 6.11439 8.90576 5.46427 8.38074 5.18741L3.7306 2.73493C3.2058 2.45807 2.55547 2.65905 2.27861 3.18418C2.00175 3.70919 2.20284 4.35931 2.72786 4.63617Z" fill="#43B02A"/>
<path d="M2.27832 18.8949C2.47081 19.2603 2.84396 19.469 3.23012 19.469C3.39897 19.469 3.57039 19.4292 3.7301 19.345L8.38013 16.8957C8.90525 16.619 9.10677 15.969 8.83013 15.4439C8.55349 14.9186 7.90348 14.7172 7.37835 14.9938L2.72832 17.4431C2.20319 17.7198 2.00179 18.3698 2.27832 18.8949Z" fill="#43B02A"/>
<path d="M40.804 12.1146H45.454C46.0476 12.1146 46.5288 11.6334 46.5288 11.0399C46.5288 10.4464 46.0476 9.96512 45.454 9.96512H40.804C40.2104 9.96512 39.7292 10.4464 39.7292 11.0399C39.7292 11.6334 40.2104 12.1146 40.804 12.1146Z" fill="#43B02A"/>
<path d="M40.8048 7.21298C40.9739 7.21298 41.1454 7.173 41.3053 7.08863L45.9553 4.63615C46.4803 4.35929 46.6814 3.70917 46.4046 3.18416C46.1276 2.65914 45.4776 2.45784 44.9526 2.73491L40.3026 5.18739C39.7775 5.46425 39.5765 6.11436 39.8533 6.63938C40.0459 7.00458 40.4188 7.21298 40.8048 7.21298Z" fill="#43B02A"/>
<path d="M40.3031 16.8956L44.9531 19.3449C45.1129 19.4291 45.2842 19.469 45.4531 19.469C45.8392 19.469 46.2124 19.2604 46.4049 18.8948C46.6815 18.3697 46.48 17.7197 45.9549 17.4431L41.3049 14.9937C40.7796 14.717 40.1297 14.9185 39.8531 15.4438C39.5764 15.9689 39.7779 16.6189 40.3031 16.8956Z" fill="#43B02A"/>
<path d="M24.3431 40.9936C23.7495 40.9936 23.2683 41.4749 23.2683 42.0683V42.0745C23.2683 42.668 23.7495 43.1462 24.3431 43.1462C24.9367 43.1462 25.4178 42.6619 25.4178 42.0685C25.4178 41.475 24.9367 40.9936 24.3431 40.9936Z" fill="#43B02A"/>
</svg>
