<svg width="55" height="55" viewBox="0 0 55 55" fill="none" xmlns="http://www.w3.org/2000/svg">
<path d="M51.6766 28.9712C51.2771 28.9712 50.8765 29.0414 50.4986 29.1788C50.4017 27.0455 48.7825 25.9309 47.1823 25.9309C46.7144 25.9309 46.2451 26.0264 45.8126 26.2145C45.3245 24.769 44.0006 24.019 42.6887 24.019C42.291 24.019 41.8925 24.0885 41.5161 24.2247V21.9201V2.92832C41.5161 1.31366 40.2024 0 38.5878 0H14.1044C12.4897 0 11.1762 1.31366 11.1762 2.92832V10.7167H6.75931L6.25808 8.05728C6.15205 7.49493 5.62558 7.11971 5.06526 7.19211C5.01939 7.1862 1.07422 7.18201 1.07422 7.18201C0.480928 7.18201 0 7.66294 0 8.25623C0 8.84952 0.480928 9.33045 1.07422 9.33045H4.31181L7.37397 25.5776C7.46969 26.0853 7.91313 26.4529 8.42961 26.4529H9.60104C9.85682 27.3475 10.4237 28.1117 11.1762 28.6216V44.6718C11.1762 46.2849 12.4898 47.5971 14.1023 47.5971L33.9371 47.6358C33.978 47.6772 34.0179 47.7185 34.0552 47.7603C35.6078 49.4932 35.6078 50.9541 35.6078 52.8038C35.6078 54.0105 36.5881 54.9924 37.7932 54.9924H39.6229C40.2162 54.9924 40.6971 54.5114 40.6971 53.9181C40.6971 53.3249 40.2162 52.8439 39.6229 52.8439H37.7932C37.7768 52.8439 37.7562 52.825 37.7562 52.8038C37.7562 50.7722 37.7562 48.6716 35.6558 46.3272C35.1569 45.7698 34.537 45.3172 33.9375 44.8795C32.8091 44.0557 32.124 43.504 32.124 42.7903V35.0205C32.1293 34.7253 32.1955 34.4999 32.297 34.4314C32.4339 34.339 32.7931 34.3312 33.2894 34.5228C34.252 34.892 34.8741 35.8009 34.8741 36.8384V40.2269C34.8741 40.8202 35.355 41.3011 35.9483 41.3011C36.5416 41.3011 37.0225 40.8202 37.0225 40.2269V36.8384V21.9201C37.0225 20.679 37.9986 20.6162 38.1943 20.6162C38.3902 20.6162 39.3676 20.679 39.3676 21.9201V34.2261C39.3676 34.8194 39.8486 35.3003 40.4419 35.3003C41.0352 35.3003 41.5161 34.8194 41.5161 34.2261V27.4704C41.5161 26.2304 42.4929 26.1675 42.6887 26.1675C42.9982 26.1675 43.2929 26.2779 43.4975 26.4701C43.7389 26.6971 43.8613 27.0337 43.8613 27.4704V35.3525C43.8613 35.9458 44.3422 36.4268 44.9355 36.4268C45.5288 36.4268 46.0098 35.9458 46.0098 35.3525V29.3822C46.0098 28.1423 46.9865 28.0794 47.1824 28.0794C47.4919 28.0794 47.7866 28.1898 47.9912 28.382C48.2325 28.609 48.355 28.9456 48.355 29.3822V36.4791C48.355 37.0724 48.8359 37.5533 49.4292 37.5533C50.0225 37.5533 50.5034 37.0724 50.5034 36.4791V32.4238C50.5034 31.1827 51.4809 31.1198 51.6767 31.1198C51.8729 31.1198 52.8517 31.1826 52.8517 32.4238V35.6997V36.4213V43.1543C52.6808 44.6644 52.3279 45.3508 51.9864 46.0149C51.5751 46.815 51.1498 47.6423 51.1498 49.3606V52.8039C51.1498 52.8226 51.1285 52.844 51.1097 52.844H49.2709C48.6776 52.844 48.1966 53.325 48.1966 53.9183C48.1966 54.5115 48.6776 54.9925 49.2709 54.9925H51.1097C52.3164 54.9925 53.2982 54.0106 53.2982 52.8039V49.3606C53.2982 48.1623 53.5365 47.6987 53.8971 46.9973C54.2914 46.2301 54.7823 45.2754 54.9938 43.3298C54.998 43.2912 55.0001 43.2524 55.0001 43.2137V36.4214V35.6998V32.4239C55 30.1572 53.3282 28.9712 51.6766 28.9712ZM20.1716 2.14844H32.5208V3.27852C32.5208 3.90328 32.0126 4.4116 31.3878 4.4116H21.3047C20.6799 4.4116 20.1717 3.90328 20.1717 3.27852V2.14844H20.1716ZM9.60126 24.3044H9.32024L7.16472 12.8652H29.986L27.833 24.3044H27.5493C27.0812 22.6684 25.5732 21.4669 23.7888 21.4669C22.003 21.4669 20.4938 22.6683 20.0255 24.3044H17.1251C16.6569 22.6684 15.149 21.4669 13.3646 21.4669C11.5789 21.467 10.0697 22.6684 9.60126 24.3044ZM25.552 25.3786C25.552 26.3525 24.7611 27.145 23.7888 27.145C22.8149 27.145 22.0226 26.3526 22.0226 25.3786C22.0226 24.4064 22.8149 23.6153 23.7888 23.6153C24.7611 23.6154 25.552 24.4064 25.552 25.3786ZM11.5984 25.3786C11.5984 24.4064 12.3908 23.6153 13.3647 23.6153C14.337 23.6153 15.1279 24.4062 15.1279 25.3786C15.1279 26.3525 14.337 27.145 13.3647 27.145C12.3908 27.145 11.5984 26.3525 11.5984 25.3786ZM14.1044 45.4487C13.6817 45.4487 13.3246 45.0929 13.3246 44.6718V42.2266H29.9755V42.7903C29.9755 43.9362 30.5448 44.7901 31.2628 45.4822L14.1044 45.4487ZM39.3678 18.6737C38.9911 18.5374 38.5923 18.4678 38.1944 18.4678C36.5445 18.4678 34.8742 19.6536 34.8742 21.9201V32.9238C34.6208 32.7647 34.3492 32.6281 34.061 32.5176C32.925 32.0791 31.8717 32.1263 31.0951 32.6507C30.5954 32.988 29.9955 33.6686 29.9758 34.9956C29.9758 35.0008 29.9756 35.0062 29.9756 35.0116V40.0781H13.3246V29.2925C13.338 29.2927 13.3513 29.2934 13.3647 29.2934C15.1493 29.2934 16.6576 28.0906 17.1254 26.4529H20.0253C20.4934 28.0906 22.0028 29.2934 23.7889 29.2934C25.5735 29.2934 27.0818 28.0906 27.5496 26.4529H28.724C29.2407 26.4529 29.6841 26.085 29.7797 25.5774L32.3371 11.9897C32.3962 11.6755 32.3124 11.3514 32.1083 11.1053C31.9042 10.8592 31.6012 10.7168 31.2815 10.7168H13.3246V2.92832C13.3246 2.49831 13.6744 2.14844 14.1044 2.14844H18.023V3.27852C18.023 5.08793 19.4951 6.56004 21.3044 6.56004H31.3876C33.197 6.56004 34.669 5.08793 34.669 3.27852V2.14844H38.5877C39.0177 2.14844 39.3675 2.49831 39.3675 2.92832V18.6737H39.3678Z" fill="#43B02A"/>
<path d="M18.5768 21.3374C19.1701 21.3374 19.651 20.8565 19.651 20.2632V16.3175C19.651 15.7242 19.1701 15.2433 18.5768 15.2433C17.9835 15.2433 17.5026 15.7242 17.5026 16.3175V20.2632C17.5026 20.8565 17.9835 21.3374 18.5768 21.3374Z" fill="#43B02A"/>
<path d="M14.4388 18.0103V16.3175C14.4388 15.7242 13.9579 15.2433 13.3646 15.2433C12.7713 15.2433 12.2904 15.7242 12.2904 16.3175V18.0103C12.2904 18.6036 12.7713 19.0845 13.3646 19.0845C13.9579 19.0845 14.4388 18.6036 14.4388 18.0103Z" fill="#43B02A"/>
<path d="M23.7888 19.0845C24.3821 19.0845 24.863 18.6036 24.863 18.0103V16.3175C24.863 15.7242 24.3821 15.2433 23.7888 15.2433C23.1955 15.2433 22.7146 15.7242 22.7146 16.3175V18.0103C22.7146 18.6036 23.1955 19.0845 23.7888 19.0845Z" fill="#43B02A"/>
<path d="M44.4485 52.8432C43.8552 52.8432 43.3743 53.3241 43.3743 53.9174C43.3743 54.5107 43.8552 54.9916 44.4485 54.9916H44.4515C45.0448 54.9916 45.5242 54.5107 45.5242 53.9174C45.5242 53.3241 45.0418 52.8432 44.4485 52.8432Z" fill="#43B02A"/>
</svg>
