<svg width="57" height="48" viewBox="0 0 57 48" fill="none" xmlns="http://www.w3.org/2000/svg">
<g opacity="0.8">
<path d="M40.5726 45.3944V40.5728C40.5726 38.0153 39.5566 35.5625 37.7482 33.7541C35.9398 31.9457 33.487 30.9297 30.9295 30.9297H11.6432C9.08563 30.9297 6.63286 31.9457 4.82441 33.7541C3.01597 35.5625 2 38.0153 2 40.5728V45.3944" stroke="white" stroke-width="3.5" stroke-linecap="round" stroke-linejoin="round"/>
<path d="M21.2865 21.2863C26.6122 21.2863 30.9296 16.9689 30.9296 11.6432C30.9296 6.31739 26.6122 2 21.2865 2C15.9607 2 11.6433 6.31739 11.6433 11.6432C11.6433 16.9689 15.9607 21.2863 21.2865 21.2863Z" stroke="white" stroke-width="3.5" stroke-linecap="round" stroke-linejoin="round"/>
<path d="M55.0373 45.3945V40.5729C55.0357 38.4363 54.3246 36.3607 53.0155 34.6721C51.7065 32.9834 49.8737 31.7773 47.8049 31.2432" stroke="white" stroke-width="3.5" stroke-linecap="round" stroke-linejoin="round"/>
<path d="M38.1616 2.31348C40.2359 2.84458 42.0744 4.05093 43.3873 5.74237C44.7003 7.4338 45.4129 9.51409 45.4129 11.6553C45.4129 13.7965 44.7003 15.8768 43.3873 17.5682C42.0744 19.2596 40.2359 20.466 38.1616 20.9971" stroke="white" stroke-width="3.5" stroke-linecap="round" stroke-linejoin="round"/>
</g>
</svg>
