<svg width="156" height="55" viewBox="0 0 156 55" fill="none" xmlns="http://www.w3.org/2000/svg">
<path d="M59.8046 28.3906C62.187 28.3906 64.201 29.2288 65.8467 30.9052C67.4924 32.5658 68.3153 34.5901 68.3153 36.9782C68.3153 39.3663 67.4924 41.3985 65.8467 43.0749C64.201 44.7355 62.187 45.5658 59.8046 45.5658C57.5163 45.5658 55.5728 44.7909 53.9741 43.241C52.3911 41.6911 51.5369 39.7854 51.4116 37.5238H48.3317V45.2811H46.686V28.6753H48.3317V35.9581H51.4351C51.6858 33.7915 52.5949 31.9886 54.1622 30.5494C55.7296 29.1102 57.6104 28.3906 59.8046 28.3906ZM54.9145 41.9363C56.2311 43.2805 57.8611 43.9527 59.8046 43.9527C61.7481 43.9527 63.3782 43.2805 64.6947 41.9363C66.0113 40.5762 66.6696 38.9235 66.6696 36.9782C66.6696 35.033 66.0113 33.3882 64.6947 32.0439C63.3782 30.6838 61.7481 30.0038 59.8046 30.0038C57.8611 30.0038 56.2311 30.6838 54.9145 32.0439C53.598 33.3882 52.9397 35.033 52.9397 36.9782C52.9397 38.9235 53.598 40.5762 54.9145 41.9363Z" fill="black"/>
<path d="M76.0275 33.1352C77.7045 33.1352 79.1308 33.7361 80.3063 34.9381C81.4975 36.14 82.0931 37.6108 82.0931 39.3505C82.0931 41.0901 81.4975 42.561 80.3063 43.7629C79.1308 44.9648 77.7045 45.5658 76.0275 45.5658C73.9429 45.5658 72.3599 44.696 71.2785 42.9563V50.0257H69.7268V33.4198H71.2785V35.7446C72.3599 34.005 73.9429 33.1352 76.0275 33.1352ZM72.6185 42.6954C73.5119 43.5968 74.609 44.0476 75.9099 44.0476C77.2108 44.0476 78.308 43.5968 79.2013 42.6954C80.0947 41.7781 80.5414 40.6631 80.5414 39.3505C80.5414 38.0378 80.0947 36.9308 79.2013 36.0293C78.308 35.112 77.2108 34.6534 75.9099 34.6534C74.609 34.6534 73.5119 35.112 72.6185 36.0293C71.7251 36.9308 71.2785 38.0378 71.2785 39.3505C71.2785 40.6631 71.7251 41.7781 72.6185 42.6954Z" fill="black"/>
<path d="M92.0553 33.4198H93.3718V45.2811H91.8202V36.1479L84.8142 45.2811H83.4976V33.4198H85.0493V42.553L92.0553 33.4198Z" fill="black"/>
<path d="M100.955 45.5658C99.1844 45.5658 97.7111 44.9728 96.5356 43.7866C95.3601 42.5847 94.7723 41.106 94.7723 39.3505C94.7723 37.595 95.3601 36.1242 96.5356 34.9381C97.7111 33.7361 99.1844 33.1352 100.955 33.1352C102.115 33.1352 103.158 33.4198 104.082 33.9892C105.007 34.5427 105.681 35.2939 106.104 36.2428L104.835 36.9782C104.521 36.2665 104.012 35.7051 103.306 35.2939C102.617 34.8669 101.833 34.6534 100.955 34.6534C99.6546 34.6534 98.5574 35.112 97.6641 36.0293C96.7707 36.9308 96.324 38.0378 96.324 39.3505C96.324 40.6631 96.7707 41.7781 97.6641 42.6954C98.5574 43.5968 99.6546 44.0476 100.955 44.0476C101.833 44.0476 102.617 43.842 103.306 43.4308C103.996 43.0038 104.537 42.4344 104.929 41.7228L106.222 42.4819C105.736 43.4308 105.023 44.182 104.082 44.7355C103.142 45.2891 102.1 45.5658 100.955 45.5658Z" fill="black"/>
<path d="M115.508 33.4198V34.9381H111.347V45.2811H109.795V34.9381H105.634V33.4198H115.508Z" fill="black"/>
<path d="M128.214 28.6753V45.2811H126.568V30.241H118.104V45.2811H116.458V28.6753H128.214Z" fill="black"/>
<path d="M136.869 33.1352C138.546 33.1352 139.972 33.7361 141.148 34.9381C142.339 36.14 142.934 37.6108 142.934 39.3505C142.934 41.0901 142.339 42.561 141.148 43.7629C139.972 44.9648 138.546 45.5658 136.869 45.5658C134.784 45.5658 133.201 44.696 132.12 42.9563V50.0257H130.568V33.4198H132.12V35.7446C133.201 34.005 134.784 33.1352 136.869 33.1352ZM133.46 42.6954C134.353 43.5968 135.45 44.0476 136.751 44.0476C138.052 44.0476 139.149 43.5968 140.043 42.6954C140.936 41.7781 141.383 40.6631 141.383 39.3505C141.383 38.0378 140.936 36.9308 140.043 36.0293C139.149 35.112 138.052 34.6534 136.751 34.6534C135.45 34.6534 134.353 35.112 133.46 36.0293C132.567 36.9308 132.12 38.0378 132.12 39.3505C132.12 40.6631 132.567 41.7781 133.46 42.6954Z" fill="black"/>
<path d="M154.19 43.7866C152.999 44.9728 151.541 45.5658 149.817 45.5658C148.093 45.5658 146.627 44.9728 145.42 43.7866C144.229 42.5847 143.634 41.106 143.634 39.3505C143.634 37.595 144.229 36.1242 145.42 34.9381C146.627 33.7361 148.093 33.1352 149.817 33.1352C151.541 33.1352 152.999 33.7361 154.19 34.9381C155.397 36.1242 156 37.595 156 39.3505C156 41.106 155.397 42.5847 154.19 43.7866ZM146.525 42.6954C147.419 43.5968 148.516 44.0476 149.817 44.0476C151.118 44.0476 152.215 43.5968 153.108 42.6954C154.002 41.7781 154.448 40.6631 154.448 39.3505C154.448 38.0378 154.002 36.9308 153.108 36.0293C152.215 35.112 151.118 34.6534 149.817 34.6534C148.516 34.6534 147.419 35.112 146.525 36.0293C145.632 36.9308 145.185 38.0378 145.185 39.3505C145.185 40.6631 145.632 41.7781 146.525 42.6954Z" fill="black"/>
<path d="M5.76172 15.0593L8.64268 8.88867V54.984H5.76172V15.0593Z" fill="#222222"/>
<path d="M11.5239 6.43776L14.4049 0.245117V54.9833H11.5239V6.43776Z" fill="#222222"/>
<path d="M0 22.393L2.88096 16.0898V54.9828H0V22.393Z" fill="#222222"/>
<path d="M20.1667 22.393L17.2858 16.0898V54.9828H20.1667V22.393Z" fill="#222222"/>
<path d="M25.9285 32.3435L23.0475 26.1729V54.9824H25.9285V32.3435Z" fill="#222222"/>
<path d="M31.6904 40.8816L28.8095 34.8164V54.9831H31.6904V40.8816Z" fill="#222222"/>
</svg>
