<svg width="125" height="36" viewBox="0 0 125 36" fill="none" xmlns="http://www.w3.org/2000/svg">
<path d="M45.432 15.592C47.0533 15.592 48.424 16.1573 49.544 17.288C50.6747 18.408 51.24 19.7787 51.24 21.4C51.24 23.0213 50.6747 24.3973 49.544 25.528C48.424 26.648 47.0533 27.208 45.432 27.208C43.9493 27.208 42.6693 26.728 41.592 25.768C40.5253 24.7973 39.9067 23.5813 39.736 22.12H37.96V27H36.12V15.8H37.96V20.36H39.784C40.0187 18.984 40.6587 17.848 41.704 16.952C42.76 16.0453 44.0027 15.592 45.432 15.592ZM42.6 24.28C43.368 25.0373 44.312 25.416 45.432 25.416C46.552 25.416 47.4907 25.0373 48.248 24.28C49.016 23.512 49.4 22.552 49.4 21.4C49.4 20.248 49.016 19.2933 48.248 18.536C47.4907 17.768 46.552 17.384 45.432 17.384C44.3013 17.384 43.3573 17.7627 42.6 18.52C41.8427 19.2773 41.464 20.2373 41.464 21.4C41.464 22.552 41.8427 23.512 42.6 24.28ZM57.8129 18.792C58.9115 18.792 59.8502 19.2027 60.6289 20.024C61.4075 20.8347 61.7969 21.8267 61.7969 23C61.7969 24.184 61.4075 25.1813 60.6289 25.992C59.8502 26.8027 58.9115 27.208 57.8129 27.208C56.5969 27.208 55.6635 26.76 55.0129 25.864V30.2H53.2849V19H55.0129V20.152C55.6635 19.2453 56.5969 18.792 57.8129 18.792ZM55.7329 24.84C56.2129 25.32 56.8155 25.56 57.5409 25.56C58.2662 25.56 58.8689 25.32 59.3489 24.84C59.8289 24.3493 60.0689 23.736 60.0689 23C60.0689 22.264 59.8289 21.656 59.3489 21.176C58.8689 20.6853 58.2662 20.44 57.5409 20.44C56.8155 20.44 56.2129 20.6853 55.7329 21.176C55.2529 21.656 55.0129 22.264 55.0129 23C55.0129 23.736 55.2529 24.3493 55.7329 24.84ZM69.635 19H70.963V27H69.267V21.912L65.171 27H63.843V19H65.539V24.072L69.635 19ZM77.224 27.208C76.0187 27.208 75.0107 26.8027 74.2 25.992C73.4 25.1813 73 24.184 73 23C73 21.8053 73.4 20.808 74.2 20.008C75.0107 19.1973 76.0187 18.792 77.224 18.792C78.0027 18.792 78.712 18.9787 79.352 19.352C79.992 19.7253 80.472 20.2267 80.792 20.856L79.304 21.72C79.1227 21.336 78.8453 21.0373 78.472 20.824C78.1093 20.6 77.688 20.488 77.208 20.488C76.504 20.488 75.912 20.728 75.432 21.208C74.9627 21.688 74.728 22.2853 74.728 23C74.728 23.7147 74.9627 24.312 75.432 24.792C75.912 25.272 76.504 25.512 77.208 25.512C77.6773 25.512 78.0987 25.4 78.472 25.176C78.856 24.952 79.144 24.6533 79.336 24.28L80.824 25.128C80.4827 25.768 79.992 26.2747 79.352 26.648C78.712 27.0213 78.0027 27.208 77.224 27.208ZM88.5869 19V20.664H85.9789V27H84.2509V20.664H81.6269V19H88.5869ZM103.068 15.8V27H101.228V17.56H96.6681V27H94.8281V15.8H103.068ZM110.209 18.792C111.307 18.792 112.246 19.2027 113.025 20.024C113.803 20.8347 114.193 21.8267 114.193 23C114.193 24.184 113.803 25.1813 113.025 25.992C112.246 26.8027 111.307 27.208 110.209 27.208C108.993 27.208 108.059 26.76 107.409 25.864V30.2H105.681V19H107.409V20.152C108.059 19.2453 108.993 18.792 110.209 18.792ZM108.129 24.84C108.609 25.32 109.211 25.56 109.937 25.56C110.662 25.56 111.265 25.32 111.745 24.84C112.225 24.3493 112.465 23.736 112.465 23C112.465 22.264 112.225 21.656 111.745 21.176C111.265 20.6853 110.662 20.44 109.937 20.44C109.211 20.44 108.609 20.6853 108.129 21.176C107.649 21.656 107.409 22.264 107.409 23C107.409 23.736 107.649 24.3493 108.129 24.84ZM120.015 27.208C118.841 27.208 117.844 26.8027 117.023 25.992C116.201 25.1813 115.791 24.184 115.791 23C115.791 21.816 116.201 20.8187 117.023 20.008C117.844 19.1973 118.841 18.792 120.015 18.792C121.199 18.792 122.196 19.1973 123.007 20.008C123.828 20.8187 124.239 21.816 124.239 23C124.239 24.184 123.828 25.1813 123.007 25.992C122.196 26.8027 121.199 27.208 120.015 27.208ZM118.239 24.808C118.719 25.288 119.311 25.528 120.015 25.528C120.719 25.528 121.311 25.288 121.791 24.808C122.271 24.328 122.511 23.7253 122.511 23C122.511 22.2747 122.271 21.672 121.791 21.192C121.311 20.712 120.719 20.472 120.015 20.472C119.311 20.472 118.719 20.712 118.239 21.192C117.759 21.672 117.519 22.2747 117.519 23C117.519 23.7253 117.759 24.328 118.239 24.808Z" fill="white"/>
<path d="M3.46533 9.92907L6.1401 6.02832V35.1674H3.46533V9.92907Z" fill="white"/>
<path d="M6.92993 4.61169L9.6047 0.710938V35.1906H6.92993V4.61169Z" fill="white"/>
<path d="M0 15.0433L2.67477 11.1426V35.2119H0V15.0433Z" fill="white"/>
<path d="M13.0704 15.0433L10.3957 11.1426V35.2119H13.0704V15.0433Z" fill="white"/>
<path d="M16.5359 20.8041L13.8611 16.9033V35.1153H16.5359V20.8041Z" fill="white"/>
<path d="M20.0004 26.2191L17.3256 22.3184V35.2882H20.0004V26.2191Z" fill="white"/>
</svg>
