<svg width="38" height="46" viewBox="0 0 38 46" fill="none" xmlns="http://www.w3.org/2000/svg">
<path fill-rule="evenodd" clip-rule="evenodd" d="M18.8182 46C18.8182 46 37.6364 33.4545 37.6364 18.8182C37.6364 13.8273 35.6537 9.04081 32.1246 5.51172C28.5955 1.98262 23.8091 0 18.8182 0C13.8273 0 9.04081 1.98262 5.51172 5.51172C1.98262 9.04081 0 13.8273 0 18.8182C0 33.4545 18.8182 46 18.8182 46ZM25.0915 18.8189C25.0915 22.2833 22.2831 25.0917 18.8188 25.0917C15.3544 25.0917 12.546 22.2833 12.546 18.8189C12.546 15.3546 15.3544 12.5462 18.8188 12.5462C22.2831 12.5462 25.0915 15.3546 25.0915 18.8189Z" fill="#006DE2"/>
</svg>
