<svg width="45" height="45" viewBox="0 0 45 45" fill="none" xmlns="http://www.w3.org/2000/svg">
<path d="M22.9412 0C27.395 0 31.3445 1.07735 34.7899 3.23205C38.2353 5.34531 40.7983 7.99724 42.479 11.1878C44.1597 14.3785 45 17.7348 45 21.2569C45 25.6077 44.0756 28.9227 42.2269 31.2017C40.3782 33.4807 38.0672 34.6202 35.2941 34.6202C31.1345 34.6202 28.5084 32.9213 27.416 29.5235C25.8193 31.5539 23.6555 32.5691 20.9244 32.5691C18.1513 32.5691 15.8613 31.616 14.0546 29.7099C12.2479 27.7624 11.3445 25.3591 11.3445 22.5C11.3445 19.5994 12.2479 17.1961 14.0546 15.2901C15.8613 13.3425 18.1513 12.3688 20.9244 12.3688C23.3613 12.3688 25.3782 13.1975 26.9748 14.855V12.9903H32.7731V27.0373C32.7731 30.3937 34.0546 32.0718 36.6176 32.0718C38.4244 32.0718 39.895 31.1809 41.0294 29.3992C42.2059 27.576 42.7941 24.8619 42.7941 21.2569C42.7941 15.7873 40.8824 11.2086 37.0588 7.52072C33.2773 3.83287 28.5714 1.98895 22.9412 1.98895C17.1849 1.98895 12.2899 3.95718 8.2563 7.89365C4.22269 11.8301 2.20588 16.6989 2.20588 22.5C2.20588 28.4254 4.26471 33.3356 8.38235 37.2307C12.542 41.0843 17.7731 43.0111 24.0756 43.0111C28.0672 43.0111 31.5756 42.4724 34.6008 41.395V43.5083C31.4916 44.5028 27.9832 45 24.0756 45C17.1849 45 11.4496 42.866 6.86975 38.5981C2.28992 34.3715 0 29.0055 0 22.5C0 16.2431 2.18487 10.9392 6.55462 6.5884C10.9664 2.19613 16.4286 0 22.9412 0ZM22.1218 27.3481C23.5084 27.3481 24.6639 26.913 25.5882 26.0428C26.5126 25.1312 26.9748 23.9503 26.9748 22.5C26.9748 21.0497 26.5126 19.8688 25.5882 18.9572C24.6639 18.0456 23.5084 17.5898 22.1218 17.5898C20.6933 17.5898 19.5168 18.0456 18.5924 18.9572C17.6681 19.8688 17.2059 21.0497 17.2059 22.5C17.2059 23.9503 17.6681 25.1312 18.5924 26.0428C19.5168 26.913 20.6933 27.3481 22.1218 27.3481Z" fill="#006DE2"/>
</svg>
