<svg width="43" height="43" viewBox="0 0 43 43" fill="none" xmlns="http://www.w3.org/2000/svg">
<path fill-rule="evenodd" clip-rule="evenodd" d="M10.545 40.0042L9.76018 39.5384L1.62584 41.6722L3.79702 33.7413L3.286 32.9281C1.1346 29.5063 -0.00166323 25.5514 1.82732e-06 21.4904C0.00470576 9.64056 9.64614 0 21.5011 0C27.2417 0.00199031 32.6379 2.24034 36.6956 6.30281C40.7534 10.3653 42.9867 15.765 42.9845 21.5078C42.9798 33.3585 33.3385 43 21.4927 43H21.4839C17.6274 42.9985 13.8448 41.9624 10.545 40.0042ZM33.638 27.0753C34.0886 27.2931 34.3929 27.4401 34.5229 27.657C34.6843 27.9264 34.6843 29.22 34.1462 30.7295C33.6076 32.2387 31.0264 33.6161 29.785 33.8016C28.6719 33.968 27.2632 34.0374 25.7155 33.5455C24.7771 33.2478 23.5737 32.8503 22.0322 32.1845C15.9751 29.5691 11.8818 23.6985 11.1081 22.5889C11.0539 22.5112 11.016 22.4568 10.9949 22.4286L10.9897 22.4216C10.6477 21.9654 8.35667 18.9086 8.35667 15.7449C8.35667 12.7688 9.81859 11.2088 10.4915 10.4908C10.5376 10.4416 10.58 10.3964 10.618 10.3549C11.2102 9.70804 11.9102 9.54633 12.3409 9.54633C12.7716 9.54633 13.2028 9.55031 13.5792 9.56922C13.6257 9.57155 13.674 9.57126 13.724 9.57097C14.1005 9.56876 14.5699 9.56601 15.0329 10.6783C15.2111 11.1064 15.4718 11.741 15.7467 12.4103C16.3026 13.7638 16.9169 15.2593 17.025 15.4757C17.1865 15.7991 17.2942 16.1763 17.0788 16.6077C17.0465 16.6724 17.0166 16.7334 16.9881 16.7917C16.8263 17.122 16.7073 17.3649 16.4328 17.6854C16.3248 17.8115 16.2132 17.9474 16.1017 18.0832C15.8794 18.3539 15.6571 18.6246 15.4636 18.8174C15.1401 19.1396 14.8034 19.4892 15.1803 20.136C15.5572 20.7829 16.8539 22.8986 18.7746 24.6118C20.8394 26.4535 22.6339 27.2319 23.5434 27.6264C23.7211 27.7035 23.865 27.7659 23.9705 27.8187C24.6164 28.1422 24.9933 28.0881 25.3702 27.657C25.7471 27.2258 26.9853 25.7703 27.416 25.1236C27.8466 24.477 28.2775 24.5847 28.8697 24.8002C29.462 25.0161 32.6386 26.5789 33.2847 26.9023C33.4108 26.9654 33.5287 27.0224 33.638 27.0753Z" fill="#006DE2"/>
</svg>
