<?xml version="1.0" encoding="UTF-8"?>
<svg fill="none" viewBox="0 0 557 71" xmlns="http://www.w3.org/2000/svg">
<g fill="#000" opacity=".5">
<path d="m7.9893 12.156v51.566h0.60568v-54.198h-0.86526l-7.124 50.947v-50.947h-0.60568v54.198h0.77874l3.5476-25.706 3.663-25.86z"/>
<path d="m22.149 12.078v51.643h0.6345v-54.198h-0.9806l-4.9608 51.411-4.9609-51.411h-0.9806v54.198h0.5768v-51.643l4.9897 51.489h0.7211l4.9608-51.489z"/>
<path d="m25.73 35.461v-24.312h7.0664v-1.626h-7.7009v54.198h7.7009v-1.6259h-7.0664v-25.086h5.9415v-1.5485h-5.9415z"/>
<path d="m43.864 9.1363c-3.0861 0-4.2686 6.1167-4.2686 13.704v13.008h-3.9225v-26.325h-0.6345v54.198h0.6345v-26.325h3.9225v13.008c0 7.5878 1.1825 13.704 4.2686 13.704 3.0862 0 4.3264-6.1166 4.3264-13.704v-27.564c0-7.5878-1.2402-13.704-4.3264-13.704zm0 1.5485c2.6824 0 3.6918 5.4199 3.6918 12.079v27.719c0 6.6587-1.0094 12.078-3.6918 12.078-2.6823 0-3.6341-5.4198-3.6341-12.078v-27.719c0-6.6587 0.9518-12.079 3.6341-12.079z"/>
<path d="m55.406 63.722v-52.572h4.4128v-1.626h-9.4602v1.626h4.4129v52.572h0.6345z"/>
<path d="m66.204 9.1363c-3.0572 0-4.2109 6.1941-4.2109 13.704v27.564c0 7.5103 1.1537 13.704 4.2109 13.704 3.0861 0 4.2398-6.1941 4.2398-13.704v-5.8844h-0.6345v5.9618c0 6.5812-0.923 12.001-3.5764 12.001-2.6824 0-3.6053-5.4199-3.6053-12.001v-27.719c0-6.5813 0.9229-12.079 3.6053-12.079 2.6534 0 3.5764 5.4973 3.5764 12.079v4.2584h0.6345v-4.181c0-7.5104-1.1537-13.704-4.2398-13.704z"/>
<path d="m80.715 38.713v25.009h0.6345v-54.198h-4.0091c-2.9995 0-4.1532 4.7231-4.1532 12.156v4.8779c0 6.6586 0.9806 10.298 3.2015 11.382-2.2497 0.9291-3.2015 4.8779-3.2015 10.84v8.5169c0 2.0905-0.0865 4.723-0.548 6.4264h0.6922c0.4038-1.7034 0.4903-4.1036 0.4903-6.4264v-8.5169c0-7.9749 1.7882-10.065 4.4129-10.065h2.4804zm0-27.564v25.938h-2.4804c-2.7977 0-4.4129-1.9356-4.4129-10.298v-4.9553c0-6.5812 0.9518-10.685 3.5476-10.685h3.3457z"/>
<path d="m96.063 11.149v52.572h0.6345v-54.198h-8.5661v54.198h0.6345v-52.572h7.2971z"/>
<path d="m99.004 9.5234v54.198h0.6346v-22.996h2.8845c3.201 0 4.643-4.1036 4.643-12.698v-5.4199c0-7.5878-1.067-13.085-4.182-13.085h-3.9801zm0.6346 29.577v-27.951h3.3455c2.711 0 3.548 4.723 3.548 11.382v5.5747c0 7.6652-1.183 10.994-4.009 10.994h-2.8845z"/>
<path d="m109.34 50.405c0 7.5878 1.212 13.704 4.269 13.704 3.115 0 4.326-6.1166 4.326-13.704v-27.564c0-7.5878-1.211-13.704-4.326-13.704-3.057 0-4.269 6.1167-4.269 13.704v27.564zm0.635-27.641c0-6.6587 0.952-12.079 3.634-12.079 2.711 0 3.692 5.4199 3.692 12.079v27.719c0 6.6587-0.981 12.078-3.692 12.078-2.682 0-3.634-5.4198-3.634-12.078v-27.719z"/>
<path d="m125.14 63.722v-52.572h4.413v-1.626h-9.46v1.626h4.412v52.572h0.635z"/>
<path d="m139.75 12.156v51.566h0.606v-54.198h-0.865l-7.124 50.947v-50.947h-0.606v54.198h0.779l3.547-25.706 3.663-25.86z"/>
<path d="m142.66 9.5234v54.198h4.067c3.057 0 4.269-4.8004 4.269-12.466v-4.8005c0-6.2715-0.808-10.607-3.202-11.536 2.279-0.9291 2.798-4.6456 2.798-10.685v-3.4842c0-7.2781-0.952-11.227-3.894-11.227h-4.038zm0.635 24.622v-22.996h3.403c2.538 0 3.259 3.3293 3.259 9.6783v3.639c0 7.8975-1.24 9.6783-4.037 9.6783h-2.625zm0 27.951v-26.402h2.913c2.769 0 4.153 2.8647 4.153 10.685v4.8779c0 6.8135-0.98 10.84-3.634 10.84h-3.432z"/>
<path d="m153.22 50.405c0 7.5878 1.211 13.704 4.269 13.704 3.115 0 4.326-6.1166 4.326-13.704v-27.564c0-7.5878-1.211-13.704-4.326-13.704-3.058 0-4.269 6.1167-4.269 13.704v27.564zm0.635-27.641c0-6.6587 0.951-12.079 3.634-12.079 2.711 0 3.691 5.4199 3.691 12.079v27.719c0 6.6587-0.98 12.078-3.691 12.078-2.683 0-3.634-5.4198-3.634-12.078v-27.719z"/>
<path d="m172.03 11.149v52.572h0.635v-54.198h-8.566v54.198h0.634v-52.572h7.297z"/>
<path d="m174.94 50.405c0 7.5878 1.212 13.704 4.269 13.704 3.115 0 4.326-6.1166 4.326-13.704v-27.564c0-7.5878-1.211-13.704-4.326-13.704-3.057 0-4.269 6.1167-4.269 13.704v27.564zm0.635-27.641c0-6.6587 0.951-12.079 3.634-12.079 2.711 0 3.692 5.4199 3.692 12.079v27.719c0 6.6587-0.981 12.078-3.692 12.078-2.683 0-3.634-5.4198-3.634-12.078v-27.719z"/>
<path d="m194.46 63.722h0.692l-6.778-28.57 6.259-25.628h-0.693l-7.499 30.583v-30.583h-0.634v54.198h0.634v-20.75l1.529-6.1941 6.49 26.944z"/>
<path d="m206.24 50.947 1.182 12.775h0.635l-4.99-54.276h-0.894l-4.874 54.276h0.577l1.182-12.775h7.182zm-3.634-39.488 3.518 37.939h-6.951l3.433-37.939z"/>
<path d="m214.5 9.1363c-3.086 0-4.211 6.1167-4.211 13.627v2.3227h0.577v-2.3227c0-6.6587 0.923-12.079 3.605-12.079 2.683 0 3.606 5.4199 3.606 12.156v1.6259c0 5.3425-1.442 10.22-3.461 10.22h-1.327v1.5485h1.298c2.134 0 3.49 4.2585 3.49 9.9881v4.181c0 6.6587-0.923 12.156-3.606 12.156-2.682 0-3.576-5.4973-3.576-12.078v-4.0262h-0.635v3.9488c0 7.5878 1.154 13.704 4.24 13.704s4.211-6.1166 4.211-13.704v-4.181c0-5.1876-0.98-9.6009-2.942-10.84 1.846-1.4711 2.942-5.9619 2.942-11.149v-1.3937c0-7.5878-1.125-13.704-4.211-13.704z"/>
<path d="m229.85 50.947 1.182 12.775h0.635l-4.99-54.276h-0.894l-4.874 54.276h0.577l1.182-12.775h7.182zm-3.634-39.488 3.519 37.939h-6.951l3.432-37.939z"/>
<path d="m241.82 37.397v26.325h0.635v-54.198h-0.635v26.325h-7.297v-26.325h-0.634v54.198h0.634v-26.325h7.297z"/>
<path d="m252.75 12.156v51.566h0.606v-54.198h-0.866l-7.124 50.947v-50.947h-0.605v54.198h0.778l3.548-25.706 3.663-25.86z"/>
<path d="m263.68 38.713v25.009h0.635v-54.198h-4.01c-2.999 0-4.153 4.7231-4.153 12.156v4.8779c0 6.6586 0.981 10.298 3.202 11.382-2.25 0.9291-3.202 4.8779-3.202 10.84v8.5169c0 2.0905-0.086 4.723-0.548 6.4264h0.692c0.404-1.7034 0.491-4.1036 0.491-6.4264v-8.5169c0-7.9749 1.788-10.065 4.413-10.065h2.48zm0-27.564v25.938h-2.48c-2.798 0-4.413-1.9356-4.413-10.298v-4.9553c0-6.5812 0.952-10.685 3.547-10.685h3.346z"/>
<path d="m271.1 57.45v6.2715h0.634v-6.2715h-0.634z"/>
<path d="m278.48 50.405c0 7.5878 1.211 13.704 4.268 13.704 3.115 0 4.327-6.1166 4.327-13.704v-27.564c0-7.5878-1.212-13.704-4.327-13.704-3.057 0-4.268 6.1167-4.268 13.704v27.564zm0.634-27.641c0-6.6587 0.952-12.079 3.634-12.079 2.712 0 3.692 5.4199 3.692 12.079v27.719c0 6.6587-0.98 12.078-3.692 12.078-2.682 0-3.634-5.4198-3.634-12.078v-27.719z"/>
<path d="m293.56 9.1363c-3.087 0-4.211 6.1167-4.211 13.627v2.3227h0.576v-2.3227c0-6.6587 0.923-12.079 3.606-12.079 2.682 0 3.605 5.4199 3.605 12.156v1.6259c0 5.3425-1.442 10.22-3.461 10.22h-1.327v1.5485h1.298c2.134 0 3.49 4.2585 3.49 9.9881v4.181c0 6.6587-0.923 12.156-3.605 12.156-2.683 0-3.577-5.4973-3.577-12.078v-4.0262h-0.634v3.9488c0 7.5878 1.153 13.704 4.24 13.704 3.086 0 4.21-6.1166 4.21-13.704v-4.181c0-5.1876-0.98-9.6009-2.941-10.84 1.846-1.4711 2.941-5.9619 2.941-11.149v-1.3937c0-7.5878-1.124-13.704-4.21-13.704z"/>
<path d="m307.98 37.397v26.325h0.635v-54.198h-0.635v26.325h-7.297v-26.325h-0.634v54.198h0.634v-26.325h7.297z"/>
<path d="m319.78 50.947 1.183 12.775h0.634l-4.989-54.276h-0.894l-4.875 54.276h0.577l1.183-12.775h7.181zm-3.634-39.488 3.519 37.939h-6.951l3.432-37.939z"/>
<path d="m332.48 63.722h0.692l-6.778-28.57 6.259-25.628h-0.693l-7.499 30.583v-30.583h-0.634v54.198h0.634v-20.75l1.529-6.1941 6.49 26.944z"/>
<path d="m335.37 50.405c0 7.5878 1.212 13.704 4.269 13.704 3.115 0 4.326-6.1166 4.326-13.704v-27.564c0-7.5878-1.211-13.704-4.326-13.704-3.057 0-4.269 6.1167-4.269 13.704v27.564zm0.635-27.641c0-6.6587 0.952-12.079 3.634-12.079 2.711 0 3.692 5.4199 3.692 12.079v27.719c0 6.6587-0.981 12.078-3.692 12.078-2.682 0-3.634-5.4198-3.634-12.078v-27.719z"/>
<path d="m357.5 12.078v51.643h0.634v-54.198h-0.981l-4.96 51.411-4.961-51.411h-0.981v54.198h0.577v-51.643l4.99 51.489h0.721l4.961-51.489z"/>
<path d="m361.08 32.519v-22.996h-0.634v54.198h3.951c3.144 0 4.211-5.4973 4.211-13.085v-5.4199c0-8.5943-1.442-12.698-4.672-12.698h-2.856zm0 29.577v-27.951h2.856c2.826 0 4.038 3.3294 4.038 10.995v5.5747c0 6.6587-0.866 11.382-3.577 11.382h-3.317z"/>
<path d="m375.8 63.722v-52.572h4.413v-1.626h-9.46v1.626h4.413v52.572h0.634z"/>
<path d="m383.05 35.461v-24.312h7.066v-1.626h-7.701v54.198h7.701v-1.6259h-7.066v-25.086h5.942v-1.5485h-5.942z"/>
<path d="m396.54 9.1363c-3.057 0-4.211 6.1941-4.211 13.704v27.564c0 7.5103 1.154 13.704 4.211 13.704 3.086 0 4.24-6.1941 4.24-13.704v-5.8844h-0.634v5.9618c0 6.5812-0.923 12.001-3.577 12.001-2.682 0-3.605-5.4199-3.605-12.001v-27.719c0-6.5813 0.923-12.079 3.605-12.079 2.654 0 3.577 5.4973 3.577 12.079v4.2584h0.634v-4.181c0-7.5104-1.154-13.704-4.24-13.704z"/>
<path d="m403.66 32.519v-22.996h-0.635v54.198h3.951c3.144 0 4.211-5.4973 4.211-13.085v-5.4199c0-8.5943-1.442-12.698-4.672-12.698h-2.855zm0 29.577v-27.951h2.855c2.827 0 4.038 3.3294 4.038 10.995v5.5747c0 6.6587-0.865 11.382-3.577 11.382h-3.316z"/>
<path d="m422.11 9.1363c-3.057 0-4.211 6.1941-4.211 13.704v27.564c0 7.5103 1.154 13.704 4.211 13.704 3.086 0 4.24-6.1941 4.24-13.704v-5.8844h-0.635v5.9618c0 6.5812-0.923 12.001-3.576 12.001-2.682 0-3.605-5.4199-3.605-12.001v-27.719c0-6.5813 0.923-12.079 3.605-12.079 2.653 0 3.576 5.4973 3.576 12.079v4.2584h0.635v-4.181c0-7.5104-1.154-13.704-4.24-13.704z"/>
<path d="m441.07 12.156v51.566h0.605v-54.198h-0.865l-7.124 50.947v-50.947h-0.606v54.198h0.779l3.548-25.706 3.663-25.86z"/>
<path d="m451.91 37.397v26.325h0.635v-54.198h-0.635v26.325h-7.297v-26.325h-0.634v54.198h0.634v-26.325h7.297z"/>
<path d="m459.04 9.1363c-3.057 0-4.211 6.1941-4.211 13.704v27.564c0 7.5103 1.154 13.704 4.211 13.704 3.086 0 4.24-6.1941 4.24-13.704v-5.8844h-0.635v5.9618c0 6.5812-0.923 12.001-3.576 12.001-2.683 0-3.606-5.4199-3.606-12.001v-27.719c0-6.5813 0.923-12.079 3.606-12.079 2.653 0 3.576 5.4973 3.576 12.079v4.2584h0.635v-4.181c0-7.5104-1.154-13.704-4.24-13.704z"/>
<path d="m470.46 63.722v-52.572h4.413v-1.626h-9.461v1.626h4.413v52.572h0.635z"/>
<path d="m477.08 9.5234v54.198h0.634v-22.996h2.885c3.201 0 4.643-4.1036 4.643-12.698v-5.4199c0-7.5878-1.067-13.085-4.182-13.085h-3.98zm0.634 29.577v-27.951h3.346c2.711 0 3.548 4.723 3.548 11.382v5.5747c0 7.6652-1.183 10.994-4.009 10.994h-2.885z"/>
<path d="m497.74 9.5234h-0.693l-2.451 19.202-1.933 15.253-4.672-34.455h-0.663l5.018 36.7-1.154 8.8266c-0.576 4.4133-1.153 7.1232-3.057 7.1232v1.5485c2.365 0.0774 3.057-3.3293 3.692-8.6717l5.913-45.527z"/>
<path d="m508.57 63.722h0.692l-6.777-28.57 6.258-25.628h-0.692l-7.499 30.583v-30.583h-0.634v54.198h0.634v-20.75l1.529-6.1941 6.489 26.944z"/>
<path d="m522.34 71v-8.904h-1.788v-52.573h-0.663v52.573h-7.268v-52.573h-0.606v54.198h9.691v7.2781h0.634z"/>
<path d="m532.61 12.156v51.566h0.605v-54.198h-0.865l-7.124 50.947v-50.947h-0.606v54.198h0.779l3.548-25.706 3.663-25.86z"/>
<path d="m536.16 35.461v-24.312h7.066v-1.626h-7.7v54.198h7.7v-1.6259h-7.066v-25.086h5.942v-1.5485h-5.942z"/>
<path d="m552.18 0c-0.057 3.097-1.096 4.4907-2.22 4.4907-1.154 0-2.192-1.3937-2.221-4.4907h-0.519c0.028 3.7165 1.297 5.807 2.74 5.807 1.442 0 2.682-2.1679 2.74-5.807h-0.52zm1.269 12.156v51.566h0.606v-54.198h-0.865l-7.124 50.947v-50.947h-0.606v54.198h0.779l3.749-27.022 3.461-24.544z"/>
<path d="m556.36 57.45v6.2715h0.635v-6.2715h-0.635z"/>
</g>
</svg>
