<?xml version="1.0" encoding="UTF-8"?>
<svg fill="none" viewBox="0 0 557 62" xmlns="http://www.w3.org/2000/svg">
<g fill="#000" opacity=".5">
<path d="m0.84088 23.935v-21.928h9.5937v-1.6214h-10.435v54.047h5.5804c4.128 0 5.7715-4.7099 5.7715-12.662v-6.2541c0-8.6476-2.064-11.582-6.1919-11.582h-4.3191zm0 28.877v-27.255h4.3191c3.5929 0 5.351 2.1619 5.351 9.8829v6.4085c0 6.9489-1.3377 10.964-4.9306 10.964h-4.7395z"/>
<path d="m26.105 41.694 1.5671 12.74h0.8409l-6.6124-54.125h-1.1849l-6.4595 54.125h0.7644l1.5671-12.74h9.5173zm-4.816-39.377 4.6631 37.833h-9.2115l4.5484-37.833z"/>
<path d="m47.213 62v-9.188h-2.3698v-52.426h-9.0586l-1.1084 43.161c-0.0765 3.6289-0.2294 6.8717-1.4143 9.2653h-1.9111v9.188h0.8409v-7.5666h14.18v7.5666h0.8409zm-10.626-59.993h7.415v50.805h-9.7848c1.1084-2.4708 1.1849-5.6364 1.2995-9.1881l1.0703-41.616z"/>
<path d="m50.204 48.179v6.2541h0.8409v-6.2541h-0.8409z"/>
<path d="m70.531 28.182v26.252h0.8409v-54.047h-0.8409v26.252h-9.6701v-26.252h-0.8409v54.047h0.8409v-26.252h9.6701z"/>
<path d="m75.269 26.252v-24.244h9.3643v-1.6214h-10.205v54.047h10.205v-1.6214h-9.3643v-25.016h7.8737v-1.5442h-7.8737z"/>
<path d="m104.16 29.494v24.939h0.841v-54.047h-5.313c-3.9751 0-5.504 4.7098-5.504 12.122v4.8643c0 6.6401 1.2996 10.269 4.2427 11.35-2.9814 0.9265-4.2427 4.8643-4.2427 10.81v8.4931c0 2.0847-0.1147 4.7098-0.7262 6.4085h0.9173c0.5351-1.6987 0.6498-4.0922 0.6498-6.4085v-8.4931c0-7.9527 2.3698-10.037 5.8481-10.037h3.287zm0-27.487v25.866h-3.287c-3.7077 0-5.8481-1.9303-5.8481-10.269v-4.9415c0-6.5629 1.2613-10.655 4.7013-10.655h4.4338z"/>
<path d="m108.06 0.38605v54.047h5.389c4.052 0 5.657-4.7871 5.657-12.431v-4.7871c0-6.254-1.07-10.578-4.242-11.504 3.019-0.9265 3.707-4.6326 3.707-10.655v-3.4744c0-7.2578-1.261-11.196-5.16-11.196h-5.351zm0.841 24.553v-22.932h4.51c3.364 0 4.319 3.32 4.319 9.6513v3.6289c0 7.8754-1.643 9.6513-5.351 9.6513h-3.478zm0 27.873v-26.329h3.86c3.67 0 5.504 2.8568 5.504 10.655v4.8643c0 6.7945-1.299 10.81-4.816 10.81h-4.548z"/>
<path d="m134.74 2.0075v52.426h0.879v-54.047h-9.288l-0.802 40.999c-0.077 5.4819-0.115 11.504-3.593 11.504v1.6214h0.267c3.823-0.2316 4.014-6.7173 4.167-13.126l0.764-39.377h7.606z"/>
<path d="m149.29 29.494v24.939h0.841v-54.047h-5.313c-3.975 0-5.504 4.7098-5.504 12.122v4.8643c0 6.6401 1.3 10.269 4.243 11.35-2.981 0.9265-4.243 4.8643-4.243 10.81v8.4931c0 2.0847-0.114 4.7098-0.726 6.4085h0.917c0.536-1.6987 0.65-4.0922 0.65-6.4085v-8.4931c0-7.9527 2.37-10.037 5.848-10.037h3.287zm0-27.487v25.866h-3.287c-3.707 0-5.848-1.9303-5.848-10.269v-4.9415c0-6.5629 1.262-10.655 4.701-10.655h4.434z"/>
<path d="m154.03 26.252v-24.244h9.365v-1.6214h-10.206v54.047h10.206v-1.6214h-9.365v-25.016h7.874v-1.5442h-7.874z"/>
<path d="m172.9 54.433v-52.426h5.848v-1.6214h-12.536v1.6214h5.848v52.426h0.84z"/>
<path d="m187.21 0c-4.051 0-5.58 6.1768-5.58 13.666v27.487c0 7.4894 1.529 13.666 5.58 13.666 4.09 0 5.619-6.1768 5.619-13.666v-5.868h-0.841v5.9452c0 6.5629-1.223 11.968-4.739 11.968-3.555 0-4.778-5.4047-4.778-11.968v-27.641c0-6.5628 1.223-12.045 4.778-12.045 3.516 0 4.739 5.4819 4.739 12.045v4.2466h0.841v-4.1693c0-7.4895-1.529-13.666-5.619-13.666z"/>
<path d="m206.44 29.494v24.939h0.841v-54.047h-5.312c-3.976 0-5.504 4.7098-5.504 12.122v4.8643c0 6.6401 1.299 10.269 4.242 11.35-2.981 0.9265-4.242 4.8643-4.242 10.81v8.4931c0 2.0847-0.115 4.7098-0.727 6.4085h0.918c0.535-1.6987 0.649-4.0922 0.649-6.4085v-8.4931c0-7.9527 2.37-10.037 5.848-10.037h3.287zm0-27.487v25.866h-3.287c-3.707 0-5.848-1.9303-5.848-10.269v-4.9415c0-6.5629 1.262-10.655 4.702-10.655h4.433z"/>
<path d="m228.92 2.0075v52.426h0.879v-54.047h-9.288l-0.803 40.999c-0.076 5.4819-0.114 11.504-3.592 11.504v1.6214h0.267c3.822-0.2316 4.013-6.7173 4.166-13.126l0.765-39.377h7.606z"/>
<path d="m233.68 26.252v-24.244h9.365v-1.6214h-10.206v54.047h10.206v-1.6214h-9.365v-25.016h7.874v-1.5442h-7.874z"/>
<path d="m257.48 54.433h0.917l-8.982-28.491 8.294-25.557h-0.917l-9.938 30.498v-30.498h-0.841v54.047h0.841v-20.692l2.026-6.1769 8.6 26.869z"/>
<path d="m273.09 41.694 1.567 12.74h0.841l-6.613-54.125h-1.185l-6.459 54.125h0.764l1.567-12.74h9.518zm-4.816-39.377 4.663 37.833h-9.212l4.549-37.833z"/>
<path d="m278.45 0.38605v54.047h0.841v-22.932h3.822c4.243 0 6.154-4.0922 6.154-12.662v-5.4048c0-7.5666-1.415-13.049-5.543-13.049h-5.274zm0.841 29.494v-27.873h4.433c3.593 0 4.702 4.7098 4.702 11.35v5.5592c0 7.6438-1.567 10.964-5.313 10.964h-3.822z"/>
<path d="m297.73 0c-4.051 0-5.58 6.1768-5.58 13.666v27.487c0 7.4894 1.529 13.666 5.58 13.666 4.09 0 5.619-6.1768 5.619-13.666v-5.868h-0.841v5.9452c0 6.5629-1.223 11.968-4.74 11.968-3.554 0-4.778-5.4047-4.778-11.968v-27.641c0-6.5628 1.224-12.045 4.778-12.045 3.517 0 4.74 5.4819 4.74 12.045v4.2466h0.841v-4.1693c0-7.4895-1.529-13.666-5.619-13.666z"/>
<path d="m312.87 54.433v-52.426h5.848v-1.6214h-12.536v1.6214h5.847v52.426h0.841z"/>
<path d="m321.64 0.38605v54.047h5.389c4.052 0 5.657-4.7871 5.657-12.431v-4.7871c0-6.254-1.07-10.578-4.242-11.504 3.019-0.9265 3.707-4.6326 3.707-10.655v-3.4744c0-7.2578-1.261-11.196-5.16-11.196h-5.351zm0.841 24.553v-22.932h4.51c3.364 0 4.319 3.32 4.319 9.6513v3.6289c0 7.8754-1.643 9.6513-5.351 9.6513h-3.478zm0 27.873v-26.329h3.86c3.67 0 5.504 2.8568 5.504 10.655v4.8643c0 6.7945-1.299 10.81-4.816 10.81h-4.548z"/>
<path d="m336.52 26.252v-24.244h9.364v-1.6214h-10.205v54.047h10.205v-1.6214h-9.364v-25.016h7.873v-1.5442h-7.873z"/>
<path d="m359.36 28.182v26.252h0.841v-54.047h-0.841v26.252h-9.67v-26.252h-0.841v54.047h0.841v-26.252h9.67z"/>
<path d="m373.77 28.182v26.252h0.841v-54.047h-0.841v26.252h-9.67v-26.252h-0.841v54.047h0.841v-26.252h9.67z"/>
<path d="m378.51 23.318v-22.932h-0.841v54.047h5.236c4.166 0 5.58-5.482 5.58-13.049v-5.4047c0-8.5704-1.911-12.662-6.192-12.662h-3.783zm12.536-22.932v54.047h0.841v-54.047h-0.841zm-12.536 52.426v-27.873h3.783c3.746 0 5.352 3.32 5.352 10.964v5.5591c0 6.6401-1.147 11.35-4.74 11.35h-4.395z"/>
<path d="m409.85 2.934v51.499h0.841v-54.047h-1.299l-6.575 51.268-6.574-51.268h-1.299v54.047h0.764v-51.499l6.612 51.345h0.956l6.574-51.345z"/>
<path d="m425.24 0c-4.051 0-5.58 6.1768-5.58 13.666v27.487c0 7.4894 1.529 13.666 5.58 13.666 4.09 0 5.619-6.1768 5.619-13.666v-5.868h-0.841v5.9452c0 6.5629-1.223 11.968-4.74 11.968-3.554 0-4.778-5.4047-4.778-11.968v-27.641c0-6.5628 1.224-12.045 4.778-12.045 3.517 0 4.74 5.4819 4.74 12.045v4.2466h0.841v-4.1693c0-7.4895-1.529-13.666-5.619-13.666z"/>
<path d="m433.84 0.38605v54.047h0.841v-22.932h3.823c4.242 0 6.153-4.0922 6.153-12.662v-5.4048c0-7.5666-1.414-13.049-5.542-13.049h-5.275zm0.841 29.494v-27.873h4.434c3.593 0 4.701 4.7098 4.701 11.35v5.5592c0 7.6438-1.567 10.964-5.312 10.964h-3.823z"/>
<path d="m448.42 26.252v-24.244h9.365v-1.6214h-10.206v54.047h10.206v-1.6214h-9.365v-25.016h7.874v-1.5442h-7.874z"/>
<path d="m476.5 62v-9.188h-2.37v-52.426h-9.058l-1.109 43.161c-0.076 3.6289-0.229 6.8717-1.414 9.2653h-1.911v9.188h0.841v-7.5666h14.18v7.5666h0.841zm-10.626-59.993h7.415v50.805h-9.784c1.108-2.4708 1.184-5.6364 1.299-9.1881l1.07-41.616z"/>
<path d="m485.03 0c-4.051 0-5.58 6.1768-5.58 13.666v27.487c0 7.4894 1.529 13.666 5.58 13.666 4.09 0 5.619-6.1768 5.619-13.666v-5.868h-0.841v5.9452c0 6.5629-1.223 11.968-4.739 11.968-3.555 0-4.778-5.4047-4.778-11.968v-27.641c0-6.5628 1.223-12.045 4.778-12.045 3.516 0 4.739 5.4819 4.739 12.045v4.2466h0.841v-4.1693c0-7.4895-1.529-13.666-5.619-13.666z"/>
<path d="m500.17 54.433v-52.426h5.848v-1.6214h-12.537v1.6214h5.848v52.426h0.841z"/>
<path d="m508.94 0.38605v54.047h5.389c4.051 0 5.657-4.7871 5.657-12.431v-4.7871c0-6.254-1.071-10.578-4.243-11.504 3.02-0.9265 3.708-4.6326 3.708-10.655v-3.4744c0-7.2578-1.262-11.196-5.16-11.196h-5.351zm0.84 24.553v-22.932h4.511c3.363 0 4.319 3.32 4.319 9.6513v3.6289c0 7.8754-1.644 9.6513-5.351 9.6513h-3.479zm0 27.873v-26.329h3.861c3.669 0 5.504 2.8568 5.504 10.655v4.8643c0 6.7945-1.3 10.81-4.816 10.81h-4.549z"/>
<path d="m522.94 41.153c0 7.5666 1.605 13.666 5.657 13.666 4.128 0 5.733-6.0996 5.733-13.666v-27.487c0-7.5667-1.605-13.666-5.733-13.666-4.052 0-5.657 6.0996-5.657 13.666v27.487zm0.841-27.564c0-6.6401 1.261-12.045 4.816-12.045 3.593 0 4.892 5.4047 4.892 12.045v27.641c0 6.6401-1.299 12.045-4.892 12.045-3.555 0-4.816-5.4047-4.816-12.045v-27.641z"/>
<path d="m552.25 2.934v51.499h0.841v-54.047h-1.299l-6.575 51.268-6.574-51.268h-1.299v54.047h0.764v-51.499l6.613 51.345h0.955l6.574-51.345z"/>
<path d="m556.16 48.179v6.2541h0.841v-6.2541h-0.841z"/>
</g>
</svg>
