<svg width="291" height="171" viewBox="0 0 291 171" fill="none" xmlns="http://www.w3.org/2000/svg">
<mask id="mask0" mask-type="alpha" maskUnits="userSpaceOnUse" x="0" y="0" width="291" height="171">
<rect y="0.836426" width="291" height="169.309" rx="15" fill="#FAFAFA"/>
</mask>
<g mask="url(#mask0)">
<path d="M205.359 151.601C196.087 157.767 193.57 170.282 199.736 179.553C205.902 188.825 218.417 191.342 227.688 185.176C236.96 179.01 239.477 166.495 233.311 157.224C227.146 147.952 214.631 145.435 205.359 151.601ZM222.726 177.715C217.576 181.141 210.623 179.742 207.198 174.591C203.772 169.44 205.171 162.488 210.322 159.062C215.472 155.637 222.425 157.035 225.85 162.186C229.276 167.337 227.877 174.29 222.726 177.715Z" fill="#FAFAFA"/>
<path d="M178.099 28.4896C176.757 28.1576 175.341 28.3332 174.122 28.9819L51.573 108.061L41.3926 100.034C34.4662 94.7489 24.9647 94.39 17.6595 99.1376L5.16189 107.449C3.10145 108.819 2.542 111.6 3.91227 113.661C5.28255 115.721 8.06351 116.281 10.1239 114.91L22.6215 106.599C26.7374 103.991 32.0413 104.22 35.9171 107.173L107.118 162.86L108.106 168.391C109.594 175.139 114.234 180.762 120.577 183.502C126.834 186.177 134.001 185.629 139.778 182.033L212.339 133.777C214.399 132.406 214.959 129.626 213.588 127.565C212.218 125.505 209.437 124.945 207.377 126.315L134.815 174.572C131.564 176.619 127.502 176.894 124.004 175.305C120.547 173.737 118.006 170.662 117.116 166.972L116.376 162.622L189.447 102.189C197.442 95.5019 200.365 84.5091 196.748 74.7348L180.767 31.2875C180.453 29.9395 179.431 28.8677 178.099 28.4896ZM188.357 77.8945C190.761 84.1361 188.812 91.2154 183.553 95.3478L111.29 154.974L58.96 113.909L174.42 39.5444L188.357 77.8945Z" fill="#FAFAFA"/>
</g>
</svg>
