<svg width="68" height="66" viewBox="0 0 68 66" fill="none" xmlns="http://www.w3.org/2000/svg">
<path d="M51.2664 43.8291H44.2932V39.7902C48.3278 36.7834 50.9339 32.0563 50.9339 26.7488V23.8479H52.5941C53.1443 23.8479 53.5902 23.4152 53.5902 22.8812C53.5902 21.9369 52.6297 20.9043 50.9339 19.9631V16.4359C50.9339 7.37302 43.3375 0 34 0C24.6625 0 17.0662 7.37302 17.0662 16.4357V19.963C15.3705 20.9041 14.41 21.9368 14.41 22.881C14.41 23.4151 14.8558 23.8478 15.4061 23.8478H17.0662V26.7487C17.0662 32.0563 19.6724 36.7833 23.7071 39.7902V43.829H16.7338C12.5227 43.829 9.09697 47.154 9.09697 51.2412C9.09697 51.2438 9.09737 51.2461 9.09737 51.2488V56.3974C9.09737 56.9311 9.54348 57.3642 10.0935 57.3642C10.642 57.3642 11.0895 56.9311 11.0895 56.3974V51.2411C11.0895 51.2394 11.0893 51.2378 11.0893 51.2362C11.0921 48.2177 13.6231 45.7627 16.7338 45.7627H24.4016L28.1348 48.1784C28.1491 48.1877 28.1647 48.1942 28.1793 48.2026C28.1989 48.2141 28.2184 48.2253 28.2388 48.2352C28.2669 48.249 28.2955 48.2606 28.3244 48.2717C28.3434 48.2789 28.3617 48.2865 28.3813 48.2927C28.4142 48.303 28.4474 48.3105 28.4809 48.3174C28.498 48.3208 28.5147 48.3256 28.5321 48.3283C28.5802 48.3357 28.6286 48.3397 28.6768 48.3402C28.6801 48.3402 28.6833 48.3409 28.6866 48.3409C28.7404 48.3409 28.7947 48.335 28.8494 48.3262C28.8753 48.3221 28.9014 48.3184 28.9269 48.3123C28.9277 48.3122 28.9283 48.3121 28.9291 48.3119L34.0002 47.0815L39.0713 48.3119C39.0721 48.3121 39.0729 48.3122 39.0736 48.3123C39.0997 48.3186 39.1263 48.3224 39.1531 48.3266C39.2069 48.3351 39.2607 48.3409 39.3138 48.3409C39.3171 48.3409 39.3205 48.3402 39.3237 48.3402C39.3719 48.3397 39.4202 48.3357 39.4683 48.3283C39.4857 48.3256 39.5024 48.3208 39.5195 48.3174C39.553 48.3104 39.5864 48.303 39.6192 48.2927C39.6385 48.2865 39.657 48.2789 39.676 48.2717C39.705 48.2606 39.7335 48.249 39.7617 48.2352C39.782 48.2253 39.8016 48.2141 39.8212 48.2026C39.8359 48.1942 39.8513 48.1877 39.8657 48.1784L43.5989 45.7627H51.2665C54.379 45.7627 56.9111 48.2203 56.9111 51.2413V64.0659H50.9342V57.1694C50.9342 57.1373 50.9325 57.1051 50.9293 57.0731C50.9278 57.06 50.9253 57.0474 50.9235 57.0343C50.9209 57.016 50.9185 56.9977 50.915 56.9796C50.9119 56.9641 50.9074 56.9493 50.9035 56.9341C50.8995 56.9186 50.896 56.9032 50.8912 56.8879C50.8865 56.873 50.8807 56.8584 50.8752 56.8436C50.8698 56.8286 50.8646 56.8135 50.8584 56.7987C50.8524 56.7849 50.8454 56.7715 50.8388 56.7581C50.8315 56.743 50.8246 56.7278 50.8164 56.7129C50.8094 56.7001 50.8014 56.6881 50.7937 56.6756C50.7848 56.661 50.776 56.6461 50.7662 56.6318C50.7572 56.6184 50.7468 56.6059 50.7369 56.593C50.7274 56.5805 50.7184 56.5678 50.7082 56.5557C50.6908 56.5351 50.6722 56.5156 50.6529 56.4964C50.6493 56.4928 50.6461 56.4887 50.6424 56.4851L46.6581 52.6179C46.6546 52.6146 46.6506 52.6116 46.647 52.6082C46.6271 52.5896 46.6067 52.5711 46.5851 52.554C46.5735 52.5448 46.5612 52.5367 46.5493 52.5281C46.5352 52.5177 46.5213 52.5072 46.5067 52.4976C46.4928 52.4887 46.4786 52.481 46.4647 52.4729C46.4509 52.4648 46.4372 52.4564 46.423 52.4489C46.4092 52.4417 46.3947 52.4356 46.3806 52.4291C46.3653 52.422 46.3502 52.4147 46.3344 52.4083C46.3209 52.4029 46.3072 52.3986 46.2935 52.3939C46.2765 52.3879 46.2596 52.3816 46.2422 52.3765C46.2289 52.3726 46.2155 52.3698 46.202 52.3664C46.1839 52.362 46.1661 52.3571 46.1477 52.3535C46.1329 52.3508 46.118 52.3491 46.1033 52.3469C46.0859 52.3444 46.0688 52.3413 46.0512 52.3396C46.0267 52.3373 46.0021 52.3366 45.9773 52.336C45.9693 52.3359 45.9616 52.3348 45.9536 52.3348H22.0467C22.0426 52.3348 22.0384 52.3353 22.0343 52.3355C22.0058 52.3359 21.9772 52.3369 21.9487 52.3396C21.9322 52.3411 21.9161 52.3441 21.8998 52.3464C21.8841 52.3488 21.8682 52.3504 21.8525 52.3535C21.8344 52.357 21.8169 52.3618 21.7992 52.3662C21.7854 52.3696 21.7716 52.3725 21.7581 52.3765C21.7407 52.3816 21.7238 52.3878 21.7068 52.3939C21.6933 52.3986 21.6794 52.4029 21.666 52.4083C21.6498 52.4149 21.6344 52.4224 21.6187 52.4297C21.6049 52.436 21.5911 52.442 21.5777 52.4488C21.5623 52.4568 21.5474 52.4659 21.5326 52.4746C21.5197 52.4822 21.5067 52.4891 21.494 52.4974C21.477 52.5083 21.461 52.5206 21.4446 52.5326C21.4351 52.5397 21.425 52.546 21.4157 52.5536C21.3899 52.5741 21.3651 52.5957 21.3414 52.6187L17.3587 56.4846C17.335 56.5075 17.3127 56.5314 17.2916 56.5565C17.2831 56.5665 17.2758 56.5772 17.2677 56.5876C17.2561 56.6023 17.2443 56.617 17.2337 56.6324C17.2247 56.6457 17.2167 56.6594 17.2085 56.673C17.2001 56.6863 17.1913 56.6996 17.1838 56.7135C17.1759 56.7276 17.1694 56.7422 17.1624 56.7568C17.1555 56.7707 17.1483 56.7847 17.1422 56.799C17.1361 56.8134 17.131 56.8282 17.1256 56.8429C17.12 56.8579 17.114 56.8728 17.1094 56.8883C17.1047 56.9031 17.1013 56.9182 17.0974 56.9334C17.0933 56.9489 17.0889 56.9641 17.0856 56.9799C17.082 56.9975 17.0799 57.0151 17.0772 57.0328C17.0753 57.0463 17.0726 57.0597 17.0711 57.0734C17.0679 57.1052 17.0662 57.1372 17.0662 57.1693V64.066H11.0895V60.2647C11.0895 59.7323 10.642 59.2979 10.0935 59.2979C9.54348 59.2979 9.09737 59.7323 9.09737 60.2647V65.0253C9.09737 65.0279 9.09697 65.0304 9.09697 65.0329C9.09697 65.4712 9.39752 65.8409 9.80937 65.9595C9.89942 65.9856 9.99465 66 10.0935 66C10.0952 66 10.0968 65.9997 10.0985 65.9997H57.9019C57.9038 65.9997 57.9054 66 57.9071 66C58.4573 66 58.9032 65.5673 58.9032 65.0332V51.2413C58.9031 47.1542 55.4773 43.8291 51.2664 43.8291ZM19.0585 16.4357C19.0585 8.43933 25.7614 1.93359 34 1.93359C42.2386 1.93359 48.9416 8.43933 48.9416 16.4357V19.0355C48.842 18.9961 48.7411 18.9571 48.6387 18.9185C46.0275 17.9328 41.3682 16.758 34 16.758C26.6319 16.758 21.9727 17.9328 19.3613 18.9185C19.2589 18.9571 19.158 18.9962 19.0584 19.0355V16.4357H19.0585ZM20.5584 20.5481C22.9797 19.7012 27.2773 18.6916 34.0002 18.6916C40.723 18.6916 45.0205 19.7012 47.4419 20.5481C48.7537 21.0069 49.7208 21.4918 50.3931 21.9142H17.6072C18.2793 21.4921 19.2466 21.0071 20.5584 20.5481ZM33.0039 45.33L28.8732 46.3322L25.6993 44.2783V41.07C27.8814 42.2661 30.3622 43.0058 33.0039 43.1553V45.33ZM42.3009 44.2785L39.127 46.3323L34.9962 45.3301V43.1554C37.638 43.0059 40.1189 42.266 42.301 41.0699V44.2785H42.3009ZM34.202 41.2484C34.1368 41.2354 34.0692 41.2286 34 41.2286C33.931 41.2286 33.8633 41.2355 33.7981 41.2484C25.6522 41.1431 19.0585 34.6799 19.0585 26.7488V23.8479H48.9418V26.7488C48.9416 34.6799 42.3479 41.1431 34.202 41.2484ZM22.4593 54.2684H45.5408L47.533 56.202H20.4671L22.4593 54.2684ZM48.9418 64.0659H19.0585V58.1356H48.9419V64.0659H48.9418Z" fill="black"/>
<path d="M34 6.44513C31.9862 6.44513 30.3477 8.03544 30.3477 9.99004C30.3477 11.9446 31.9862 13.5349 34 13.5349C36.0138 13.5349 37.6523 11.9446 37.6523 9.99004C37.6525 8.03544 36.014 6.44513 34 6.44513ZM34 11.6014C33.0845 11.6014 32.3399 10.8786 32.3399 9.99004C32.3399 9.10149 33.0847 8.37872 34 8.37872C34.9155 8.37872 35.6602 9.10149 35.6602 9.99004C35.6602 10.8786 34.9156 11.6014 34 11.6014Z" fill="black"/>
</svg>
