<svg width="16" height="14" viewBox="0 0 16 14" fill="none" xmlns="http://www.w3.org/2000/svg">
<path d="M13.7785 2.06089C13.4402 1.72455 13.0385 1.45775 12.5963 1.27572C12.1542 1.09369 11.6803 1 11.2018 1C10.7232 1 10.2493 1.09369 9.80718 1.27572C9.36506 1.45775 8.96336 1.72455 8.62504 2.06089L7.9229 2.75857L7.22076 2.06089C6.53737 1.38184 5.61049 1.00035 4.64404 1.00035C3.67758 1.00035 2.7507 1.38184 2.06731 2.06089C1.38392 2.73994 1 3.66092 1 4.62124C1 5.58157 1.38392 6.50255 2.06731 7.1816L2.76945 7.87928L7.9229 13L13.0763 7.87928L13.7785 7.1816C14.117 6.84543 14.3855 6.44628 14.5687 6.00697C14.7519 5.56765 14.8462 5.09678 14.8462 4.62124C14.8462 4.14571 14.7519 3.67484 14.5687 3.23552C14.3855 2.79621 14.117 2.39706 13.7785 2.06089V2.06089Z" stroke="#BABABA" stroke-width="1.3" stroke-linecap="round" stroke-linejoin="round"/>
</svg>
