<svg width="65" height="65" viewBox="0 0 65 65" fill="none" xmlns="http://www.w3.org/2000/svg">
<path d="M64.5558 29.7692C64.5558 29.2437 64.1292 28.8171 63.6036 28.8171H40.4332V20.8833C40.4332 20.3573 40.007 19.9311 39.481 19.9311H33.1334H31.548V16.4404C31.548 15.3689 31.3385 14.3292 30.9246 13.3517C30.5247 12.4071 29.9522 11.5578 29.2235 10.8291C28.496 10.1004 27.6467 9.5291 26.7023 9.1292C25.7235 8.71521 24.6849 8.50586 23.6135 8.50586C22.5421 8.50586 21.5036 8.71521 20.5248 9.1292C20.4995 9.13986 20.475 9.15205 20.4499 9.1631C20.4247 9.15205 20.4002 9.13986 20.375 9.1292C19.3974 8.71521 18.3588 8.50586 17.2875 8.50586C16.216 8.50586 15.1762 8.71521 14.1987 9.1292C13.2542 9.52898 12.4048 10.1003 11.6761 10.8291C10.9474 11.5578 10.3761 12.4059 9.97624 13.3517C9.56224 14.3292 9.35289 15.3689 9.35289 16.4404V19.9311H1.39636C0.870522 19.9311 0.444214 20.3573 0.444214 20.8833V20.8835V20.8838V64.0466C0.444214 64.5725 0.870522 64.9987 1.39636 64.9987H33.1089C33.1171 64.999 33.1251 65 33.1334 65H39.481H39.4812H39.4813H63.6036C64.128 65 64.5558 64.5734 64.5558 64.0479C64.5558 64.039 64.5546 64.0302 64.5544 64.0213C64.5546 64.0123 64.5558 64.0035 64.5558 63.9945V29.7692ZM23.6134 10.4089C25.2232 10.4102 26.7376 11.0372 27.8778 12.1761C29.0165 13.316 29.6437 14.8305 29.6437 16.4404V19.9311H25.2219V16.4404C25.2219 15.3689 25.0112 14.3292 24.5973 13.3517C24.1985 12.4059 23.6261 11.5578 22.8973 10.8291C22.7848 10.7166 22.6684 10.6092 22.5504 10.5042C22.898 10.4425 23.2531 10.4091 23.6134 10.4089ZM20.4501 11.3054C20.8446 11.5494 21.2143 11.8398 21.5504 12.1761C22.6892 13.316 23.3163 14.8305 23.3176 16.4404V19.9311H17.5831V16.4404C17.5831 14.8305 18.2102 13.3161 19.3491 12.1761C19.6855 11.8399 20.0554 11.5494 20.4501 11.3054ZM13.023 12.1761C14.1629 11.0372 15.6776 10.4102 17.2873 10.4089C17.6476 10.4091 18.0027 10.4425 18.3502 10.5042C18.2321 10.6091 18.1157 10.7166 18.0034 10.8291C17.2746 11.5578 16.7021 12.4059 16.3023 13.3517C15.8897 14.3292 15.679 15.3689 15.679 16.4404V19.9311H11.2572V16.4404H11.2571C11.2571 14.8305 11.8841 13.3161 13.023 12.1761ZM32.1812 63.0944H2.34851V21.8354H9.35277V28.501C9.35277 29.0253 9.77933 29.4519 10.3049 29.4519C10.8292 29.4519 11.2571 29.0253 11.2571 28.501V21.8354H16.6212C16.6245 21.8354 16.6278 21.8359 16.631 21.8359C16.6343 21.8359 16.6375 21.8354 16.6408 21.8354H23.3176V28.501C23.3176 29.0253 23.7442 29.4519 24.2698 29.4519C24.7941 29.4519 25.2219 29.0253 25.2219 28.501V21.8354H30.5861C30.5894 21.8354 30.5925 21.8359 30.5958 21.8359C30.5991 21.8359 30.6023 21.8354 30.6056 21.8354H32.1812V63.0944ZM38.5289 63.0957H34.0855V21.8354H38.5289V63.0957ZM56.3038 63.0957H40.4332V40.8145C41.0838 40.7301 41.7169 40.5609 42.3238 40.3038C43.1934 39.9369 43.9742 39.4101 44.6445 38.7397C45.3147 38.0696 45.8404 37.2887 46.2084 36.4192C46.5893 35.5203 46.7824 34.5631 46.7824 33.578C46.7824 33.0522 46.3558 32.6258 45.8302 32.6258C45.3059 32.6258 44.8781 33.0522 44.8781 33.578C44.8781 35.0176 44.3169 36.3722 43.2988 37.3929C42.5065 38.1842 41.5124 38.698 40.4333 38.8889V30.7214H56.3038V63.0957ZM62.6515 63.0957H58.2081V30.7214H62.6515V63.0957Z" fill="black"/>
<path d="M50.2741 3.80884C48.6991 3.80884 47.4176 5.0903 47.4176 6.66528C47.4176 8.24026 48.6991 9.52173 50.2741 9.52173C51.8491 9.52173 53.1305 8.24026 53.1305 6.66528C53.1305 5.0903 51.8491 3.80884 50.2741 3.80884ZM50.2741 7.61743C49.749 7.61743 49.3219 7.19036 49.3219 6.66528C49.3219 6.1402 49.749 5.71313 50.2741 5.71313C50.7992 5.71313 51.2262 6.1402 51.2262 6.66528C51.2262 7.19036 50.7992 7.61743 50.2741 7.61743Z" fill="black"/>
<path d="M57.8913 11.426C56.3163 11.426 55.0348 12.7075 55.0348 14.2825C55.0348 15.8575 56.3163 17.1389 57.8913 17.1389C59.4662 17.1389 60.7477 15.8575 60.7477 14.2825C60.7477 12.7075 59.4662 11.426 57.8913 11.426ZM57.8913 15.2346C57.3662 15.2346 56.9391 14.8075 56.9391 14.2825C56.9391 13.7574 57.3662 13.3303 57.8913 13.3303C58.4163 13.3303 58.8434 13.7574 58.8434 14.2825C58.8434 14.8075 58.4163 15.2346 57.8913 15.2346Z" fill="black"/>
<path d="M60.4692 4.08775C60.0972 3.71603 59.4944 3.71603 59.1225 4.08775L47.6964 15.5136C47.3246 15.8856 47.3246 16.4884 47.6964 16.8604C47.8824 17.0462 48.1261 17.1392 48.3698 17.1392C48.6134 17.1392 48.8571 17.0462 49.0431 16.8604L60.4692 5.43434C60.841 5.06237 60.841 4.45959 60.4692 4.08775Z" fill="black"/>
<path d="M63.6036 0H44.5607C44.035 0 43.6085 0.426436 43.6085 0.952148C43.6085 1.00636 43.6141 1.05917 43.6227 1.11084C43.6141 1.16251 43.6085 1.21532 43.6085 1.26953V7.2998C43.6085 7.82412 44.035 8.25195 44.5607 8.25195C45.0863 8.25195 45.5128 7.82412 45.5128 7.2998V1.9043H62.6515V18.1539L54.0822 22.7246L45.5128 18.1539V11.1084C45.5128 10.5827 45.0863 10.1562 44.5607 10.1562C44.035 10.1562 43.6085 10.5827 43.6085 11.1084V18.7173C43.6083 18.7519 43.6098 18.7865 43.6133 18.8211C43.6255 18.9423 43.6611 19.0566 43.7146 19.1603C43.7174 19.1661 43.72 19.1722 43.723 19.1779C43.7253 19.182 43.728 19.1859 43.7303 19.1901C43.818 19.3483 43.9489 19.4783 44.1125 19.5661L53.634 24.6443C53.7724 24.7165 53.9274 24.756 54.0822 24.756C54.2369 24.756 54.3918 24.7165 54.5303 24.6443L64.0518 19.5661C64.1912 19.4916 64.3038 19.387 64.3873 19.2649C64.3894 19.262 64.3916 19.2593 64.3937 19.2564C64.4036 19.2415 64.4123 19.226 64.4215 19.2107C64.4288 19.1985 64.4363 19.1868 64.4431 19.1742C64.4466 19.1675 64.4495 19.1605 64.4528 19.1538C64.516 19.0291 64.5527 18.889 64.555 18.7404C64.555 18.7375 64.5555 18.7345 64.5555 18.7316C64.5555 18.7295 64.5558 18.7277 64.5558 18.7258V0.952148C64.5558 0.426436 64.1292 0 63.6036 0Z" fill="black"/>
</svg>
