<svg width="102" height="80" viewBox="0 0 102 80" fill="none" xmlns="http://www.w3.org/2000/svg">
<circle cx="62" cy="40" r="40" fill="#E8F6EF"/>
<path d="M51.2664 49.8291H44.2932V45.7902C48.3278 42.7834 50.9339 38.0563 50.9339 32.7488V29.8479H52.5941C53.1443 29.8479 53.5902 29.4152 53.5902 28.8812C53.5902 27.9369 52.6297 26.9043 50.9339 25.9631V22.4359C50.9339 13.373 43.3375 6 34 6C24.6625 6 17.0662 13.373 17.0662 22.4357V25.963C15.3705 26.9041 14.41 27.9368 14.41 28.881C14.41 29.4151 14.8558 29.8478 15.4061 29.8478H17.0662V32.7487C17.0662 38.0563 19.6724 42.7833 23.7071 45.7902V49.829H16.7338C12.5227 49.829 9.09697 53.154 9.09697 57.2412C9.09697 57.2438 9.09737 57.2461 9.09737 57.2488V62.3974C9.09737 62.9311 9.54348 63.3642 10.0935 63.3642C10.642 63.3642 11.0895 62.9311 11.0895 62.3974V57.2411C11.0895 57.2394 11.0893 57.2378 11.0893 57.2362C11.0921 54.2177 13.6231 51.7627 16.7338 51.7627H24.4016L28.1348 54.1784C28.1491 54.1877 28.1647 54.1942 28.1793 54.2026C28.1989 54.2141 28.2184 54.2253 28.2388 54.2352C28.2669 54.249 28.2955 54.2606 28.3244 54.2717C28.3434 54.2789 28.3617 54.2865 28.3813 54.2927C28.4142 54.303 28.4474 54.3105 28.4809 54.3174C28.498 54.3208 28.5147 54.3256 28.5321 54.3283C28.5802 54.3357 28.6286 54.3397 28.6768 54.3402C28.6801 54.3402 28.6833 54.3409 28.6866 54.3409C28.7404 54.3409 28.7947 54.335 28.8494 54.3262C28.8753 54.3221 28.9014 54.3184 28.9269 54.3123C28.9277 54.3122 28.9283 54.3121 28.9291 54.3119L34.0002 53.0815L39.0713 54.3119C39.0721 54.3121 39.0729 54.3122 39.0736 54.3123C39.0997 54.3186 39.1263 54.3224 39.1531 54.3266C39.2069 54.3351 39.2607 54.3409 39.3138 54.3409C39.3171 54.3409 39.3205 54.3402 39.3237 54.3402C39.3719 54.3397 39.4202 54.3357 39.4683 54.3283C39.4857 54.3256 39.5024 54.3208 39.5195 54.3174C39.553 54.3104 39.5864 54.303 39.6192 54.2927C39.6385 54.2865 39.657 54.2789 39.676 54.2717C39.705 54.2606 39.7335 54.249 39.7617 54.2352C39.782 54.2253 39.8016 54.2141 39.8212 54.2026C39.8359 54.1942 39.8513 54.1877 39.8657 54.1784L43.5989 51.7627H51.2665C54.379 51.7627 56.9111 54.2203 56.9111 57.2413V70.0659H50.9342V63.1694C50.9342 63.1373 50.9325 63.1051 50.9293 63.0731C50.9278 63.06 50.9253 63.0474 50.9235 63.0343C50.9209 63.016 50.9185 62.9977 50.915 62.9796C50.9119 62.9641 50.9074 62.9493 50.9035 62.9341C50.8995 62.9186 50.896 62.9032 50.8912 62.8879C50.8865 62.873 50.8807 62.8584 50.8752 62.8436C50.8698 62.8286 50.8646 62.8135 50.8584 62.7987C50.8524 62.7849 50.8454 62.7715 50.8388 62.7581C50.8315 62.743 50.8246 62.7278 50.8164 62.7129C50.8094 62.7001 50.8014 62.6881 50.7937 62.6756C50.7848 62.661 50.776 62.6461 50.7662 62.6318C50.7572 62.6184 50.7468 62.6059 50.7369 62.593C50.7274 62.5805 50.7184 62.5678 50.7082 62.5557C50.6908 62.5351 50.6722 62.5156 50.6529 62.4964C50.6493 62.4928 50.6461 62.4887 50.6424 62.4851L46.6581 58.6179C46.6546 58.6146 46.6506 58.6116 46.647 58.6082C46.6271 58.5896 46.6067 58.5711 46.5851 58.554C46.5735 58.5448 46.5612 58.5367 46.5493 58.5281C46.5352 58.5177 46.5213 58.5072 46.5067 58.4976C46.4928 58.4887 46.4786 58.481 46.4647 58.4729C46.4509 58.4648 46.4372 58.4564 46.423 58.4489C46.4092 58.4417 46.3947 58.4356 46.3806 58.4291C46.3653 58.422 46.3502 58.4147 46.3344 58.4083C46.3209 58.4029 46.3072 58.3986 46.2935 58.3939C46.2765 58.3879 46.2596 58.3816 46.2422 58.3765C46.2289 58.3726 46.2155 58.3698 46.202 58.3664C46.1839 58.362 46.1661 58.3571 46.1477 58.3535C46.1329 58.3508 46.118 58.3491 46.1033 58.3469C46.0859 58.3444 46.0688 58.3413 46.0512 58.3396C46.0267 58.3373 46.0021 58.3366 45.9773 58.336C45.9693 58.3359 45.9616 58.3348 45.9536 58.3348H22.0467C22.0426 58.3348 22.0384 58.3353 22.0343 58.3355C22.0058 58.3359 21.9772 58.3369 21.9487 58.3396C21.9322 58.3411 21.9161 58.3441 21.8998 58.3464C21.8841 58.3488 21.8682 58.3504 21.8525 58.3535C21.8344 58.357 21.8169 58.3618 21.7992 58.3662C21.7854 58.3696 21.7716 58.3725 21.7581 58.3765C21.7407 58.3816 21.7238 58.3878 21.7068 58.3939C21.6933 58.3986 21.6794 58.4029 21.666 58.4083C21.6498 58.4149 21.6344 58.4224 21.6187 58.4297C21.6049 58.436 21.5911 58.442 21.5777 58.4488C21.5623 58.4568 21.5474 58.4659 21.5326 58.4746C21.5197 58.4822 21.5067 58.4891 21.494 58.4974C21.477 58.5083 21.461 58.5206 21.4446 58.5326C21.4351 58.5397 21.425 58.546 21.4157 58.5536C21.3899 58.5741 21.3651 58.5957 21.3414 58.6187L17.3587 62.4846C17.335 62.5075 17.3127 62.5314 17.2916 62.5565C17.2831 62.5665 17.2758 62.5772 17.2677 62.5876C17.2561 62.6023 17.2443 62.617 17.2337 62.6324C17.2247 62.6457 17.2167 62.6594 17.2085 62.673C17.2001 62.6863 17.1913 62.6996 17.1838 62.7135C17.1759 62.7276 17.1694 62.7422 17.1624 62.7568C17.1555 62.7707 17.1483 62.7847 17.1422 62.799C17.1361 62.8134 17.131 62.8282 17.1256 62.8429C17.12 62.8579 17.114 62.8728 17.1094 62.8883C17.1047 62.9031 17.1013 62.9182 17.0974 62.9334C17.0933 62.9489 17.0889 62.9641 17.0856 62.9799C17.082 62.9975 17.0799 63.0151 17.0772 63.0328C17.0753 63.0463 17.0726 63.0597 17.0711 63.0734C17.0679 63.1052 17.0662 63.1372 17.0662 63.1693V70.066H11.0895V66.2647C11.0895 65.7323 10.642 65.2979 10.0935 65.2979C9.54348 65.2979 9.09737 65.7323 9.09737 66.2647V71.0253C9.09737 71.0279 9.09697 71.0304 9.09697 71.0329C9.09697 71.4712 9.39752 71.8409 9.80937 71.9595C9.89942 71.9856 9.99465 72 10.0935 72C10.0952 72 10.0968 71.9997 10.0985 71.9997H57.9019C57.9038 71.9997 57.9054 72 57.9071 72C58.4573 72 58.9032 71.5673 58.9032 71.0332V57.2413C58.9031 53.1542 55.4773 49.8291 51.2664 49.8291ZM19.0585 22.4357C19.0585 14.4393 25.7614 7.93359 34 7.93359C42.2386 7.93359 48.9416 14.4393 48.9416 22.4357V25.0355C48.842 24.9961 48.7411 24.9571 48.6387 24.9185C46.0275 23.9328 41.3682 22.758 34 22.758C26.6319 22.758 21.9727 23.9328 19.3613 24.9185C19.2589 24.9571 19.158 24.9962 19.0584 25.0355V22.4357H19.0585ZM20.5584 26.5481C22.9797 25.7012 27.2773 24.6916 34.0002 24.6916C40.723 24.6916 45.0205 25.7012 47.4419 26.5481C48.7537 27.0069 49.7208 27.4918 50.3931 27.9142H17.6072C18.2793 27.4921 19.2466 27.0071 20.5584 26.5481ZM33.0039 51.33L28.8732 52.3322L25.6993 50.2783V47.07C27.8814 48.2661 30.3622 49.0058 33.0039 49.1553V51.33ZM42.3009 50.2785L39.127 52.3323L34.9962 51.3301V49.1554C37.638 49.0059 40.1189 48.266 42.301 47.0699V50.2785H42.3009ZM34.202 47.2484C34.1368 47.2354 34.0692 47.2286 34 47.2286C33.931 47.2286 33.8633 47.2355 33.7981 47.2484C25.6522 47.1431 19.0585 40.6799 19.0585 32.7488V29.8479H48.9418V32.7488C48.9416 40.6799 42.3479 47.1431 34.202 47.2484ZM22.4593 60.2684H45.5408L47.533 62.202H20.4671L22.4593 60.2684ZM48.9418 70.0659H19.0585V64.1356H48.9419V70.0659H48.9418Z" fill="black"/>
<path d="M34 12.4451C31.9862 12.4451 30.3477 14.0354 30.3477 15.99C30.3477 17.9446 31.9862 19.5349 34 19.5349C36.0138 19.5349 37.6523 17.9446 37.6523 15.99C37.6525 14.0354 36.014 12.4451 34 12.4451ZM34 17.6014C33.0845 17.6014 32.3399 16.8786 32.3399 15.99C32.3399 15.1015 33.0847 14.3787 34 14.3787C34.9155 14.3787 35.6602 15.1015 35.6602 15.99C35.6602 16.8786 34.9156 17.6014 34 17.6014Z" fill="black"/>
</svg>
