<svg width="107" height="84" viewBox="0 0 107 84" fill="none" xmlns="http://www.w3.org/2000/svg">
<circle cx="65" cy="42" r="42" fill="#E8F6EF"/>
<path d="M64.5558 40.7692C64.5558 40.2437 64.1292 39.8171 63.6036 39.8171H40.4332V31.8833C40.4332 31.3573 40.007 30.9311 39.481 30.9311H33.1334H31.548V27.4404C31.548 26.3689 31.3385 25.3292 30.9246 24.3517C30.5247 23.4071 29.9522 22.5578 29.2235 21.8291C28.496 21.1004 27.6467 20.5291 26.7023 20.1292C25.7235 19.7152 24.6849 19.5059 23.6135 19.5059C22.5421 19.5059 21.5036 19.7152 20.5248 20.1292C20.4995 20.1399 20.475 20.1521 20.4499 20.1631C20.4247 20.1521 20.4002 20.1399 20.375 20.1292C19.3974 19.7152 18.3588 19.5059 17.2875 19.5059C16.216 19.5059 15.1762 19.7152 14.1987 20.1292C13.2542 20.529 12.4048 21.1003 11.6761 21.8291C10.9474 22.5578 10.3761 23.4059 9.97624 24.3517C9.56224 25.3292 9.35289 26.3689 9.35289 27.4404V30.9311H1.39636C0.870522 30.9311 0.444214 31.3573 0.444214 31.8833V31.8835V31.8838V75.0466C0.444214 75.5725 0.870522 75.9987 1.39636 75.9987H33.1089C33.1171 75.999 33.1251 76 33.1334 76H39.481H39.4812H39.4813H63.6036C64.128 76 64.5558 75.5734 64.5558 75.0479C64.5558 75.039 64.5546 75.0302 64.5544 75.0213C64.5546 75.0123 64.5558 75.0035 64.5558 74.9945V40.7692ZM23.6134 21.4089C25.2232 21.4102 26.7376 22.0372 27.8778 23.1761C29.0165 24.316 29.6437 25.8305 29.6437 27.4404V30.9311H25.2219V27.4404C25.2219 26.3689 25.0112 25.3292 24.5973 24.3517C24.1985 23.4059 23.6261 22.5578 22.8973 21.8291C22.7848 21.7166 22.6684 21.6092 22.5504 21.5042C22.898 21.4425 23.2531 21.4091 23.6134 21.4089ZM20.4501 22.3054C20.8446 22.5494 21.2143 22.8398 21.5504 23.1761C22.6892 24.316 23.3163 25.8305 23.3176 27.4404V30.9311H17.5831V27.4404C17.5831 25.8305 18.2102 24.3161 19.3491 23.1761C19.6855 22.8399 20.0554 22.5494 20.4501 22.3054ZM13.023 23.1761C14.1629 22.0372 15.6776 21.4102 17.2873 21.4089C17.6476 21.4091 18.0027 21.4425 18.3502 21.5042C18.2321 21.6091 18.1157 21.7166 18.0034 21.8291C17.2746 22.5578 16.7021 23.4059 16.3023 24.3517C15.8897 25.3292 15.679 26.3689 15.679 27.4404V30.9311H11.2572V27.4404H11.2571C11.2571 25.8305 11.8841 24.3161 13.023 23.1761ZM32.1812 74.0944H2.34851V32.8354H9.35277V39.501C9.35277 40.0253 9.77933 40.4519 10.3049 40.4519C10.8292 40.4519 11.2571 40.0253 11.2571 39.501V32.8354H16.6212C16.6245 32.8354 16.6278 32.8359 16.631 32.8359C16.6343 32.8359 16.6375 32.8354 16.6408 32.8354H23.3176V39.501C23.3176 40.0253 23.7442 40.4519 24.2698 40.4519C24.7941 40.4519 25.2219 40.0253 25.2219 39.501V32.8354H30.5861C30.5894 32.8354 30.5925 32.8359 30.5958 32.8359C30.5991 32.8359 30.6023 32.8354 30.6056 32.8354H32.1812V74.0944ZM38.5289 74.0957H34.0855V32.8354H38.5289V74.0957ZM56.3038 74.0957H40.4332V51.8145C41.0838 51.7301 41.7169 51.5609 42.3238 51.3038C43.1934 50.9369 43.9742 50.4101 44.6445 49.7397C45.3147 49.0696 45.8404 48.2887 46.2084 47.4192C46.5893 46.5203 46.7824 45.5631 46.7824 44.578C46.7824 44.0522 46.3558 43.6258 45.8302 43.6258C45.3059 43.6258 44.8781 44.0522 44.8781 44.578C44.8781 46.0176 44.3169 47.3722 43.2988 48.3929C42.5065 49.1842 41.5124 49.698 40.4333 49.8889V41.7214H56.3038V74.0957ZM62.6515 74.0957H58.2081V41.7214H62.6515V74.0957Z" fill="black"/>
<path d="M50.2741 14.8088C48.6991 14.8088 47.4176 16.0903 47.4176 17.6653C47.4176 19.2403 48.6991 20.5217 50.2741 20.5217C51.8491 20.5217 53.1305 19.2403 53.1305 17.6653C53.1305 16.0903 51.8491 14.8088 50.2741 14.8088ZM50.2741 18.6174C49.749 18.6174 49.3219 18.1904 49.3219 17.6653C49.3219 17.1402 49.749 16.7131 50.2741 16.7131C50.7992 16.7131 51.2262 17.1402 51.2262 17.6653C51.2262 18.1904 50.7992 18.6174 50.2741 18.6174Z" fill="black"/>
<path d="M57.8913 22.426C56.3163 22.426 55.0348 23.7075 55.0348 25.2825C55.0348 26.8575 56.3163 28.1389 57.8913 28.1389C59.4662 28.1389 60.7477 26.8575 60.7477 25.2825C60.7477 23.7075 59.4662 22.426 57.8913 22.426ZM57.8913 26.2346C57.3662 26.2346 56.9391 25.8075 56.9391 25.2825C56.9391 24.7574 57.3662 24.3303 57.8913 24.3303C58.4163 24.3303 58.8434 24.7574 58.8434 25.2825C58.8434 25.8075 58.4163 26.2346 57.8913 26.2346Z" fill="black"/>
<path d="M60.4692 15.0877C60.0972 14.716 59.4944 14.716 59.1225 15.0877L47.6964 26.5136C47.3246 26.8856 47.3246 27.4884 47.6964 27.8604C47.8824 28.0462 48.1261 28.1392 48.3698 28.1392C48.6134 28.1392 48.8571 28.0462 49.0431 27.8604L60.4692 16.4343C60.841 16.0624 60.841 15.4596 60.4692 15.0877Z" fill="black"/>
<path d="M63.6036 11H44.5607C44.035 11 43.6085 11.4264 43.6085 11.9521C43.6085 12.0064 43.6141 12.0592 43.6227 12.1108C43.6141 12.1625 43.6085 12.2153 43.6085 12.2695V18.2998C43.6085 18.8241 44.035 19.252 44.5607 19.252C45.0863 19.252 45.5128 18.8241 45.5128 18.2998V12.9043H62.6515V29.1539L54.0822 33.7246L45.5128 29.1539V22.1084C45.5128 21.5827 45.0863 21.1562 44.5607 21.1562C44.035 21.1562 43.6085 21.5827 43.6085 22.1084V29.7173C43.6083 29.7519 43.6098 29.7865 43.6133 29.8211C43.6255 29.9423 43.6611 30.0566 43.7146 30.1603C43.7174 30.1661 43.72 30.1722 43.723 30.1779C43.7253 30.182 43.728 30.1859 43.7303 30.1901C43.818 30.3483 43.9489 30.4783 44.1125 30.5661L53.634 35.6443C53.7724 35.7165 53.9274 35.756 54.0822 35.756C54.2369 35.756 54.3918 35.7165 54.5303 35.6443L64.0518 30.5661C64.1912 30.4916 64.3038 30.387 64.3873 30.2649C64.3894 30.262 64.3916 30.2593 64.3937 30.2564C64.4036 30.2415 64.4123 30.226 64.4215 30.2107C64.4288 30.1985 64.4363 30.1868 64.4431 30.1742C64.4466 30.1675 64.4495 30.1605 64.4528 30.1538C64.516 30.0291 64.5527 29.889 64.555 29.7404C64.555 29.7375 64.5555 29.7345 64.5555 29.7316C64.5555 29.7295 64.5558 29.7277 64.5558 29.7258V11.9521C64.5558 11.4264 64.1292 11 63.6036 11Z" fill="black"/>
</svg>
