<svg width="106" height="84" viewBox="0 0 106 84" fill="none" xmlns="http://www.w3.org/2000/svg">
<circle cx="64" cy="42" r="42" fill="#E8F6EF"/>
<g clip-path="url(#clip0)">
<path d="M23.4643 40.6524C22.5101 39.6845 21.2417 39.1516 19.8926 39.1516C18.5434 39.1516 17.2749 39.6845 16.3209 40.6524C14.3516 42.6504 14.3516 45.9014 16.3209 47.8994C17.2749 48.8671 18.5436 49.4001 19.8927 49.4001C21.2419 49.4001 22.5104 48.8671 23.4641 47.8994C24.4183 46.9316 24.9437 45.6446 24.9437 44.2759C24.9439 42.907 24.4184 41.6202 23.4643 40.6524ZM22.0355 46.4499C21.4631 47.0307 20.7021 47.3505 19.8927 47.3505C19.0832 47.3505 18.322 47.0307 17.7494 46.4499C16.5679 45.2513 16.5679 43.3006 17.7495 42.1017C18.3219 41.5211 19.0829 41.2013 19.8926 41.2013C20.7021 41.2013 21.4631 41.5211 22.0356 42.1019C22.6081 42.6825 22.9235 43.4547 22.9235 44.2759C22.9233 45.0971 22.6081 45.869 22.0355 46.4499Z" fill="#282828"/>
<path d="M36.7986 54.1797C35.8446 53.2118 34.5762 52.6789 33.2269 52.6789C31.8777 52.6789 30.6091 53.2118 29.6551 54.1797C27.6858 56.1778 27.6858 59.4288 29.6552 61.4267C30.6091 62.3945 31.8775 62.9275 33.2268 62.9275C34.5761 62.9275 35.8446 62.3944 36.7986 61.4266C37.7526 60.4589 38.2781 59.1719 38.2781 57.8032C38.2782 56.4344 37.7527 55.1475 36.7986 54.1797ZM35.3698 59.9772C34.7973 60.558 34.0362 60.8778 33.2267 60.8778C32.4171 60.8778 31.6561 60.558 31.0838 59.9772C29.9021 58.7786 29.9021 56.8279 31.0838 55.6289C31.6562 55.0482 32.4173 54.7284 33.2268 54.7284C34.0363 54.7284 34.7975 55.0482 35.37 55.629C35.9422 56.2098 36.2575 56.9818 36.2575 57.8031C36.2573 58.6244 35.9422 59.3964 35.3698 59.9772Z" fill="#282828"/>
<path d="M36.7982 40.6524C36.4037 40.2521 35.7641 40.2521 35.3695 40.6522L16.3209 59.9773C15.9264 60.3774 15.9264 61.0264 16.3209 61.4266C16.518 61.6266 16.7766 61.7268 17.0351 61.7268C17.2936 61.7268 17.5522 61.6268 17.7494 61.4266L36.7982 42.1017C37.1928 41.7014 37.1928 41.0524 36.7982 40.6524Z" fill="#282828"/>
<path d="M68.1603 8.87265C66.7963 7.48893 64.1602 7.78738 60.5371 9.73658C57.4083 11.42 53.8245 14.2006 50.7045 17.3657C49.4904 18.5976 48.3605 19.87 47.3381 21.1541L33.1636 19.4294C32.9764 19.4061 32.7783 19.3938 32.5736 19.3938C31.7519 19.3966 30.8522 19.5783 29.9753 19.9227C29.0647 20.2848 28.3158 20.7576 27.7501 21.3288L15.1007 34.1601C14.7073 34.5604 14.7073 35.2096 15.1007 35.61C15.292 35.8026 15.5452 35.9093 15.8159 35.9093C16.0853 35.9093 16.3385 35.8026 16.5298 35.61L29.1778 22.7773C29.5186 22.4275 30.0909 22.075 30.7079 21.8332C31.3222 21.5899 32.0158 21.4436 32.5627 21.4436H32.5735C32.6973 21.4436 32.8146 21.4505 32.9224 21.4642L51.3851 23.7107C51.8578 23.7654 52.3778 24.0401 52.7738 24.4458C53.1738 24.8475 53.4446 25.3751 53.4985 25.8547L53.8778 29.063C52.332 30.2601 50.8098 31.2502 49.3891 31.9708C49.1266 32.104 48.8512 32.2339 48.5702 32.3565C48.3526 31.4721 47.9023 30.6608 47.2505 29.9996C46.3031 29.0385 45.0433 28.5091 43.7035 28.5091C42.3635 28.5091 41.1038 29.0385 40.1562 29.9996C38.2003 31.984 38.2003 35.2126 40.1563 37.1968C41.1037 38.1579 42.3636 38.6873 43.7035 38.6873C45.0433 38.6873 46.3032 38.1579 47.2505 37.1968C47.9734 36.4634 48.4476 35.5453 48.6322 34.5477C49.1443 34.3512 49.6959 34.1068 50.2925 33.8042C51.5277 33.1776 52.8299 32.364 54.1542 31.4022L55.7128 44.5852C55.7263 44.6945 55.733 44.8133 55.733 44.9391C55.7344 45.4967 55.5917 46.2045 55.3491 46.8317C55.1107 47.4576 54.7631 48.0369 54.4184 48.384L27.7501 75.4372C27.4349 75.757 27.012 75.9332 26.5594 75.9346C26.1069 75.9332 25.6839 75.757 25.3688 75.4372L2.51068 52.2481C2.19546 51.9283 2.02175 51.4993 2.0204 51.0402C2.02175 50.5811 2.19546 50.1519 2.51068 49.8323L13.6715 38.5083C14.0661 38.1092 14.0661 37.4587 13.6715 37.0596C13.4817 36.8656 13.2271 36.759 12.9577 36.759C12.6883 36.759 12.4351 36.8656 12.2438 37.0596L1.08163 48.3821C0.730024 48.7402 0.456585 49.1583 0.269396 49.6256C0.0902928 50.078 0 50.5535 0 51.0399C0 51.5264 0.0902928 52.0019 0.269396 52.4529C0.456585 52.9216 0.730024 53.3398 1.08163 53.6964L23.9409 76.887C24.2925 77.2437 24.7033 77.5211 25.1639 77.7096C25.6084 77.8913 26.0772 77.9843 26.5554 77.9843H26.5635C27.043 77.9843 27.5103 77.8913 27.9549 77.7096C28.4155 77.5211 28.8278 77.2437 29.1793 76.887L55.8464 49.832C56.4094 49.2581 56.8754 48.4983 57.2311 47.5746C57.5705 46.6837 57.751 45.7723 57.7537 44.9387C57.7537 44.7324 57.7416 44.5314 57.7187 44.3402L56.0187 29.9605C57.2742 28.931 58.5312 27.7842 59.7529 26.5449C62.8791 23.3734 65.6261 19.7455 67.2893 16.5912C69.2224 12.9249 69.5237 10.2558 68.1603 8.87265ZM43.0852 34.2751C43.5802 34.7773 44.3627 35.2086 45.5911 35.2086C45.8024 35.2086 46.0272 35.1956 46.2659 35.1683C46.1418 35.3757 45.9953 35.571 45.8218 35.7471C45.2561 36.3212 44.5037 36.6374 43.7035 36.6374C42.9032 36.6374 42.1508 36.3212 41.5848 35.7471C40.4167 34.5621 40.4167 32.6339 41.5848 31.4488C42.1508 30.8746 42.9032 30.5585 43.7035 30.5585C44.5037 30.5585 45.256 30.8748 45.822 31.4487C46.2504 31.8835 46.5325 32.4268 46.6444 33.0174C45.719 33.2326 44.9145 33.2323 44.5137 32.8259C44.1192 32.4256 43.4795 32.4257 43.085 32.8259C42.6907 33.226 42.6907 33.8749 43.0852 34.2751ZM65.5076 15.6245C63.9339 18.6087 61.3157 22.0608 58.324 25.0957C57.4714 25.9607 56.6028 26.7761 55.7318 27.5354L55.5042 25.6097C55.3869 24.6478 54.9371 23.7431 54.203 22.9957C53.4663 22.251 52.5745 21.7946 51.6263 21.6757L49.7287 21.4449C50.4812 20.5555 51.2852 19.6753 52.1332 18.815C59.2575 11.5873 65.6336 9.2083 66.7315 10.322C67.2414 10.8392 67.0607 12.6793 65.5076 15.6245Z" fill="#282828"/>
</g>
<defs>
<clipPath id="clip0">
<rect width="69" height="70" fill="white" transform="translate(0 8)"/>
</clipPath>
</defs>
</svg>
