<svg width="16" height="16" viewBox="0 0 16 16" fill="none" xmlns="http://www.w3.org/2000/svg">
<path d="M4.8 12.8C3.92 12.8 3.208 13.52 3.208 14.4C3.208 15.28 3.92 16 4.8 16C5.68 16 6.4 15.28 6.4 14.4C6.4 13.52 5.68 12.8 4.8 12.8ZM0.8 0C0.358172 0 0 0.358172 0 0.8C0 1.24183 0.358172 1.6 0.8 1.6H0.980107C1.35869 1.6 1.70341 1.81803 1.86565 2.16009L3.52097 5.65005C4.12315 6.91963 4.07813 8.40132 3.4 9.632C3.272 9.856 3.2 10.12 3.2 10.4C3.2 11.28 3.92 12 4.8 12H13.6C14.0418 12 14.4 11.6418 14.4 11.2C14.4 10.7582 14.0418 10.4 13.6 10.4H5.136C5.04046 10.4 4.96239 10.336 4.9415 10.2476C4.93416 10.2166 4.93991 10.1843 4.94765 10.1534C4.95585 10.1206 4.96827 10.089 4.98461 10.0594L5.09037 9.86788C5.45414 9.20905 6.14726 8.8 6.89985 8.8H11.64C12.24 8.8 12.768 8.472 13.04 7.976L15.904 2.784C15.968 2.672 16 2.536 16 2.4C16 1.96 15.64 1.6 15.2 1.6H4.25196C3.71244 1.6 3.22149 1.28828 2.992 0.8C2.76251 0.311722 2.27156 0 1.73204 0H0.8ZM12.8 12.8C11.92 12.8 11.208 13.52 11.208 14.4C11.208 15.28 11.92 16 12.8 16C13.68 16 14.4 15.28 14.4 14.4C14.4 13.52 13.68 12.8 12.8 12.8Z" fill="white"/>
</svg>
