<svg width="69" height="70" viewBox="0 0 69 70" fill="none" xmlns="http://www.w3.org/2000/svg">
<g clip-path="url(#clip0)">
<path d="M23.4643 32.6524C22.5101 31.6845 21.2417 31.1516 19.8926 31.1516C18.5434 31.1516 17.2749 31.6845 16.3209 32.6524C14.3516 34.6504 14.3516 37.9014 16.3209 39.8994C17.2749 40.8671 18.5436 41.4001 19.8927 41.4001C21.2419 41.4001 22.5104 40.8671 23.4641 39.8994C24.4183 38.9316 24.9437 37.6446 24.9437 36.2759C24.9439 34.907 24.4184 33.6202 23.4643 32.6524ZM22.0355 38.4499C21.4631 39.0307 20.7021 39.3505 19.8927 39.3505C19.0832 39.3505 18.322 39.0307 17.7494 38.4499C16.5679 37.2513 16.5679 35.3006 17.7495 34.1017C18.3219 33.5211 19.0829 33.2013 19.8926 33.2013C20.7021 33.2013 21.4631 33.5211 22.0356 34.1019C22.6081 34.6825 22.9235 35.4547 22.9235 36.2759C22.9233 37.0971 22.6081 37.869 22.0355 38.4499Z" fill="#282828"/>
<path d="M36.7986 46.1797C35.8446 45.2118 34.5762 44.6789 33.2269 44.6789C31.8777 44.6789 30.6091 45.2118 29.6551 46.1797C27.6858 48.1778 27.6858 51.4288 29.6552 53.4267C30.6091 54.3945 31.8775 54.9275 33.2268 54.9275C34.5761 54.9275 35.8446 54.3944 36.7986 53.4266C37.7526 52.4589 38.2781 51.1719 38.2781 49.8032C38.2782 48.4344 37.7527 47.1475 36.7986 46.1797ZM35.3698 51.9772C34.7973 52.558 34.0362 52.8778 33.2267 52.8778C32.4171 52.8778 31.6561 52.558 31.0838 51.9772C29.9021 50.7786 29.9021 48.8279 31.0838 47.6289C31.6562 47.0482 32.4173 46.7284 33.2268 46.7284C34.0363 46.7284 34.7975 47.0482 35.37 47.629C35.9422 48.2098 36.2575 48.9818 36.2575 49.8031C36.2573 50.6244 35.9422 51.3964 35.3698 51.9772Z" fill="#282828"/>
<path d="M36.7982 32.6524C36.4037 32.2521 35.7641 32.2521 35.3695 32.6522L16.3209 51.9773C15.9264 52.3774 15.9264 53.0264 16.3209 53.4266C16.518 53.6266 16.7766 53.7268 17.0351 53.7268C17.2936 53.7268 17.5522 53.6268 17.7494 53.4266L36.7982 34.1017C37.1928 33.7014 37.1928 33.0524 36.7982 32.6524Z" fill="#282828"/>
<path d="M68.1603 0.872653C66.7963 -0.511075 64.1602 -0.212618 60.5371 1.73658C57.4083 3.41999 53.8245 6.20057 50.7045 9.36574C49.4904 10.5976 48.3605 11.87 47.3381 13.1541L33.1636 11.4294C32.9764 11.4061 32.7783 11.3938 32.5736 11.3938C31.7519 11.3966 30.8522 11.5783 29.9753 11.9227C29.0647 12.2848 28.3158 12.7576 27.7501 13.3288L15.1007 26.1601C14.7073 26.5604 14.7073 27.2096 15.1007 27.61C15.292 27.8026 15.5452 27.9093 15.8159 27.9093C16.0853 27.9093 16.3385 27.8026 16.5298 27.61L29.1778 14.7773C29.5186 14.4275 30.0909 14.075 30.7079 13.8332C31.3222 13.5899 32.0158 13.4436 32.5627 13.4436H32.5735C32.6973 13.4436 32.8146 13.4505 32.9224 13.4642L51.3851 15.7107C51.8578 15.7654 52.3778 16.0401 52.7738 16.4458C53.1738 16.8475 53.4446 17.3751 53.4985 17.8547L53.8778 21.063C52.332 22.2601 50.8098 23.2502 49.3891 23.9708C49.1266 24.104 48.8512 24.2339 48.5702 24.3565C48.3526 23.4721 47.9023 22.6608 47.2505 21.9996C46.3031 21.0385 45.0433 20.5091 43.7035 20.5091C42.3635 20.5091 41.1038 21.0385 40.1562 21.9996C38.2003 23.984 38.2003 27.2126 40.1563 29.1968C41.1037 30.1579 42.3636 30.6873 43.7035 30.6873C45.0433 30.6873 46.3032 30.1579 47.2505 29.1968C47.9734 28.4634 48.4476 27.5453 48.6322 26.5477C49.1443 26.3512 49.6959 26.1068 50.2925 25.8042C51.5277 25.1776 52.8299 24.364 54.1542 23.4022L55.7128 36.5852C55.7263 36.6945 55.733 36.8133 55.733 36.9391C55.7344 37.4967 55.5917 38.2045 55.3491 38.8317C55.1107 39.4576 54.7631 40.0369 54.4184 40.384L27.7501 67.4372C27.4349 67.757 27.012 67.9332 26.5594 67.9346C26.1069 67.9332 25.6839 67.757 25.3688 67.4372L2.51068 44.2481C2.19546 43.9283 2.02175 43.4993 2.0204 43.0402C2.02175 42.5811 2.19546 42.1519 2.51068 41.8323L13.6715 30.5083C14.0661 30.1092 14.0661 29.4587 13.6715 29.0596C13.4817 28.8656 13.2271 28.759 12.9577 28.759C12.6883 28.759 12.4351 28.8656 12.2438 29.0596L1.08163 40.3821C0.730024 40.7402 0.456585 41.1583 0.269396 41.6256C0.0902928 42.078 0 42.5535 0 43.0399C0 43.5264 0.0902928 44.0019 0.269396 44.4529C0.456585 44.9216 0.730024 45.3398 1.08163 45.6964L23.9409 68.887C24.2925 69.2437 24.7033 69.5211 25.1639 69.7096C25.6084 69.8913 26.0772 69.9843 26.5554 69.9843H26.5635C27.043 69.9843 27.5103 69.8913 27.9549 69.7096C28.4155 69.5211 28.8278 69.2437 29.1793 68.887L55.8464 41.832C56.4094 41.2581 56.8754 40.4983 57.2311 39.5746C57.5705 38.6837 57.751 37.7723 57.7537 36.9387C57.7537 36.7324 57.7416 36.5314 57.7187 36.3402L56.0187 21.9605C57.2742 20.931 58.5312 19.7842 59.7529 18.5449C62.8791 15.3734 65.6261 11.7455 67.2893 8.59123C69.2224 4.92485 69.5237 2.25583 68.1603 0.872653ZM43.0852 26.2751C43.5802 26.7773 44.3627 27.2086 45.5911 27.2086C45.8024 27.2086 46.0272 27.1956 46.2659 27.1683C46.1418 27.3757 45.9953 27.571 45.8218 27.7471C45.2561 28.3212 44.5037 28.6374 43.7035 28.6374C42.9032 28.6374 42.1508 28.3212 41.5848 27.7471C40.4167 26.5621 40.4167 24.6339 41.5848 23.4488C42.1508 22.8746 42.9032 22.5585 43.7035 22.5585C44.5037 22.5585 45.256 22.8748 45.822 23.4487C46.2504 23.8835 46.5325 24.4268 46.6444 25.0174C45.719 25.2326 44.9145 25.2323 44.5137 24.8259C44.1192 24.4256 43.4795 24.4257 43.085 24.8259C42.6907 25.226 42.6907 25.8749 43.0852 26.2751ZM65.5076 7.6245C63.9339 10.6087 61.3157 14.0608 58.324 17.0957C57.4714 17.9607 56.6028 18.7761 55.7318 19.5354L55.5042 17.6097C55.3869 16.6478 54.9371 15.7431 54.203 14.9957C53.4663 14.251 52.5745 13.7946 51.6263 13.6757L49.7287 13.4449C50.4812 12.5555 51.2852 11.6753 52.1332 10.815C59.2575 3.58734 65.6336 1.2083 66.7315 2.32201C67.2414 2.83921 67.0607 4.67931 65.5076 7.6245Z" fill="#282828"/>
</g>
<defs>
<clipPath id="clip0">
<rect width="69" height="70" fill="white"/>
</clipPath>
</defs>
</svg>
