<svg width="74" height="54" viewBox="0 0 74 54" fill="none" xmlns="http://www.w3.org/2000/svg">
<path d="M59.8052 17.2647H55.1544L56.5557 1.17577C56.5583 1.14662 56.5587 1.11791 56.5589 1.0892C56.5589 1.08674 56.5592 1.08444 56.5592 1.08198C56.5592 1.08155 56.5592 1.08126 56.5592 1.08083C56.5592 0.642928 56.295 0.25697 55.9067 0.0891678C55.9034 0.087725 55.9002 0.0859939 55.8969 0.0845511C55.8728 0.0744512 55.8478 0.0657937 55.8227 0.0574252C55.8134 0.0543953 55.8044 0.0506437 55.795 0.047758C55.7745 0.0415539 55.7535 0.0366483 55.7326 0.0315984C55.7178 0.0281355 55.7037 0.0239516 55.6888 0.0210659C55.6705 0.0174588 55.6515 0.0151507 55.6327 0.0124093C55.6151 0.00981217 55.5978 0.00678178 55.58 0.00519466C55.577 0.00490609 55.5743 0.00432849 55.5713 0.00403992C55.5522 0.00230852 55.5334 0.00259717 55.5145 0.00187576C55.5018 0.00144291 55.4894 0 55.4767 0H55.4632C55.462 0 55.4609 0 55.4599 0H33.3309C32.7336 0 32.2488 0.484793 32.2488 1.08213C32.2488 1.67802 32.7336 2.16425 33.3309 2.16425H54.2972L52.1436 26.8908C52.1434 26.8927 52.1434 26.8946 52.1431 26.8965L51.5997 33.1354H13.9981L14.627 26.643H21.7865C22.3843 26.643 22.8687 26.1585 22.8687 25.5608C22.8687 24.9632 22.3843 24.4787 21.7865 24.4787H14.8368L16.1648 10.7725H27.5596C28.1574 10.7725 28.6417 10.288 28.6417 9.69037C28.6417 9.09275 28.1574 8.60825 27.5596 8.60825H16.3746L16.9991 2.16425H29.0024C29.5983 2.16425 30.0846 1.67802 30.0846 1.08213C30.0846 0.484793 29.5983 0 29.0024 0H16.0169C16.0163 0 16.0159 0.000144204 16.0153 0.000144204C15.507 -7.92642e-08 15.0661 0.357824 14.9595 0.853871C14.9587 0.857478 14.9574 0.860941 14.9567 0.864548C14.9512 0.891529 14.9476 0.919087 14.944 0.946789C14.943 0.955591 14.9411 0.963959 14.9403 0.97276C14.9401 0.974492 14.9397 0.976078 14.9396 0.97781L14.2002 8.60825H1.08213C0.48436 8.60825 0 9.09275 0 9.69037C0 10.288 0.48436 10.7725 1.08213 10.7725H13.9905L12.6625 24.4787H8.80159C8.20382 24.4787 7.71946 24.9632 7.71946 25.5608C7.71946 26.1585 8.20382 26.643 8.80159 26.643H12.4528L11.7297 34.1055C11.7295 34.1066 11.7295 34.1078 11.7294 34.1088L10.6113 45.6484C10.6112 45.6497 10.611 45.6512 10.6109 45.6523L10.6105 45.6565C10.609 45.6715 10.6092 45.6862 10.6083 45.7012C10.6073 45.7212 10.6053 45.7406 10.6053 45.7608C10.6053 45.7617 10.6054 45.7626 10.6054 45.7636C10.6054 45.7914 10.6074 45.8188 10.6095 45.8462C10.6103 45.855 10.61 45.864 10.611 45.8727C10.6139 45.9006 10.6187 45.9282 10.6237 45.9556C10.6252 45.9637 10.6259 45.9719 10.6275 45.9799C10.6317 46.0006 10.6376 46.0207 10.6431 46.041C10.6468 46.0553 10.6499 46.0699 10.6542 46.0839C10.6555 46.0878 10.6572 46.0915 10.6584 46.0956C10.7107 46.2566 10.7996 46.4012 10.9156 46.5192C10.9178 46.5214 10.9195 46.5238 10.9217 46.5258C10.9332 46.5374 10.9458 46.5478 10.9579 46.5587C11.0325 46.6271 11.1168 46.6851 11.209 46.7306C11.2281 46.7401 11.247 46.75 11.2667 46.7583C11.2726 46.7609 11.2789 46.7626 11.285 46.7649C11.3121 46.7757 11.3394 46.7861 11.3675 46.7949C11.3701 46.7956 11.3726 46.7961 11.3752 46.7969C11.4072 46.8065 11.4395 46.8148 11.4726 46.8216C11.4769 46.8225 11.4814 46.8228 11.4855 46.8236C11.517 46.8295 11.5486 46.8346 11.5808 46.8378C11.5815 46.8378 11.5821 46.8379 11.5828 46.8381C11.6183 46.8415 11.6535 46.8432 11.6884 46.8432C11.6888 46.8432 11.6894 46.8431 11.69 46.8431H16.5073C17.0393 50.8763 20.4971 54 24.6734 54C28.8494 54 32.3071 50.8763 32.8391 46.8431H50.1963C50.7284 50.8763 54.186 54 58.3621 54C62.5381 54 65.9962 50.8763 66.5283 46.8431H71.3468C71.3475 46.8431 71.3484 46.8432 71.3491 46.8432C71.3852 46.8432 71.4207 46.8411 71.4559 46.8376C71.4622 46.837 71.4683 46.8357 71.4746 46.835C71.5028 46.8317 71.5307 46.8278 71.5582 46.8223C71.57 46.82 71.5814 46.8168 71.5931 46.8141C71.6143 46.8092 71.6356 46.804 71.6564 46.7978C71.6705 46.7936 71.6843 46.7887 71.6981 46.7839C71.7159 46.7779 71.7336 46.7715 71.7511 46.7645C71.7661 46.7585 71.7803 46.7521 71.7949 46.7456C71.8108 46.7382 71.8267 46.7307 71.8421 46.7228C71.8568 46.7153 71.871 46.7075 71.8851 46.6994C71.9 46.6907 71.9147 46.6818 71.9293 46.6726C71.9428 46.6639 71.9564 46.6551 71.9694 46.6459C71.9841 46.6356 71.9981 46.6248 72.0124 46.6138C72.0242 46.6045 72.0362 46.5952 72.0477 46.5854C72.0626 46.5729 72.0766 46.5597 72.0907 46.5463C72.1005 46.5369 72.1108 46.5277 72.1203 46.5179C72.1353 46.5026 72.1496 46.4864 72.1639 46.4701C72.1715 46.4613 72.1794 46.4528 72.1868 46.4439C72.2027 46.4242 72.2171 46.404 72.2315 46.3837C72.2364 46.3766 72.2419 46.37 72.2467 46.3628C72.2643 46.3364 72.2809 46.3092 72.2962 46.2813C72.2973 46.2795 72.2985 46.2779 72.2992 46.2761C72.3155 46.2461 72.3305 46.2153 72.3439 46.1836C72.3477 46.1745 72.3506 46.1651 72.3542 46.156C72.363 46.1337 72.3716 46.1113 72.379 46.0881C72.3837 46.0731 72.3872 46.0576 72.3914 46.0425C72.3962 46.0244 72.4012 46.0065 72.4052 45.9882C72.4089 45.9719 72.4112 45.9552 72.4139 45.9386C72.4164 45.924 72.4195 45.9097 72.4214 45.8949C72.4673 45.5272 73.3147 38.7287 73.6931 34.3327C73.6936 34.3285 73.6937 34.3242 73.6941 34.32C73.8031 33.0528 73.8729 31.9856 73.8729 31.3323C73.8729 23.5755 67.5622 17.2647 59.8052 17.2647ZM54.9658 19.4292H59.3929L58.8274 25.9214H54.4004L54.9658 19.4292ZM24.6736 51.8356C21.3238 51.8356 18.5986 49.1104 18.5986 45.7607C18.5986 42.411 21.324 39.6858 24.6736 39.6858C28.0233 39.6858 30.7486 42.411 30.7486 45.7607C30.7486 49.1104 28.0233 51.8356 24.6736 51.8356ZM58.3621 51.8356C55.0124 51.8356 52.2874 49.1104 52.2874 45.7607C52.2874 42.411 55.0126 39.6858 58.3621 39.6858C61.712 39.6858 64.4372 42.411 64.4372 45.7607C64.4372 49.1104 61.712 51.8356 58.3621 51.8356ZM70.3906 44.6781H66.5286C65.9967 40.6447 62.5388 37.5208 58.3624 37.5208C54.1863 37.5208 50.7284 40.6448 50.1965 44.6781H32.8395C32.3077 40.6447 28.8499 37.5208 24.6736 37.5208C20.4974 37.5208 17.0393 40.6448 16.5075 44.6781H12.8796L13.7885 35.2991H52.5914V35.2997C52.5919 35.2997 52.5924 35.2997 52.5929 35.2997C52.6292 35.2997 52.6651 35.2977 52.7006 35.2941C52.7072 35.2935 52.7137 35.292 52.7203 35.2912C52.7486 35.2879 52.7768 35.2838 52.8045 35.2783C52.8164 35.2759 52.8281 35.2726 52.84 35.2697C52.8616 35.2645 52.8832 35.2594 52.9043 35.2531C52.9187 35.2488 52.9324 35.2436 52.9464 35.2387C52.9646 35.2323 52.9828 35.2261 53.0004 35.2189C53.0156 35.2127 53.0301 35.2058 53.0448 35.1988C53.0609 35.1915 53.0769 35.1841 53.0923 35.176C53.107 35.1683 53.1215 35.1599 53.136 35.1515C53.1509 35.1429 53.1656 35.1341 53.18 35.1248C53.194 35.1157 53.2073 35.1062 53.2207 35.0967C53.235 35.0866 53.2489 35.0762 53.2627 35.0654C53.2751 35.0554 53.2874 35.0452 53.2995 35.0346C53.3132 35.0228 53.3266 35.0107 53.3396 34.9981C53.3506 34.9876 53.3615 34.9768 53.3722 34.9657C53.3852 34.9521 53.3978 34.9381 53.4102 34.9238C53.4198 34.9126 53.4294 34.9013 53.4386 34.8898C53.4506 34.8746 53.462 34.8591 53.4732 34.8433C53.4817 34.8315 53.49 34.8197 53.498 34.8075C53.5086 34.7912 53.5187 34.7745 53.5283 34.7575C53.5357 34.7448 53.5432 34.7321 53.5498 34.7191C53.5589 34.7021 53.5667 34.6848 53.5749 34.6673C53.5813 34.6533 53.5878 34.6396 53.5936 34.6252C53.6006 34.6081 53.6065 34.5907 53.6127 34.5732C53.6181 34.5578 53.6237 34.5424 53.6285 34.5265C53.6332 34.5097 53.6371 34.4926 53.6415 34.4755C53.6456 34.4584 53.6503 34.4413 53.6536 34.4239C53.6569 34.4069 53.6589 34.3896 53.6615 34.3722C53.6641 34.3543 53.6671 34.3367 53.6689 34.3186C53.6692 34.316 53.6697 34.3135 53.6699 34.3109L54.2122 28.0851H59.805C63.1205 28.0851 64.6158 29.8029 66.1987 31.6218C67.5049 33.1225 68.9632 34.7969 71.442 35.2053C71.1272 38.534 70.6183 42.8071 70.3906 44.6781ZM71.627 33.0368C70.0189 32.7089 69.0296 31.5785 67.831 30.2014C66.3321 28.4794 64.5021 26.3779 60.9941 25.9863L61.554 19.5588C67.2913 20.4073 71.7086 25.3632 71.7086 31.3326C71.7086 31.7382 71.6783 32.3275 71.627 33.0368Z" fill="black"/>
<path d="M24.6737 41.7926C22.4859 41.7926 20.7059 43.5725 20.7059 45.7604C20.7059 47.9483 22.4859 49.7282 24.6737 49.7282C26.8615 49.7282 28.6415 47.9483 28.6415 45.7604C28.6415 43.5726 26.8615 41.7926 24.6737 41.7926ZM24.6737 47.5639C23.6792 47.5639 22.8702 46.7549 22.8702 45.7604C22.8702 44.7659 23.6792 43.9569 24.6737 43.9569C25.6682 43.9569 26.4772 44.7659 26.4772 45.7604C26.4772 46.7549 25.6681 47.5639 24.6737 47.5639Z" fill="black"/>
<path d="M58.3622 41.7926C56.1745 41.7926 54.3944 43.5725 54.3944 45.7604C54.3944 47.9483 56.1745 49.7282 58.3622 49.7282C60.55 49.7282 62.33 47.9483 62.33 45.7604C62.33 43.5726 60.55 41.7926 58.3622 41.7926ZM58.3622 47.5639C57.3677 47.5639 56.5587 46.7549 56.5587 45.7604C56.5587 44.7659 57.3677 43.9569 58.3622 43.9569C59.3568 43.9569 60.1658 44.7659 60.1658 45.7604C60.1658 46.7549 59.3568 47.5639 58.3622 47.5639Z" fill="black"/>
<path d="M10.2441 17.265H4.9538C4.35603 17.265 3.87167 17.7495 3.87167 18.3471C3.87167 18.9448 4.35603 19.4293 4.9538 19.4293H10.2441C10.8419 19.4293 11.3262 18.9448 11.3262 18.3471C11.3262 17.7495 10.8419 17.265 10.2441 17.265Z" fill="black"/>
</svg>
