<?xml version="1.0" encoding="utf-8"?>
<!-- Generator: Adobe Illustrator 22.0.0, SVG Export Plug-In . SVG Version: 6.00 Build 0)  -->
<svg version="1.1" id="Layer_1" xmlns="http://www.w3.org/2000/svg" xmlns:xlink="http://www.w3.org/1999/xlink" x="0px" y="0px"
	 viewBox="0 0 502.6 502.6" style="enable-background:new 0 0 502.6 502.6;" xml:space="preserve">
<style type="text/css">
	.st0{fill:#303030;}
	.st1{fill:#FCCB8D;}
</style>
<path class="st0" d="M219.3,502.6L0,283.3l105.4-105.4l11.3,11.3l-94.1,94.1L219.3,480L480,219.3L283.3,22.6l-94.1,94.1l-11.3-11.3
	L283.3,0l219.3,219.3L219.3,502.6z"/>
<path class="st0" d="M145.1,132.4l11.3-11.3l-27.6-27.6l8-8L54.6,3.3h-3.3c-26.5,0-48,21.5-48,48v3.3l82.2,82.2l8-8l27.6,27.6
	l11.3-11.3l-27.6-27.6l12.7-12.7L145.1,132.4z M48.2,19.5L88,59.3L59.3,88L19.5,48.2C21,33,33,21,48.2,19.5z M70.6,99.3l28.7-28.7
	l14.9,14.9l-28.7,28.7L70.6,99.3z"/>
<path class="st0" d="M299.2,262.5l11.3-11.3l58.5,58.5L357.7,321L299.2,262.5z"/>
<path class="st0" d="M279.2,290.5l11.3-11.3l54.5,54.5l-11.3,11.3L279.2,290.5z"/>
<path class="st0" d="M251.2,310.5l11.3-11.3l58.5,58.5l-11.3,11.3L251.2,310.5z"/>
<path class="st0" d="M387.3,294.6L309.7,217l11.3-11.3l66.3,66.3l52.7-52.7L283.3,62.6L231.9,114l-11.3-11.3L283.3,40l179.3,179.3
	L387.3,294.6z"/>
<path class="st1" d="M211.3,99.3c-61.8,0-112,50.2-112,112c0,61.8,50.2,112,112,112c61.8,0,112-50.2,112-112
	C323.3,149.6,273.1,99.3,211.3,99.3z M211.3,283.3c-39.8,0-72-32.2-72-72c0-39.8,32.2-72,72-72c39.8,0,72,32.2,72,72
	C283.3,251.1,251.1,283.3,211.3,283.3z"/>
<path class="st0" d="M51.3,43.3c0,4.4-3.6,8-8,8s-8-3.6-8-8s3.6-8,8-8S51.3,38.9,51.3,43.3z"/>
<path class="st0" d="M285.9,362.6l-42.6,8.5l-36.9-7.4l-25.3-16.9L114.7,358l104.7,104.6l83.3-83.3L285.9,362.6z M205.9,380
	l21.1,4.2L195.3,416l-12.7-12.7L205.9,380z M177.5,363.7l13.3,8.8L171.3,392L148,368.6L177.5,363.7z M219.3,440l-12.7-12.7
	l40.6-40.6l31.7-6.3L219.3,440z"/>
<path class="st0" d="M211.3,131.3c-44.1,0-80,35.9-80,80s35.9,80,80,80s80-35.9,80-80S255.4,131.3,211.3,131.3z M147.3,211.3
	c0-35.3,28.7-64,64-64s64,28.7,64,64c0,1.5-0.1,3-0.2,4.5L217,157.7L205.7,169l65.3,65.3c-2.3,5.9-5.4,11.3-9.2,16.2L193,181.7
	L181.7,193l68.8,68.8c-4.9,3.8-10.3,6.9-16.2,9.2L169,205.7L157.7,217l58.1,58.1c-1.5,0.1-3,0.2-4.5,0.2
	C176,275.3,147.3,246.6,147.3,211.3z"/>
<path class="st0" d="M101.7,345l-10.7-10.7l11.3-11.3l10.7,10.7L101.7,345z M79.6,322.9l-11.3-11.3l11.3-11.3l11.3,11.3L79.6,322.9z
	 M57,300.3L45.7,289L57,277.7L68.3,289L57,300.3z"/>
</svg>
