<svg width="120" height="34" viewBox="0 0 120 34" fill="none" xmlns="http://www.w3.org/2000/svg">
<path d="M0 13.7248L13.2211 2.44772C16.9759 -0.755119 22.445 -0.774789 26.2059 2.15402C22.7878 0.827941 18.7528 1.37192 15.7872 3.90149L2.56616 15.1786L0 13.7248Z" fill="#EF7C00"/>
<path d="M4.86621 16.4815L18.0872 5.20449C21.842 2.00158 27.3111 1.98198 31.072 4.91079C27.6538 3.58471 23.619 4.12869 20.6532 6.65825L7.43237 17.9354L4.86621 16.4815Z" fill="#EF7C00"/>
<path d="M9.73145 19.2385L22.9524 7.96122C26.7072 4.75845 32.1763 4.73878 35.9373 7.66752C32.5192 6.34151 28.4843 6.88542 25.5186 9.41505L12.2976 20.6923L9.73145 19.2385Z" fill="#EF7C00"/>
<path d="M42.135 19.8411L28.9136 31.1187C25.1587 34.3214 19.6897 34.3412 15.9287 31.4125C19.3469 32.7384 23.3818 32.1946 26.3475 29.6649L39.5691 18.3874L42.135 19.8411Z" fill="#C70B6F"/>
<path d="M37.2698 17.0846L24.0484 28.3621C20.2935 31.5649 14.8243 31.5846 11.0635 28.6557C14.4815 29.9818 18.5165 29.4378 21.4821 26.9083L34.7036 15.6306L37.2698 17.0846Z" fill="#C70B6F"/>
<path d="M32.403 14.3276L19.1816 25.6052C15.4267 28.8082 9.95759 28.8278 6.19678 25.899C9.61487 27.2251 13.6498 26.6811 16.6154 24.1515L29.8369 12.8738L32.403 14.3276Z" fill="#C70B6F"/>
<path d="M62.0459 14.0978C62.0459 10.7709 60.5498 8.72717 55.526 8.72717C53.5168 8.72717 51.4369 9.19668 49.8675 9.75086L50.2124 13.0478C51.5314 12.3083 53.4152 11.8463 54.8281 11.8463C57.0889 11.8463 57.8735 12.6779 57.8735 14.2799V15.112C52.5677 15.112 48.8623 17.0526 48.8623 20.719C48.8623 23.1839 50.4845 24.8391 53.3101 24.8391C55.6337 24.8391 57.6276 23.4174 58.3812 21.6922L58.3446 21.859C58.219 22.6602 57.9549 23.9454 57.9549 24.8391H62.0459V14.0978ZM57.8735 18.039C57.8735 19.8873 56.5235 21.7358 54.5454 21.7358C53.3841 21.7358 52.6932 21.0891 52.6932 20.1028C52.6932 18.8707 53.635 17.669 57.8735 17.669V18.039Z" fill="#222222"/>
<path d="M76.3639 24.1192L76.042 20.7093C75.1724 21.1476 73.9815 21.3661 72.8864 21.3661C70.15 21.3661 69.0873 19.5517 69.0873 16.8927C69.0873 13.9515 70.4073 12.0746 73.0151 12.0746C74.0459 12.0746 75.0438 12.3247 75.9133 12.6378L76.3318 9.16496C75.3011 8.88326 74.1423 8.72717 73.0476 8.72717C67.3811 8.72717 64.7729 12.4502 64.7729 17.2995C64.7729 22.5864 67.5418 24.8391 71.9851 24.8391C73.6917 24.8391 75.2694 24.5259 76.3639 24.1192Z" fill="#222222"/>
<path d="M101.591 13.5104C101.591 10.8659 100.454 8.72717 96.9189 8.72717C94.3619 8.72717 92.5317 9.97333 91.5843 11.7664L91.5524 11.7362C91.711 10.946 92.0459 9.42619 92.0459 8.72717H87.9541V24.8391H92.0459V16.867C92.0459 14.223 93.605 11.9793 95.6568 11.9793C97.1404 11.9793 97.5004 12.8529 97.5004 14.4335V24.8391H101.591V13.5104Z" fill="#222222"/>
<path d="M120 16.4872C120 11.158 117.191 8.72717 112.839 8.72717C108.179 8.72717 105 12.2175 105 17.0479C105 22.5641 107.808 24.8391 112.161 24.8391C116.759 24.8391 120 21.3486 120 16.4872ZM115.926 16.7051C115.926 19.8531 114.445 21.4423 112.5 21.4423C110.216 21.4423 109.073 19.8217 109.073 16.6427C109.073 13.4643 110.802 12.0929 112.562 12.0929C114.876 12.0929 115.926 13.7135 115.926 16.7051Z" fill="#222222"/>
<path d="M83.8639 24.8391V8.72717H79.7729V24.8391H83.8639Z" fill="#222222"/>
<path d="M83.8639 4.68635C83.8639 3.56892 82.9378 2.68546 81.8056 2.68546C80.6735 2.68546 79.7729 3.59511 79.7729 4.68635C79.7729 5.80418 80.6735 6.71342 81.8056 6.71342C82.9378 6.71342 83.8639 5.80418 83.8639 4.68635Z" fill="#222222"/>
</svg>
