<svg width="295" height="19" viewBox="0 0 295 19" fill="none" xmlns="http://www.w3.org/2000/svg">
<path d="M10.4146 16.3498C12.6267 16.3498 14.576 16.0954 16.2625 15.5866V17.5077C14.4227 17.9638 12.3858 18.1919 10.1518 18.1919C6.82271 18.1919 4.29303 17.4463 2.56278 15.9551C0.854422 14.4638 0.000244141 12.42 0.000244141 9.82347C0.000244141 6.94628 0.821569 4.70944 2.46422 3.11295C4.12877 1.51646 6.68035 0.71821 10.119 0.71821C12.3749 0.71821 14.4227 0.981368 16.2625 1.50768V3.40242C14.4008 2.84102 12.4296 2.56031 10.3489 2.56031C7.61119 2.56031 5.65096 3.17435 4.46825 4.40242C3.28554 5.63049 2.69419 7.43751 2.69419 9.82347C2.69419 14.1744 5.26767 16.3498 10.4146 16.3498Z" fill="#3E4352"/>
<path d="M22.5613 0.191895V15.0077C22.5613 15.5165 22.6598 15.8761 22.8569 16.0866C23.076 16.2796 23.4264 16.3761 23.9082 16.3761C24.412 16.3761 24.9048 16.3235 25.3866 16.2182V17.9287C24.8172 18.1042 24.1053 18.1919 23.2512 18.1919C22.1561 18.1919 21.3128 17.9638 20.7215 17.5077C20.152 17.034 19.8673 16.2796 19.8673 15.2445V0.191895H22.5613Z" fill="#3E4352"/>
<path d="M28.7302 12.6919C28.8178 13.6568 29.0697 14.4112 29.4858 14.9551C29.9238 15.4814 30.5699 15.8673 31.4241 16.1129C32.2783 16.341 33.4282 16.4551 34.8737 16.4551C36.4725 16.4551 37.94 16.2358 39.276 15.7972V17.4814C37.94 17.9551 36.2973 18.1919 34.348 18.1919C31.5665 18.1919 29.4858 17.6568 28.106 16.5866C26.7261 15.5165 26.0362 13.8673 26.0362 11.6393C26.0362 9.58663 26.6495 7.99891 27.876 6.87611C29.1025 5.7533 30.9751 5.19189 33.4939 5.19189C35.706 5.19189 37.3815 5.66558 38.5204 6.61295C39.6812 7.56032 40.2616 8.80593 40.2616 10.3498V12.6919H28.7302ZM33.5596 6.92874C31.7636 6.92874 30.5042 7.27084 29.7815 7.95505C29.0806 8.62172 28.7302 9.68312 28.7302 11.1393H37.8633V10.1129C37.8633 9.07786 37.5129 8.28839 36.812 7.74453C36.133 7.20067 35.0489 6.92874 33.5596 6.92874Z" fill="#3E4352"/>
<path d="M54.7564 16.5077C54.0774 17.0866 53.2452 17.5165 52.2596 17.7972C51.2959 18.0603 50.1132 18.1919 48.7115 18.1919C47.1345 18.1919 45.8204 17.8673 44.7691 17.2182C43.7397 16.5691 43.225 15.6393 43.225 14.4287C43.225 13.2182 43.7178 12.2708 44.7034 11.5866C45.689 10.8849 47.2002 10.534 49.2371 10.534H54.6579V9.77084C54.6579 9.06909 54.5374 8.52523 54.2965 8.13926C54.0555 7.73575 53.6175 7.44628 52.9823 7.27084C52.3472 7.0954 51.4273 7.00768 50.2227 7.00768C48.4048 7.00768 46.6746 7.23575 45.0319 7.69189V5.90242C46.587 5.42874 48.4377 5.19189 50.5841 5.19189C52.8181 5.19189 54.4826 5.56032 55.5777 6.29716C56.6728 7.01646 57.2204 8.17435 57.2204 9.77084V17.9287H54.9535L54.7564 16.5077ZM49.3028 12.1919C48.0982 12.1919 47.2221 12.3761 46.6746 12.7445C46.1489 13.0954 45.8861 13.6568 45.8861 14.4287C45.8861 15.148 46.1818 15.6656 46.7731 15.9814C47.3645 16.2796 48.2406 16.4287 49.4014 16.4287C51.6135 16.4287 53.3656 15.8235 54.6579 14.6129V12.1919H49.3028Z" fill="#3E4352"/>
<path d="M72.9246 17.9287V9.84979C72.9246 9.0954 72.8042 8.51646 72.5632 8.11295C72.3223 7.6919 71.9171 7.39365 71.3477 7.21821C70.8001 7.02523 70.0007 6.92874 68.9494 6.92874C67.9857 6.92874 67.0768 7.06909 66.2226 7.34979C65.3684 7.63049 64.6347 8.01646 64.0215 8.50768V17.9287H61.3275V5.45505H63.7586L63.9229 6.87611C65.6313 5.7533 67.6462 5.19189 69.9678 5.19189C71.939 5.19189 73.3736 5.56032 74.2716 6.29716C75.1696 7.034 75.6186 8.1919 75.6186 9.77084V17.9287H72.9246Z" fill="#3E4352"/>
<path d="M108.149 10.8235C108.149 11.5077 108.051 12.1744 107.854 12.8235C107.657 13.4726 107.372 14.034 107 14.5077L109.956 16.9024L108.314 18.0866L105.685 16.0077C104.218 17.4638 101.809 18.1919 98.4578 18.1919C96.2676 18.1919 94.5154 17.8059 93.2013 17.034C91.8872 16.2621 91.2301 15.227 91.2301 13.9287C91.2301 12.7884 91.6682 11.7884 92.5443 10.9287C93.4203 10.0515 94.7016 9.26207 96.3881 8.56032C95.6215 7.94628 95.0411 7.46382 94.6469 7.11295C94.2745 6.76207 93.9569 6.36733 93.6941 5.92874C93.4532 5.49014 93.3327 5.00768 93.3327 4.48137C93.3327 3.39365 93.7927 2.49891 94.7126 1.79716C95.6544 1.07786 96.9356 0.71821 98.5564 0.71821C100.155 0.71821 101.404 1.06032 102.302 1.74453C103.221 2.42874 103.681 3.34102 103.681 4.48137C103.681 5.37611 103.386 6.15681 102.794 6.82347C102.203 7.4726 101.272 8.14804 100.002 8.84979L105.455 13.2972C105.828 12.648 106.014 11.8235 106.014 10.8235V10.4551H108.149V10.8235ZM101.447 4.56032C101.447 3.10418 100.484 2.37611 98.5564 2.37611C97.5489 2.37611 96.7933 2.57786 96.2895 2.98137C95.8077 3.38488 95.5667 3.91119 95.5667 4.56032C95.5667 5.06909 95.7748 5.54277 96.1909 5.98137C96.6071 6.41996 97.3189 7.02523 98.3264 7.79716C99.4434 7.23575 100.243 6.72698 100.725 6.27084C101.207 5.8147 101.447 5.24453 101.447 4.56032ZM98.4578 16.6393C99.7062 16.6393 100.79 16.4901 101.71 16.1919C102.63 15.8761 103.408 15.4112 104.043 14.7972L98.0307 9.87611C96.5633 10.42 95.4901 10.9989 94.8111 11.6129C94.1541 12.2094 93.8255 12.9638 93.8255 13.8761C93.8255 14.7533 94.2526 15.4375 95.1068 15.9287C95.961 16.4024 97.078 16.6393 98.4578 16.6393Z" fill="#3E4352"/>
<path d="M139.722 13.5077C139.722 15.0165 139.033 16.1744 137.653 16.9814C136.295 17.7884 134.28 18.1919 131.608 18.1919C128.979 18.1919 126.855 17.9287 125.234 17.4024V15.4814C127.162 16.0603 129.209 16.3498 131.378 16.3498C133.327 16.3498 134.751 16.1393 135.649 15.7182C136.569 15.2972 137.028 14.5603 137.028 13.5077C137.028 12.8586 136.831 12.341 136.437 11.9551C136.065 11.5515 135.462 11.2182 134.63 10.9551C133.82 10.6744 132.626 10.3849 131.049 10.0866C128.728 9.63049 127.096 9.04277 126.154 8.32347C125.212 7.60418 124.741 6.62172 124.741 5.3761C124.741 3.90242 125.399 2.76207 126.713 1.95505C128.049 1.13049 130.009 0.71821 132.593 0.71821C133.732 0.71821 134.827 0.788385 135.879 0.928737C136.952 1.05154 137.806 1.20067 138.441 1.37611V3.27084C136.777 2.79716 134.97 2.56031 133.02 2.56031C131.159 2.56031 129.757 2.77961 128.815 3.21821C127.895 3.65681 127.435 4.3761 127.435 5.3761C127.435 5.95505 127.6 6.41996 127.928 6.77084C128.257 7.12172 128.804 7.42874 129.571 7.69189C130.359 7.93751 131.52 8.20944 133.053 8.50768C135.528 8.98137 137.258 9.62172 138.244 10.4287C139.23 11.2182 139.722 12.2445 139.722 13.5077Z" fill="#3E4352"/>
<path d="M143.222 5.45505V2.37611L145.915 1.71821V5.45505H150.219L150.055 7.16558H145.915V14.3498C145.915 15.1217 146.124 15.6656 146.54 15.9814C146.978 16.2972 147.722 16.4551 148.774 16.4551C149.343 16.4551 149.967 16.3673 150.646 16.1919V17.8235C149.836 18.0691 148.905 18.1919 147.854 18.1919C146.343 18.1919 145.193 17.8673 144.404 17.2182C143.616 16.5691 143.222 15.648 143.222 14.4551V7.16558H140.856V5.45505H143.222Z" fill="#3E4352"/>
<path d="M155.653 12.6919C155.741 13.6568 155.993 14.4112 156.409 14.9551C156.847 15.4814 157.493 15.8673 158.347 16.1129C159.201 16.341 160.351 16.4551 161.797 16.4551C163.395 16.4551 164.863 16.2358 166.199 15.7972V17.4814C164.863 17.9551 163.22 18.1919 161.271 18.1919C158.489 18.1919 156.409 17.6568 155.029 16.5866C153.649 15.5165 152.959 13.8673 152.959 11.6393C152.959 9.58663 153.572 7.99891 154.799 6.87611C156.025 5.7533 157.898 5.19189 160.417 5.19189C162.629 5.19189 164.304 5.66558 165.443 6.61295C166.604 7.56032 167.184 8.80593 167.184 10.3498V12.6919H155.653ZM160.482 6.92874C158.686 6.92874 157.427 7.27084 156.704 7.95505C156.003 8.62172 155.653 9.68312 155.653 11.1393H164.786V10.1129C164.786 9.07786 164.436 8.28839 163.735 7.74453C163.056 7.20067 161.972 6.92874 160.482 6.92874Z" fill="#3E4352"/>
<path d="M181.679 16.5077C181 17.0866 180.168 17.5165 179.182 17.7972C178.219 18.0603 177.036 18.1919 175.634 18.1919C174.057 18.1919 172.743 17.8673 171.692 17.2182C170.663 16.5691 170.148 15.6393 170.148 14.4287C170.148 13.2182 170.641 12.2708 171.626 11.5866C172.612 10.8849 174.123 10.534 176.16 10.534H181.581V9.77084C181.581 9.06909 181.46 8.52523 181.219 8.13926C180.978 7.73575 180.54 7.44628 179.905 7.27084C179.27 7.0954 178.35 7.00768 177.146 7.00768C175.328 7.00768 173.597 7.23575 171.955 7.69189V5.90242C173.51 5.42874 175.361 5.19189 177.507 5.19189C179.741 5.19189 181.406 5.56032 182.501 6.29716C183.596 7.01646 184.143 8.17435 184.143 9.77084V17.9287H181.876L181.679 16.5077ZM176.226 12.1919C175.021 12.1919 174.145 12.3761 173.597 12.7445C173.072 13.0954 172.809 13.6568 172.809 14.4287C172.809 15.148 173.105 15.6656 173.696 15.9814C174.287 16.2796 175.163 16.4287 176.324 16.4287C178.536 16.4287 180.288 15.8235 181.581 14.6129V12.1919H176.226Z" fill="#3E4352"/>
<path d="M209.243 17.9287V9.84979C209.243 8.76207 208.959 8.00768 208.389 7.58663C207.82 7.14804 206.878 6.92874 205.564 6.92874C204.688 6.92874 203.856 7.05154 203.067 7.29716C202.301 7.52523 201.654 7.86733 201.129 8.32347C201.26 8.76207 201.326 9.27084 201.326 9.84979V17.9287H198.796V9.90242C198.796 8.8147 198.566 8.05154 198.106 7.61295C197.646 7.15681 196.792 6.92874 195.544 6.92874C194.711 6.92874 193.89 7.07786 193.08 7.37611C192.269 7.65681 191.547 8.04277 190.911 8.534V17.9287H188.25V5.45505H190.682L190.846 6.87611C192.598 5.7533 194.482 5.19189 196.496 5.19189C197.613 5.19189 198.501 5.34102 199.158 5.63926C199.815 5.91996 200.307 6.34102 200.636 6.90242C201.446 6.35856 202.333 5.93751 203.297 5.63926C204.261 5.34102 205.378 5.19189 206.648 5.19189C208.422 5.19189 209.736 5.56032 210.59 6.29716C211.466 7.01646 211.905 8.13049 211.905 9.63926V17.9287H209.243Z" fill="#3E4352"/>
<path d="M230.839 4.34979V17.9287H228.178V0.981367H231.069L238.231 12.7445L245.393 0.981367H248.284V17.9287H245.623V4.34979L239.151 14.9814H237.344L230.839 4.34979Z" fill="#3E4352"/>
<path d="M255.083 5.45505V13.4287C255.083 14.4638 255.401 15.227 256.036 15.7182C256.693 16.2094 257.701 16.4551 259.059 16.4551C260.022 16.4551 260.931 16.3147 261.785 16.034C262.64 15.7533 263.373 15.3673 263.987 14.8761V5.45505H266.68V17.9287H264.249L264.085 16.5077C263.297 17.0165 262.377 17.4287 261.325 17.7445C260.296 18.0428 259.201 18.1919 258.04 18.1919C256.178 18.1919 254.766 17.7796 253.802 16.9551C252.86 16.1305 252.389 14.9287 252.389 13.3498V5.45505H255.083Z" fill="#3E4352"/>
<path d="M273.656 0.191895V15.0077C273.656 15.5165 273.754 15.8761 273.951 16.0866C274.17 16.2796 274.521 16.3761 275.003 16.3761C275.506 16.3761 275.999 16.3235 276.481 16.2182V17.9287C275.911 18.1042 275.2 18.1919 274.345 18.1919C273.25 18.1919 272.407 17.9638 271.816 17.5077C271.246 17.034 270.962 16.2796 270.962 15.2445V0.191895H273.656Z" fill="#3E4352"/>
<path d="M279.481 5.45505V2.37611L282.174 1.71821V5.45505H286.478L286.314 7.16558H282.174V14.3498C282.174 15.1217 282.383 15.6656 282.799 15.9814C283.237 16.2972 283.981 16.4551 285.033 16.4551C285.602 16.4551 286.226 16.3673 286.905 16.1919V17.8235C286.095 18.0691 285.164 18.1919 284.113 18.1919C282.602 18.1919 281.452 17.8673 280.663 17.2182C279.875 16.5691 279.481 15.648 279.481 14.4551V7.16558H277.115V5.45505H279.481Z" fill="#3E4352"/>
<path d="M292.011 2.534V0.560316H295V2.534H292.011ZM294.967 17.9287H292.273V7.16558H289.875L290.138 5.45505H294.967V17.9287Z" fill="#3E4352"/>
</svg>
