<svg width="30" height="30" viewBox="0 0 30 30" fill="none" xmlns="http://www.w3.org/2000/svg">
<path opacity="0.5" d="M30 15C30 23.2843 23.2843 30 15 30C6.71573 30 0 23.2843 0 15C0 6.71573 6.71573 0 15 0C23.2843 0 30 6.71573 30 15Z" fill="#3E3E3E"/>
<path d="M13.5751 20.7281C11.6185 20.7168 10 16.7226 10 14.6885C10 11.3657 12.4926 10.6383 13.4533 10.6383C13.8862 10.6383 14.3485 10.8083 14.7562 10.9588C15.0413 11.0637 15.3362 11.172 15.5002 11.172C15.5984 11.172 15.8297 11.0799 16.0339 10.999C16.4695 10.8256 17.0115 10.6101 17.6427 10.6101C17.6438 10.6101 17.6453 10.6101 17.6464 10.6101C18.1177 10.6101 19.5466 10.7135 20.4057 12.0037L20.607 12.3061L20.3173 12.5246C19.9036 12.8368 19.1487 13.4063 19.1487 14.5343C19.1487 15.8703 20.0036 16.3841 20.4144 16.6313C20.5957 16.7403 20.7834 16.8528 20.7834 17.0988C20.7834 17.2594 19.5015 20.7082 17.64 20.7082C17.1845 20.7082 16.8625 20.5713 16.5786 20.4505C16.2912 20.3283 16.0433 20.223 15.6337 20.223C15.4261 20.223 15.1635 20.3211 14.8856 20.4253C14.5057 20.5671 14.0758 20.7281 13.5879 20.7281H13.5751Z" fill="#A5A5A5"/>
<path d="M17.84 7.58057C17.8885 9.32858 16.6384 10.5413 15.3897 10.4652C15.184 9.07024 16.6382 7.58057 17.84 7.58057Z" fill="#A5A5A5"/>
</svg>
