<svg width="30" height="30" viewBox="0 0 30 30" fill="none" xmlns="http://www.w3.org/2000/svg">
<path opacity="0.5" d="M30 15C30 23.2843 23.2843 30 15 30C6.71573 30 0 23.2843 0 15C0 6.71573 6.71573 0 15 0C23.2843 0 30 6.71573 30 15Z" fill="#3E3E3E"/>
<path d="M15.0057 7.65088C10.8305 7.64737 7.44395 11.0292 7.44043 15.2045C7.43692 19.3797 10.8188 22.7662 14.994 22.7698C19.1687 22.7662 22.5529 19.385 22.5593 15.2103C22.5593 11.0374 19.1786 7.6544 15.0057 7.65088ZM14.994 21.5118C11.5139 21.5118 8.69255 18.6905 8.69255 15.2103C8.69255 11.7302 11.5139 8.90885 14.994 8.90885C18.473 8.91236 21.292 11.7314 21.2955 15.2103C21.2955 18.6905 18.4742 21.5118 14.994 21.5118Z" fill="#A5A5A5"/>
<path d="M17.0363 14.8411C17.5418 14.5561 17.8151 13.9857 17.7209 13.4135C17.6039 12.53 16.5507 12.1964 15.7198 12.1263V10.7981H14.9007V12.1146H14.3507V10.7981H13.5316V12.1146H11.8816V12.963H12.4959C12.7709 12.963 12.9055 13.0449 12.9055 13.2672V16.9124C12.9055 17.2166 12.7534 17.3102 12.5896 17.3102H11.9635V18.1762H13.555V19.5219H14.38V18.1762H14.9299V19.5219H15.7315V18.1762H15.9071C17.5921 18.1762 18.1538 17.3512 18.1538 16.2278C18.1404 15.5654 17.6811 14.9956 17.0363 14.8411ZM14.3507 13.0156H14.9358C15.3454 13.0156 16.1528 13.0858 16.1528 13.7528C16.1809 14.1881 15.8655 14.5696 15.4331 14.6246H14.3507V13.0156ZM15.2576 17.2283V17.2224H14.3507V15.4671H15.4039C15.6496 15.4671 16.5741 15.5491 16.5741 16.2044C16.5741 16.8597 16.1353 17.2283 15.2576 17.2283Z" fill="#A5A5A5"/>
</svg>
