<svg width="31" height="30" viewBox="0 0 31 30" fill="none" xmlns="http://www.w3.org/2000/svg">
<path opacity="0.5" d="M30.9375 15C30.9375 23.2843 24.0119 30 15.4688 30C6.9256 30 0 23.2843 0 15C0 6.71573 6.9256 0 15.4688 0C24.0119 0 30.9375 6.71573 30.9375 15Z" fill="#3E3E3E"/>
<path d="M15.4687 14.0408V16.6168H19.1124C18.5805 18.116 17.1482 19.1928 15.4687 19.1928C13.3384 19.1928 11.6048 17.4591 11.6048 15.3288C11.6048 13.1985 13.3384 11.4649 15.4687 11.4649C16.3922 11.4649 17.2809 11.7959 17.9713 12.3974L19.6637 10.4551C18.5045 9.44532 17.0156 8.88892 15.4687 8.88892C11.9177 8.88892 9.02881 11.7779 9.02881 15.3288C9.02881 18.8798 11.9177 21.7687 15.4687 21.7687C19.0197 21.7687 21.9086 18.8798 21.9086 15.3288V14.0408H15.4687Z" fill="#A5A5A5"/>
</svg>
