<svg width="283" height="37" viewBox="0 0 283 37" fill="none" xmlns="http://www.w3.org/2000/svg">
<path d="M22.756 35.6856L14.1416 0.415822H8.71401L0 35.6856H5.87573L7.26998 28.701H15.486L16.9301 35.6856H22.756ZM14.4404 23.6979H8.36545L11.4029 8.93606L14.4404 23.6979Z" fill="#F42210"/>
<path d="M38.6408 26.2738V16.5151H29.5782V21.0724H33.0638V26.571C33.0638 28.9982 32.0182 31.0788 29.5782 31.0788C28.2338 31.0788 27.4371 30.5339 26.9391 29.7413C25.8437 28.0571 25.6943 24.4904 25.6943 18.0507C25.6943 11.611 25.8437 8.04441 26.9391 6.36017C27.4371 5.56759 28.2338 5.02269 29.5782 5.02269C32.6157 5.02269 33.014 7.84626 33.0638 9.77818H38.6408C38.5412 6.75646 37.6449 4.18058 35.9021 2.39727C34.4083 0.911184 32.3169 0.0195312 29.5782 0.0195312C26.2918 0.0195312 24.1507 1.30748 22.7066 3.04124C20.3663 5.81527 20.1173 9.6791 20.1173 18.0507C20.1173 26.4224 20.3663 30.2862 22.7066 33.0602C24.1507 34.794 26.2918 36.0819 29.5782 36.0819C34.9062 36.0819 38.6408 32.7135 38.6408 26.2738Z" fill="#F42210"/>
<path d="M54.1307 35.6856V30.6825H44.8192V20.4285H52.8361V15.4253H44.8192V5.41899H54.1307V0.415822H39.2422V35.6856H54.1307Z" fill="#F42210"/>
<path d="M73.3755 35.6856V0.415822H67.7985V21.3697L59.4829 0.415822H54.5034V35.6856H60.0804V14.7318L68.4458 35.6856H73.3755Z" fill="#F42210"/>
<path d="M90.4063 5.41899V0.415822H72.9285V5.41899H78.854V35.6856H84.431V5.41899H90.4063Z" fill="#F42210"/>
<path d="M112.43 25.5802C112.43 22.3109 112.031 20.1808 110.388 18.4966C109.89 18.0012 109.193 17.5554 108.446 17.2086C109.193 16.9114 109.791 16.4656 110.289 15.9702C111.932 14.286 112.33 12.3541 112.33 9.82771C112.33 6.01342 111.733 4.23011 110.089 2.59542C108.645 1.10933 106.504 0.415822 103.218 0.415822H94.3545V35.6856H103.168C106.504 35.6856 108.645 34.9426 110.139 33.4565C111.832 31.7227 112.43 29.7413 112.43 25.5802ZM106.853 25.184C106.853 29.2955 105.608 30.6825 102.62 30.6825H99.9314V19.6854H102.62C105.608 19.6854 106.853 21.2706 106.853 25.184ZM106.753 10.1745C106.753 13.5429 105.608 14.9795 102.72 14.9795H99.9314V5.41899H102.72C105.608 5.41899 106.753 6.70693 106.753 10.1745Z" fill="#F42210"/>
<path d="M128.248 35.6856V30.6825H118.937V0.415822H113.36V35.6856H128.248Z" fill="#F42210"/>
<path d="M144.944 18.0507C144.944 9.6791 144.744 5.81527 142.354 3.04124C140.91 1.30748 138.769 0.0195312 135.483 0.0195312C132.196 0.0195312 130.055 1.30748 128.611 3.04124C126.271 5.86481 126.022 9.6791 126.022 18.0507C126.022 26.4224 126.271 30.2367 128.611 33.0602C130.055 34.794 132.196 36.0819 135.483 36.0819C138.769 36.0819 140.91 34.794 142.354 33.0602C144.744 30.2862 144.944 26.4224 144.944 18.0507ZM139.367 18.0507C139.367 24.4904 139.217 28.0571 138.172 29.7413C137.674 30.5339 136.827 31.0788 135.483 31.0788C134.138 31.0788 133.341 30.5339 132.844 29.7413C131.798 28.0571 131.599 24.4904 131.599 18.0507C131.599 11.611 131.798 8.04441 132.844 6.36017C133.341 5.56759 134.138 5.02269 135.483 5.02269C136.827 5.02269 137.674 5.56759 138.172 6.36017C139.217 8.04441 139.367 11.611 139.367 18.0507Z" fill="#F42210"/>
<path d="M164.359 35.6856V0.415822H158.782V21.3697L150.466 0.415822H145.487V35.6856H151.064V14.7318L159.429 35.6856H164.359Z" fill="#F42210"/>
<path d="M184.328 18.0012C184.328 9.87725 184.129 5.96388 181.738 3.33846C180.294 1.70376 178.253 0.415822 174.867 0.415822H165.854V35.6856H174.867C178.253 35.6856 180.294 34.3977 181.738 32.763C184.129 30.1376 184.328 26.1251 184.328 18.0012ZM178.751 18.0012C178.751 24.1437 178.651 27.6112 177.556 29.2459C177.008 30.088 176.062 30.6825 174.717 30.6825H171.431V5.41899H174.717C176.062 5.41899 177.008 6.01342 177.556 6.85554C178.651 8.49023 178.751 11.8587 178.751 18.0012Z" fill="#F42210"/>
<path d="M199.748 35.6856V30.6825H190.437V20.4285H198.453V15.4253H190.437V5.41899H199.748V0.415822H184.86V35.6856H199.748Z" fill="#F42210"/>
<path d="M221.667 25.927C221.667 19.9826 220.522 17.7535 216.29 16.0197L212.107 14.3355C209.617 13.3448 209.169 12.4531 209.169 9.58003C209.169 8.04441 209.468 6.85554 210.115 6.11249C210.663 5.51806 211.36 5.12177 212.505 5.12177C213.7 5.12177 214.497 5.51806 214.995 6.16203C215.742 7.10322 215.841 8.34162 215.841 9.92678H221.418C221.418 6.55832 220.771 4.03197 218.929 2.24866C217.485 0.861649 215.393 0.118603 212.555 0.118603C210.015 0.118603 208.024 0.911184 206.48 2.24866C204.538 3.98243 203.592 6.55832 203.592 9.72864C203.592 15.1776 204.936 17.1095 208.522 18.5956L212.754 20.3294C215.493 21.4192 216.09 22.3604 216.09 26.1251C216.09 28.0075 215.891 29.1964 215.144 30.0385C214.597 30.6825 213.75 31.0292 212.455 31.0292C211.211 31.0292 210.364 30.6329 209.866 30.088C209.069 29.1964 208.87 28.0075 208.87 26.1251H203.293C203.293 29.8404 203.891 32.02 205.584 33.7042C207.078 35.1903 209.368 36.0324 212.455 36.0324C215.592 36.0324 217.933 35.0912 219.377 33.7042C221.169 31.9704 221.667 29.5431 221.667 25.927Z" fill="#F42210"/>
<path d="M237.377 5.41899V0.415822H219.9V5.41899H225.825V35.6856H231.402V5.41899H237.377Z" fill="#F42210"/>
<path d="M254.991 0.415822H248.867L245.331 14.3851L241.846 0.415822H235.671L242.543 21.865V35.6856H248.12V21.865L254.991 0.415822Z" fill="#F42210"/>
<path d="M268.42 35.6856V30.6825H259.108V0.415822H253.531V35.6856H268.42Z" fill="#F42210"/>
<path d="M283 35.6856V30.6825H273.688V20.4285H281.705V15.4253H273.688V5.41899H283V0.415822H268.111V35.6856H283Z" fill="#F42210"/>
</svg>
