<svg width="30" height="30" viewBox="0 0 30 30" fill="none" xmlns="http://www.w3.org/2000/svg">
<path opacity="0.5" d="M30 15C30 23.2843 23.2843 30 15 30C6.71573 30 0 23.2843 0 15C0 6.71573 6.71573 0 15 0C23.2843 0 30 6.71573 30 15Z" fill="#3E3E3E"/>
<path d="M20.874 9.20459H9.22365C8.24038 9.20459 7.44043 10.0045 7.44043 10.9878V18.5962C7.44043 19.5795 8.24038 20.3794 9.22365 20.3794H20.874C21.8573 20.3794 22.6572 19.5795 22.6572 18.5962V10.9878C22.6572 10.0045 21.8573 9.20459 20.874 9.20459ZM21.4684 18.5962C21.4684 18.924 21.2017 19.1906 20.874 19.1906H9.22365C8.89589 19.1906 8.62924 18.924 8.62924 18.5962V13.5438H21.4684V18.5962ZM21.4684 11.7605H8.62924V10.9878C8.62924 10.6601 8.89589 10.3934 9.22365 10.3934H20.874C21.2017 10.3934 21.4684 10.6601 21.4684 10.9878V11.7605Z" fill="#A5A5A5"/>
<path d="M17.3068 14.4321H9.46069V15.6209H17.3068V14.4321Z" fill="#A5A5A5"/>
</svg>
