<svg width="387" height="432" viewBox="0 0 387 432" fill="none" xmlns="http://www.w3.org/2000/svg">
<g opacity="0.2" clip-path="url(#clip0)">
<path d="M71.4489 273.422V311.493H71.6402L98.0042 284.959C91.3174 278.037 81.9559 273.614 71.4489 273.422ZM73.7419 275.921C81.5744 276.499 88.834 279.768 94.7559 285.151L73.7419 306.302V275.921ZM73.5507 313.609H110.612C110.612 303.225 106.601 293.996 99.9138 287.074L73.5507 313.609ZM79.2814 311.302L99.9138 290.535C104.881 296.496 107.747 303.61 108.32 311.302H79.2814ZM71.2577 251.118L74.506 255.733L76.9893 254.002L77.3708 254.387C77.5621 254.387 77.5621 254.578 77.7533 254.578L76.4156 257.462L81.3822 259.77L82.72 256.886C83.1024 256.886 83.2937 257.079 83.6752 257.079L83.8665 260.155H84.8217L89.4068 259.77L89.2165 256.694C89.5971 256.501 89.7893 256.501 90.1708 256.309L91.8901 258.808L96.284 255.54L94.5647 253.041L94.9472 252.656L95.3287 252.271L98.1945 253.617L100.488 248.618L97.6217 247.272C97.6217 246.887 97.813 246.695 97.813 246.31L100.869 246.118L100.296 240.542L97.2393 240.734C97.048 240.349 97.048 240.158 96.8577 239.773L99.341 238.042L96.284 233.62L93.8007 235.351L93.4182 234.966L93.0366 234.582L94.3735 231.698L89.4068 229.39L88.0691 232.274C87.6875 232.274 87.4963 232.082 87.1138 232.082L86.9235 229.005L81.5744 229.582L81.7647 232.659C81.3831 232.851 81.1919 232.851 80.8103 233.044L79.2814 230.928L79.4726 231.12L83.8665 225.929L80.2366 222.852L80.8094 221.699C81.0007 221.314 81.1919 220.929 81.1919 220.545L85.777 221.507L87.1138 214.968L82.5296 214.007C82.5296 213.239 82.5296 212.469 82.3384 211.508L86.7323 209.97L84.6305 203.624L80.2366 205.162C79.8551 204.394 79.2814 203.816 78.8998 203.048L81.9559 199.394L81.3831 198.818L76.9893 194.971L73.9323 198.625L72.7858 198.048C72.4042 197.855 72.0217 197.664 71.6402 197.664L72.5954 193.049L65.9086 191.703L64.9533 196.318C64.1893 196.318 63.234 196.318 62.47 196.51L60.9419 192.087L54.6375 194.203L56.1656 198.625C55.4016 199.01 54.8288 199.586 54.0638 199.971L50.434 196.894L46.0402 201.894L49.67 204.97L49.0972 206.124L48.5235 207.278L43.9393 206.316L42.6016 213.046L47.1867 214.007C47.1867 214.777 47.1866 215.738 47.377 216.507L42.984 218.045L45.0849 224.391L49.4797 222.852C49.8612 223.621 50.434 224.198 50.8165 224.967L47.7594 228.621L52.7261 233.044L55.7831 229.39L56.9296 229.967C57.3121 230.159 57.6937 230.352 58.0761 230.352L57.1209 234.966L63.6165 236.312L64.5717 231.698C65.3358 231.698 66.291 231.698 67.0551 231.505L68.5831 235.928L74.3147 234.005L75.8428 236.119L75.4603 236.504L75.0788 236.889L72.213 235.543L69.92 240.542L72.7858 241.888C72.7858 242.273 72.5954 242.465 72.5954 242.85L69.5384 243.042L70.1112 248.426L73.1682 248.233C73.3586 248.618 73.3586 248.811 73.5507 249.194L71.2577 251.118ZM74.506 244.58V243.811C74.506 243.042 74.6963 242.273 74.8875 241.696L75.0778 240.927L72.5945 239.773L73.3595 238.042L75.8428 239.196L76.2253 238.62C76.4156 238.235 76.6068 238.042 76.798 237.85C76.9884 237.658 77.1796 237.274 77.5621 237.081L78.1358 236.504L76.4156 234.197L78.1358 233.044L79.6638 235.351L80.2366 234.966C80.8094 234.582 81.5744 234.389 82.1472 234.197L82.9112 234.005L82.7209 231.12L84.6305 230.928L84.8217 233.812H85.5858C86.3498 233.812 87.1138 234.005 87.6875 234.197L88.4516 234.389L89.5981 231.889L91.3173 232.659L90.1708 235.158L90.7436 235.543C91.1261 235.735 91.3174 235.928 91.5086 236.119C91.6989 236.312 92.0814 236.504 92.2726 236.889L92.8454 237.466L95.1375 235.928L96.284 237.658L93.9919 239.196L94.3735 239.773C94.7559 240.349 94.9472 241.119 95.1375 241.888L95.3287 242.657L98.1945 242.465L98.3858 244.388L95.52 244.58V245.349C95.52 246.118 95.3287 246.887 95.1375 247.464L94.9472 248.233L97.4305 249.387L96.6665 251.118L94.1831 249.964L93.8007 250.54C93.6094 250.925 93.4182 251.118 93.2279 251.502L92.4629 252.271L91.8901 252.848L93.4182 255.155L91.6989 256.309L90.1708 254.002L89.5981 254.387C89.0244 254.771 88.2603 254.963 87.4963 255.155L86.7323 255.348L86.9226 258.232L85.013 258.424L84.8217 255.54H84.0577C83.2937 255.54 82.72 255.348 81.9559 255.155L81.1919 254.963L80.0454 257.462L78.3261 256.694L79.4726 254.194L78.8998 253.809C78.7086 253.617 78.3261 253.425 78.1349 253.232L77.3708 252.464L76.798 251.886L74.5051 253.425L73.3595 251.694L75.6525 250.157L75.27 249.579C74.8875 249.002 74.6963 248.233 74.506 247.464L74.3147 246.695L71.4489 246.887L71.2586 244.964L74.506 244.58ZM74.8875 233.236L73.5507 229.39C74.3147 229.005 74.8875 228.429 75.6516 228.044L78.7086 230.736L74.8875 233.236ZM69.9209 233.812L68.3919 229.582L67.6279 229.774C66.6726 229.967 65.7173 229.967 64.7621 229.967H63.234L62.47 234.389L59.2226 233.812L59.9867 229.39L59.2226 229.197C58.6489 229.005 58.0761 228.813 57.5033 228.429C56.9297 228.224 56.4077 227.896 55.9744 227.467L55.4016 227.083L52.5358 230.543L50.0524 228.429L52.9182 224.967L52.3445 224.391C51.5805 223.429 51.0077 222.468 50.434 221.507L50.0524 220.929L45.8498 222.468L44.7033 219.391L48.9059 217.853L48.7156 217.084C48.5235 216.123 48.5235 215.161 48.5235 214.007V212.661L44.1296 211.893L44.7033 208.624L49.0972 209.392L49.2875 208.624C49.4796 208.047 49.67 207.47 50.0524 206.893C50.255 206.317 50.5811 205.792 51.0077 205.355L51.3893 204.778L47.9507 201.894L50.0524 199.394L53.491 202.278L54.0638 201.702C55.0191 200.932 55.9744 200.163 56.9296 199.779L57.5033 199.394L55.9744 195.164L59.0314 194.01L60.5595 198.24L61.3235 198.048C62.2788 197.855 63.234 197.855 64.1893 197.855H65.5261L66.291 193.434L69.5384 194.01L68.7744 198.433L69.5384 198.625C70.1112 198.818 70.6849 199.01 71.2577 199.394C71.8313 199.599 72.3529 199.927 72.7858 200.356L73.3595 200.74L76.2253 197.472L78.7086 199.586L75.8428 203.048L76.4156 203.624C77.1805 204.586 77.9445 205.547 78.3261 206.508L78.7086 207.085L82.9112 205.547L84.0577 208.624L79.8551 210.162L80.0454 210.931C80.2366 211.893 80.2366 212.854 80.2366 213.815V215.353L84.6305 216.123L84.0577 219.391L79.6638 218.622L79.4726 219.391C79.2823 219.968 79.0901 220.545 78.7086 221.122C78.5173 221.699 78.1358 222.083 77.7533 222.66L77.3708 223.237L80.8094 226.122L78.7086 228.621L75.27 225.737L74.6963 226.313C73.741 227.083 72.7858 227.851 71.8305 228.236L71.2577 228.621L72.7858 232.851L69.9209 233.812Z" fill="white"/>
<path d="M68.7748 246.888L68.3933 242.465H68.5836L68.3933 242.273V242.081H68.202L65.7187 238.428V238.235H65.5275L65.3362 238.043H65.1459L61.3239 236.312V236.12H60.9424L56.5485 236.505V236.312L56.3573 236.505H56.167V236.697L52.5362 239.196H52.3459V239.389L52.1547 239.581V239.774L50.4354 243.811H50.2441V244.196L50.6257 248.619H50.4354L50.6257 248.81V249.003H50.8169L53.3003 252.656V252.849H53.4915L53.6818 253.041H53.874L57.8854 254.771V254.963H58.2669V254.771H58.6494L62.4704 254.387V254.579L62.6608 254.387H62.8529V254.195L66.4827 251.694H66.6731V251.503L66.8643 251.311V251.118L68.7748 247.08H68.9652V246.888H68.7748ZM56.1661 239.196L56.5485 239.581V239.774L57.8854 241.696C57.3126 241.888 56.9301 242.273 56.5485 242.658L55.2108 240.735L54.8292 240.35L56.1661 239.196ZM66.2915 245.927L63.8082 246.118V245.734V244.58C63.8082 244.389 63.8082 244.196 63.6169 244.196L66.1003 244.389H66.6731L66.8643 246.118L66.2915 245.927ZM61.1336 252.272V252.849L59.4143 253.041V252.272L59.2231 249.965H60.1784C60.3687 249.965 60.7511 249.965 60.9424 249.772L61.1327 252.272H61.1336ZM55.9748 251.311V251.118L56.7389 249.003C57.3126 249.387 57.8854 249.772 58.4591 249.965L57.3126 252.272L57.1222 252.849L55.5933 252.079L55.9748 251.311ZM58.0766 239.004V238.428L59.7959 238.235V239.004L59.9862 241.312H58.8415C58.6494 241.312 58.2678 241.504 58.0766 241.504V239.004ZM63.2345 239.774L63.0441 239.966L62.088 242.081C61.5152 241.697 60.9424 241.312 60.3696 241.312L61.5152 239.196L61.7064 238.62L63.2345 239.389V239.774ZM62.0889 245.542C62.0889 246.118 61.8976 246.696 61.5152 247.08C61.1336 247.657 60.5599 247.849 59.7959 248.041H59.6056C59.0318 248.041 58.4591 247.849 58.0766 247.464C57.65 247.028 57.3239 246.503 57.1213 245.927V245.542C57.1213 244.965 57.3116 244.389 57.695 244.004C58.1276 243.575 58.6494 243.247 59.2231 243.043H59.4134C59.9871 243.043 60.5599 243.234 60.9424 243.619C61.5152 244.004 61.7064 244.58 61.8976 245.157V245.35L62.088 245.542H62.0889ZM65.5275 242.465L63.4257 243.619C63.2354 243.234 62.8529 242.85 62.6617 242.465L64.5722 240.927L64.7625 240.735L65.145 240.542L66.1003 242.081L65.5275 242.465ZM53.874 241.888L56.167 243.043C55.7845 243.619 55.5933 244.004 55.402 244.772L53.109 243.619L52.5362 243.427L53.3003 241.888H53.874ZM52.9187 245.35L55.402 245.157V246.888L53.109 247.08H52.5362L52.3459 245.35H52.9187ZM53.6827 248.81L55.7845 247.273C55.9748 247.849 56.3573 248.234 56.7389 248.619L54.8292 250.157L54.4468 250.541L53.4915 249.003L53.6818 248.81H53.6827ZM62.6617 251.503L61.1336 249.387C61.7561 249.182 62.2933 248.777 62.6617 248.234L63.9985 250.348L64.381 250.926L63.0441 251.887L62.6617 251.503ZM65.3353 249.195L63.0441 248.041C63.4257 247.657 63.6169 247.08 63.8082 246.503L66.1012 247.464L66.6731 247.657L65.909 249.195H65.3362H65.3353ZM76.2257 219.584C76.9897 217.854 77.5625 215.931 77.5625 214.008C77.5625 212.662 77.3722 211.316 76.7985 209.778C75.652 206.51 73.3599 204.009 70.4941 202.471C68.7748 201.702 66.8643 201.125 64.9538 201.125C63.6169 201.125 62.2801 201.317 60.7511 201.895C57.5029 203.048 55.0196 205.355 53.4915 208.239C52.7275 209.97 52.1538 211.893 52.1538 213.815C52.1538 215.161 52.345 216.507 52.9187 217.854C54.0643 221.122 56.3573 223.814 59.4134 225.16C61.1327 225.93 63.0432 226.506 64.9538 226.506C66.3906 226.515 67.8164 226.254 69.1573 225.737C72.2134 224.776 74.6967 222.468 76.2257 219.584ZM68.3924 224.391C67.2468 224.776 66.0994 224.968 64.7625 224.968C63.0432 224.968 61.5152 224.584 59.9862 223.814C57.5029 222.661 55.402 220.354 54.4468 217.469C54.0643 216.316 53.8731 215.161 53.8731 213.815C53.8731 212.086 54.2555 210.547 55.0196 209.009C56.1661 206.51 58.4581 204.394 61.3239 203.433C62.4704 203.048 63.6169 202.856 64.9538 202.856C66.6731 202.856 68.202 203.241 69.7301 204.009C72.2134 205.163 74.3152 207.471 75.2704 210.355C75.652 211.508 75.8432 212.662 75.8432 214.008C75.8432 215.739 75.4608 217.277 74.6967 218.815C73.3599 221.315 71.2581 223.43 68.3924 224.391ZM80.4292 250.348C81.7661 251.502 83.4854 252.079 85.2056 252.079H85.9687C88.0704 251.887 89.7897 250.926 91.1275 249.387C92.2731 248.041 92.8468 246.311 92.8468 244.58V243.811C92.6555 241.696 91.7003 239.966 90.1722 238.62C88.8345 237.466 87.1152 236.889 85.3959 236.889H84.6319C82.5301 237.082 80.8108 238.043 79.474 239.581C78.3275 240.927 77.7538 242.658 77.7538 244.389V245.157C77.945 247.272 79.0915 249.195 80.4283 250.348H80.4292ZM80.8108 240.927C81.7672 239.758 83.1348 239.001 84.6319 238.812H85.2047C86.5424 238.812 87.8792 239.389 88.8345 240.158C89.9984 241.125 90.7501 242.501 90.9362 244.004V244.58C90.9362 245.926 90.3634 247.272 89.5985 248.234C88.6423 249.402 87.275 250.159 85.7784 250.348H85.2047C83.8678 250.348 82.531 249.772 81.5748 249.003C80.4112 248.035 79.6598 246.66 79.474 245.157V244.58C79.474 243.234 80.0468 241.888 80.8108 240.927ZM362.023 284.959C361.64 284.767 361.259 284.383 360.685 284.191C360.112 283.998 359.73 283.613 359.157 283.421C358.584 283.229 358.202 282.845 357.629 282.652C357.055 282.46 356.674 282.267 356.1 282.075L354.381 281.499C353.808 281.306 353.426 281.114 352.853 281.114C352.28 280.922 351.516 280.729 350.942 280.537C350.561 280.344 349.987 280.344 349.605 280.153C348.841 279.96 348.076 279.96 347.312 279.768C346.931 279.768 346.548 279.576 346.167 279.576C345.02 279.383 343.874 279.383 342.537 279.383C322.095 279.383 305.666 296.111 305.666 316.493C305.666 317.647 305.666 318.608 305.857 319.763V320.724C306.048 321.492 306.048 322.262 306.239 323.223C306.43 323.8 306.43 324.377 306.621 324.954V325.146L306.812 325.723C309.105 335.337 315.218 343.413 323.241 348.412L323.624 348.604C324.005 348.796 324.197 348.989 324.579 349.181C324.769 349.374 324.961 349.374 325.152 349.566C326.107 349.95 326.871 350.527 327.826 350.912C328.018 351.104 328.209 351.104 328.59 351.104C329.546 351.488 330.501 351.873 331.265 352.065C331.456 352.065 331.456 352.065 331.648 352.258L332.794 352.642C334.663 353.211 336.582 353.597 338.525 353.796H339.289C340.435 353.796 341.391 353.989 342.537 353.989C343.683 353.989 344.638 353.989 345.784 353.796C346.167 353.796 346.357 353.796 346.74 353.604H347.312L348.076 353.411C349.987 353.027 351.897 352.642 353.808 352.065L354.955 351.681C355.527 351.488 356.101 351.296 356.483 351.104C356.674 351.104 356.865 350.912 357.055 350.912C357.984 350.541 358.879 350.09 359.73 349.566C359.921 349.374 360.304 349.374 360.495 349.181C361.364 348.739 362.195 348.224 362.978 347.643H363.169C363.169 347.643 363.36 347.643 363.36 347.45C373.104 340.721 379.408 329.569 379.408 316.686C379.598 303.226 372.53 291.497 362.023 284.959ZM361.832 346.297C359.921 347.45 357.82 348.604 355.719 349.374V310.917H361.832V346.297ZM363.551 309.187H353.999V349.95C352.089 350.527 350.178 351.104 348.268 351.296V324.569H338.716V351.488C336.773 351.29 334.853 350.903 332.984 350.335V334.183H323.433V345.912C321.522 344.566 319.612 343.028 317.892 341.297C313.498 336.876 310.251 331.299 308.722 324.954L324.388 309.187L334.704 319.57L365.844 289.574L367.563 291.305C373.868 297.65 377.879 306.495 377.879 316.301C377.879 326.107 373.868 334.952 367.563 341.297C366.226 342.644 364.889 343.798 363.551 344.759V309.187ZM342.727 351.873C341.963 351.873 341.199 351.873 340.435 351.681V326.492H346.548V351.681C345.402 351.873 344.065 351.873 342.727 351.873ZM325.152 347.258V336.298H331.265V350.142C329.164 349.181 327.062 348.412 325.152 347.258ZM342.727 281.114C350.942 281.114 358.393 283.998 364.506 288.805L334.704 317.455L324.388 307.072L308.34 323.223C307.958 321.108 307.767 318.801 307.767 316.493C307.767 306.687 311.779 297.842 318.083 291.497C324.197 285.152 332.984 281.114 342.727 281.114ZM236.127 326.3L235.554 326.685L236.699 327.261C236.509 326.877 236.318 326.492 236.127 326.3ZM237.655 329.376L234.216 327.261L233.643 327.646L238.037 330.337C237.846 330.145 237.846 329.761 237.655 329.376ZM238.801 332.452L232.305 328.607L231.733 328.992L239.184 333.414C238.801 333.029 238.801 332.644 238.801 332.452ZM239.375 335.145L230.205 329.76L229.632 330.145L239.757 336.106C239.566 335.721 239.566 335.529 239.375 335.145ZM239.948 337.837L228.294 330.915L227.721 331.299L240.139 338.605C239.948 338.413 239.948 338.029 239.948 337.837ZM240.139 340.336L226.193 332.068L225.619 332.452L240.33 341.105C240.139 340.721 240.139 340.528 240.139 340.336ZM181.298 362.64H193.334C193.525 362.64 193.716 362.64 193.716 362.448V359.756V359.371C193.716 359.371 193.525 359.18 193.334 359.18H186.838V358.987C187.412 358.603 187.793 358.218 188.176 357.834C188.557 357.449 188.94 357.257 189.131 356.872L190.086 355.911C190.468 355.718 190.659 355.334 191.041 354.95C191.423 354.565 191.805 353.988 192.187 353.604C192.57 353.219 192.761 352.834 192.951 352.449C193.142 352.065 193.334 351.488 193.525 351.103C193.716 350.72 193.716 350.142 193.716 349.565C193.716 348.796 193.525 348.027 193.334 347.45C193.131 346.825 192.728 346.285 192.187 345.912C191.614 345.527 191.041 345.143 190.086 344.951C189.086 344.704 188.06 344.575 187.029 344.566H186.074C185.692 344.566 185.119 344.566 184.737 344.759C184.163 344.759 183.782 344.951 183.208 344.951C182.635 345.143 182.253 345.143 181.871 345.335C181.489 345.527 181.298 345.72 181.107 345.912V346.489L181.298 348.027C181.298 348.412 181.489 348.604 181.489 348.604H182.253C182.827 348.604 183.591 348.412 184.355 348.412C185.119 348.412 186.074 348.219 186.838 348.219C187.793 348.219 188.557 348.412 188.94 348.604C189.322 348.796 189.512 349.374 189.512 349.95C189.512 350.527 189.322 350.911 189.131 351.488C188.877 351.98 188.556 352.433 188.176 352.834L187.602 353.411C187.412 353.604 187.029 353.988 186.648 354.18L185.883 354.95L185.501 355.334L185.31 355.526C185.119 355.718 184.927 355.718 184.737 355.911L184.163 356.488C183.973 356.679 183.782 356.872 183.399 357.064C182.827 357.641 182.253 358.218 181.489 358.795C181.298 358.987 181.107 359.18 181.107 359.371V361.872C180.725 362.448 180.916 362.64 181.298 362.64ZM230.205 304.957C230.658 304.957 231.107 304.868 231.526 304.694C231.944 304.52 232.324 304.265 232.644 303.943C232.964 303.621 233.217 303.239 233.388 302.819C233.56 302.399 233.646 301.949 233.643 301.495C233.646 301.041 233.559 300.591 233.388 300.171C233.216 299.751 232.963 299.369 232.644 299.048C232.324 298.726 231.944 298.471 231.525 298.297C231.107 298.123 230.658 298.034 230.205 298.035C229.751 298.034 229.302 298.123 228.884 298.297C228.465 298.471 228.085 298.726 227.765 299.048C227.446 299.369 227.193 299.751 227.021 300.171C226.85 300.591 226.763 301.041 226.766 301.495C226.763 301.949 226.85 302.399 227.021 302.819C227.193 303.239 227.445 303.621 227.765 303.943C228.085 304.265 228.465 304.52 228.884 304.694C229.302 304.868 229.751 304.957 230.205 304.957ZM230.205 299.573C231.16 299.573 231.924 300.342 231.924 301.304C231.925 301.531 231.882 301.755 231.796 301.966C231.711 302.176 231.584 302.367 231.424 302.527C231.264 302.688 231.074 302.816 230.865 302.903C230.656 302.989 230.431 303.034 230.205 303.033C229.978 303.034 229.754 302.989 229.544 302.903C229.335 302.816 229.145 302.688 228.985 302.527C228.825 302.367 228.699 302.176 228.613 301.966C228.527 301.755 228.484 301.531 228.485 301.304C228.485 300.534 229.249 299.573 230.205 299.573ZM238.037 304.957C238.49 304.957 238.939 304.868 239.358 304.694C239.777 304.52 240.157 304.265 240.477 303.943C240.796 303.621 241.049 303.239 241.221 302.819C241.392 302.399 241.479 301.949 241.476 301.495C241.479 301.041 241.392 300.591 241.22 300.171C241.049 299.751 240.796 299.369 240.476 299.048C240.157 298.726 239.776 298.471 239.358 298.297C238.939 298.123 238.49 298.034 238.037 298.035C237.584 298.034 237.135 298.123 236.716 298.297C236.298 298.471 235.918 298.726 235.598 299.048C235.278 299.369 235.025 299.751 234.854 300.171C234.682 300.591 234.595 301.041 234.598 301.495C234.407 303.418 235.935 304.957 238.037 304.957ZM238.037 299.573C238.992 299.573 239.756 300.342 239.756 301.304C239.758 301.531 239.715 301.755 239.629 301.966C239.543 302.176 239.417 302.367 239.257 302.527C239.097 302.688 238.907 302.816 238.697 302.903C238.488 302.989 238.264 303.034 238.037 303.033C237.81 303.034 237.586 302.989 237.377 302.903C237.167 302.816 236.977 302.688 236.817 302.527C236.657 302.367 236.531 302.176 236.445 301.966C236.36 301.755 236.316 301.531 236.318 301.304C236.127 300.534 236.891 299.573 238.037 299.573ZM245.678 304.957C246.132 304.957 246.581 304.868 246.999 304.694C247.418 304.52 247.798 304.265 248.118 303.943C248.438 303.621 248.691 303.239 248.862 302.819C249.034 302.399 249.121 301.949 249.118 301.495C249.121 301.041 249.034 300.591 248.862 300.171C248.69 299.751 248.437 299.369 248.118 299.048C247.798 298.726 247.418 298.471 246.999 298.297C246.58 298.123 246.132 298.034 245.678 298.035C245.225 298.034 244.776 298.123 244.357 298.297C243.939 298.471 243.559 298.726 243.239 299.048C242.919 299.369 242.667 299.751 242.495 300.171C242.323 300.591 242.237 301.041 242.24 301.495C242.24 303.418 243.577 304.957 245.678 304.957ZM245.678 299.573C246.634 299.573 247.398 300.342 247.398 301.304C247.4 301.531 247.356 301.756 247.271 301.966C247.185 302.176 247.058 302.367 246.898 302.527C246.738 302.688 246.548 302.816 246.339 302.903C246.129 302.989 245.905 303.034 245.678 303.033C245.452 303.034 245.227 302.989 245.018 302.902C244.809 302.815 244.619 302.688 244.459 302.527C244.299 302.366 244.173 302.175 244.087 301.965C244.001 301.755 243.958 301.53 243.959 301.304C243.769 300.534 244.533 299.573 245.678 299.573ZM253.32 304.957C253.774 304.957 254.223 304.868 254.641 304.694C255.06 304.52 255.44 304.265 255.76 303.943C256.08 303.621 256.332 303.239 256.504 302.819C256.675 302.399 256.762 301.949 256.759 301.495C256.762 301.041 256.675 300.591 256.504 300.171C256.332 299.751 256.079 299.369 255.76 299.048C255.44 298.726 255.06 298.471 254.641 298.297C254.222 298.123 253.774 298.034 253.32 298.035C252.867 298.034 252.418 298.123 252 298.297C251.581 298.471 251.201 298.726 250.881 299.048C250.562 299.369 250.309 299.751 250.137 300.171C249.966 300.591 249.879 301.041 249.882 301.495C249.879 301.949 249.965 302.399 250.137 302.819C250.308 303.239 250.561 303.621 250.881 303.943C251.201 304.265 251.581 304.52 251.999 304.694C252.418 304.868 252.867 304.957 253.32 304.957ZM253.32 299.573C254.276 299.573 255.04 300.342 255.04 301.304C255.041 301.531 254.998 301.755 254.912 301.966C254.826 302.176 254.7 302.367 254.54 302.527C254.38 302.688 254.19 302.816 253.981 302.903C253.771 302.989 253.547 303.034 253.32 303.033C253.094 303.034 252.869 302.989 252.66 302.903C252.451 302.816 252.26 302.688 252.101 302.527C251.941 302.367 251.814 302.176 251.729 301.966C251.643 301.755 251.599 301.531 251.601 301.304C251.41 300.534 252.365 299.573 253.32 299.573ZM260.962 304.957C261.415 304.957 261.864 304.868 262.283 304.694C262.701 304.52 263.081 304.265 263.401 303.943C263.721 303.621 263.974 303.239 264.145 302.819C264.317 302.399 264.403 301.949 264.4 301.495C264.403 301.041 264.316 300.591 264.145 300.171C263.973 299.751 263.72 299.369 263.401 299.048C263.081 298.726 262.701 298.471 262.282 298.297C261.864 298.123 261.415 298.034 260.962 298.035C260.508 298.034 260.059 298.123 259.641 298.297C259.222 298.471 258.842 298.726 258.522 299.048C258.203 299.369 257.95 299.751 257.778 300.171C257.607 300.591 257.52 301.041 257.523 301.495C257.52 301.949 257.607 302.399 257.778 302.819C257.95 303.239 258.202 303.621 258.522 303.943C258.842 304.265 259.222 304.52 259.641 304.694C260.059 304.868 260.508 304.957 260.962 304.957ZM260.962 299.573C261.917 299.573 262.681 300.342 262.681 301.304C262.682 301.531 262.639 301.755 262.553 301.966C262.468 302.176 262.341 302.367 262.181 302.527C262.021 302.688 261.831 302.816 261.622 302.903C261.413 302.989 261.188 303.034 260.962 303.033C260.735 303.034 260.51 302.989 260.301 302.903C260.092 302.816 259.902 302.688 259.742 302.527C259.582 302.367 259.456 302.176 259.37 301.966C259.284 301.755 259.241 301.531 259.242 301.304C259.051 300.534 260.006 299.573 260.962 299.573ZM268.604 304.957C269.057 304.957 269.506 304.868 269.925 304.694C270.343 304.52 270.723 304.265 271.043 303.943C271.363 303.621 271.616 303.239 271.787 302.819C271.959 302.399 272.045 301.949 272.042 301.495C272.045 301.041 271.958 300.591 271.787 300.171C271.615 299.751 271.363 299.369 271.043 299.048C270.723 298.726 270.343 298.471 269.924 298.297C269.506 298.123 269.057 298.034 268.604 298.035C268.15 298.034 267.702 298.123 267.283 298.297C266.864 298.471 266.484 298.726 266.165 299.048C265.845 299.369 265.592 299.751 265.42 300.171C265.249 300.591 265.162 301.041 265.165 301.495C265.162 301.949 265.249 302.399 265.42 302.819C265.592 303.239 265.844 303.621 266.164 303.943C266.484 304.265 266.864 304.52 267.283 304.694C267.701 304.868 268.15 304.957 268.604 304.957ZM268.604 299.573C269.559 299.573 270.323 300.342 270.323 301.304C270.325 301.531 270.281 301.755 270.195 301.966C270.11 302.176 269.983 302.367 269.823 302.527C269.664 302.688 269.473 302.816 269.264 302.903C269.055 302.989 268.83 303.034 268.604 303.033C268.377 303.034 268.153 302.989 267.943 302.903C267.734 302.816 267.544 302.688 267.384 302.527C267.224 302.367 267.098 302.176 267.012 301.966C266.926 301.755 266.883 301.531 266.884 301.304C266.884 300.534 267.648 299.573 268.604 299.573ZM276.245 304.957C276.698 304.957 277.147 304.868 277.566 304.694C277.985 304.52 278.365 304.265 278.685 303.943C279.004 303.621 279.257 303.239 279.429 302.819C279.601 302.399 279.687 301.949 279.684 301.495C279.687 301.041 279.6 300.591 279.429 300.171C279.257 299.751 279.004 299.369 278.684 299.048C278.365 298.726 277.984 298.471 277.566 298.297C277.147 298.123 276.698 298.034 276.245 298.035C275.792 298.034 275.343 298.123 274.924 298.297C274.506 298.471 274.125 298.726 273.806 299.048C273.486 299.369 273.233 299.751 273.062 300.171C272.89 300.591 272.803 301.041 272.806 301.495C272.803 301.949 272.89 302.399 273.061 302.819C273.233 303.239 273.486 303.621 273.805 303.943C274.125 304.265 274.505 304.52 274.924 304.694C275.343 304.868 275.792 304.957 276.245 304.957ZM276.245 299.573C277.2 299.573 277.964 300.342 277.964 301.304C277.966 301.531 277.922 301.755 277.837 301.966C277.751 302.176 277.624 302.367 277.465 302.527C277.305 302.688 277.115 302.816 276.905 302.903C276.696 302.989 276.471 303.034 276.245 303.033C276.018 303.034 275.794 302.989 275.584 302.903C275.375 302.816 275.185 302.688 275.025 302.527C274.865 302.367 274.739 302.176 274.653 301.966C274.567 301.755 274.524 301.531 274.526 301.304C274.526 300.534 275.29 299.573 276.245 299.573ZM283.887 304.957C284.34 304.957 284.789 304.868 285.208 304.694C285.627 304.52 286.007 304.265 286.327 303.943C286.646 303.621 286.899 303.239 287.071 302.819C287.242 302.399 287.329 301.949 287.326 301.495C287.329 301.041 287.242 300.591 287.07 300.171C286.899 299.751 286.646 299.369 286.326 299.048C286.007 298.726 285.626 298.471 285.208 298.297C284.789 298.123 284.34 298.034 283.887 298.035C283.434 298.034 282.985 298.123 282.566 298.297C282.148 298.471 281.768 298.726 281.448 299.048C281.128 299.369 280.875 299.751 280.704 300.171C280.532 300.591 280.445 301.041 280.448 301.495C280.445 301.949 280.532 302.399 280.703 302.819C280.875 303.239 281.128 303.621 281.448 303.943C281.767 304.265 282.147 304.52 282.566 304.694C282.985 304.868 283.434 304.957 283.887 304.957ZM283.887 299.573C284.842 299.573 285.606 300.342 285.606 301.304C285.608 301.531 285.565 301.755 285.479 301.966C285.393 302.176 285.267 302.367 285.107 302.527C284.947 302.688 284.757 302.816 284.547 302.903C284.338 302.989 284.114 303.034 283.887 303.033C283.66 303.034 283.436 302.989 283.227 302.903C283.017 302.816 282.827 302.688 282.667 302.527C282.507 302.367 282.381 302.176 282.295 301.966C282.209 301.755 282.166 301.531 282.168 301.304C282.168 300.534 282.932 299.573 283.887 299.573ZM291.528 304.957C291.982 304.957 292.43 304.868 292.849 304.694C293.268 304.52 293.648 304.265 293.968 303.943C294.287 303.621 294.54 303.239 294.712 302.819C294.883 302.399 294.97 301.949 294.967 301.495C294.97 301.041 294.883 300.591 294.711 300.171C294.54 299.751 294.287 299.369 293.967 299.048C293.648 298.726 293.268 298.471 292.849 298.297C292.43 298.123 291.981 298.034 291.528 298.035C291.075 298.034 290.626 298.123 290.207 298.297C289.789 298.471 289.409 298.726 289.089 299.048C288.769 299.369 288.516 299.751 288.345 300.171C288.173 300.591 288.087 301.041 288.09 301.495C288.087 301.949 288.173 302.399 288.345 302.819C288.516 303.239 288.769 303.621 289.089 303.943C289.409 304.265 289.789 304.52 290.207 304.694C290.626 304.868 291.075 304.957 291.528 304.957ZM291.528 299.573C292.483 299.573 293.248 300.342 293.248 301.304C293.249 301.531 293.206 301.755 293.12 301.966C293.034 302.176 292.908 302.367 292.748 302.527C292.588 302.688 292.398 302.816 292.189 302.903C291.979 302.989 291.755 303.034 291.528 303.033C291.302 303.034 291.077 302.989 290.868 302.903C290.658 302.816 290.468 302.688 290.309 302.527C290.149 302.367 290.022 302.176 289.936 301.966C289.851 301.755 289.807 301.531 289.809 301.304C289.809 300.534 290.573 299.573 291.528 299.573Z" fill="white"/>
<path d="M373.293 285.537C379.979 266.5 383.609 246.311 383.609 225.352C383.609 219.776 383.418 214.2 382.845 208.624C380.799 186.741 374.913 165.391 365.46 145.556V131.712L371.956 125.175C372.529 125.367 373.101 125.367 373.675 125.367C376.541 125.367 378.642 123.059 378.642 120.367C378.642 117.483 376.35 115.368 373.675 115.368C370.809 115.368 368.708 117.676 368.708 120.367C368.708 121.713 369.281 122.867 370.045 123.829L365.46 128.251V110.176H343.108C319.037 80.7577 285.987 59.0297 248.544 49.2244V19.42H160.282V48.6472C157.416 49.4159 154.742 49.9931 152.067 50.9542V0H134.301V57.1075C131.626 58.2601 128.952 59.4145 126.277 60.7604V14.6136H108.51V70.5667C105.836 72.2974 102.97 74.0281 100.487 75.9503V33.8412H82.72V89.9876C74.3138 97.6783 66.6726 105.946 59.7945 114.984H35.1507C30.9472 114.984 27.5086 118.444 27.5086 122.674C27.5086 126.905 30.9472 130.366 35.1507 130.366H49.2875C48.7147 131.136 48.3323 132.097 47.7595 133.058C43.9384 133.443 41.0726 136.712 41.0726 140.557C41.0726 141.711 41.2629 142.864 41.8366 143.826C40.6911 146.133 39.5436 148.44 38.5893 150.748H23.4972C19.2946 150.748 15.8551 154.209 15.8551 158.439C15.8551 162.669 19.2937 166.13 23.4972 166.13H32.4761C32.2849 166.899 31.9024 167.861 31.7121 168.63H7.63926C3.43664 168.63 -0.00195312 172.091 -0.00195312 176.321C-0.00195312 180.551 3.43664 184.012 7.63926 184.012H27.3173C24.2603 197.28 22.541 211.124 22.541 225.16C22.541 230.736 22.7314 236.312 23.3051 241.888C25.0243 261.502 29.991 280.152 37.2506 297.457C33.6208 303.033 31.52 309.764 31.52 317.07C31.52 327.261 35.7226 336.491 42.5998 343.028C49.0954 349.374 57.8831 353.219 67.6261 353.219H68.391C70.4919 353.219 72.4024 353.027 74.3129 352.642C107.363 386.483 153.213 407.25 203.074 407.25H203.838V413.787H162.192C161.619 413.787 161.237 414.172 161.237 414.749V419.94H153.977V431.862H170.407V419.171H162.956V414.941H203.648V419.171H196.197V431.092H212.627V419.171H205.367V414.941H246.058V419.171H238.608V431.092H255.038V419.171H247.779V413.979V413.595C247.588 413.211 247.397 413.018 247.015 413.018H205.559V406.48C210.335 406.48 214.92 406.289 219.696 405.712C261.534 401.866 298.787 383.984 327.252 356.872C332.219 358.795 337.377 359.949 343.108 359.949C366.988 359.949 386.475 340.336 386.475 316.301C386.093 304.379 381.316 293.42 373.293 285.537ZM168.115 421.671V428.785H156.271V421.671H168.115ZM252.746 421.671V428.785H240.901V421.671H252.746ZM371.573 283.806L368.899 278.037C369.854 275.153 370.618 272.461 371.382 269.577L374.439 274.961C373.484 278.037 372.529 280.922 371.573 283.806ZM365.843 279.576L362.977 277.845C368.326 261.309 371.382 243.427 371.382 224.968C371.382 210.739 369.663 196.895 366.224 183.628H369.663C371.765 191.896 373.101 200.549 373.866 209.393C374.439 214.777 374.63 219.969 374.63 225.16C374.63 244.196 371.573 262.463 365.843 279.576ZM375.203 271.884L372.147 266.5C372.911 263.616 373.484 260.732 374.057 257.848L377.496 262.847C376.731 265.923 375.967 269 375.203 271.884ZM378.069 259.771L374.63 254.579C375.203 251.695 375.586 248.811 375.967 245.927L379.788 250.926C379.024 253.81 378.642 256.694 378.069 259.771ZM379.979 247.464L376.158 242.465C376.35 239.581 376.731 236.697 376.731 233.62L380.743 238.235C380.552 241.312 380.361 244.389 379.979 247.464ZM381.126 234.966L376.922 230.16C376.922 228.429 377.114 226.891 377.114 225.16V221.315L381.508 225.737C381.316 228.814 381.126 231.89 381.126 234.966ZM381.316 222.468L376.922 218.046C376.731 215.161 376.541 212.277 376.35 209.201L380.935 213.239C381.126 216.315 381.126 219.392 381.316 222.468ZM380.552 208.817V209.97L375.776 205.932L374.63 197.28L379.597 200.933C379.979 203.433 380.361 206.125 380.552 208.817ZM379.215 197.664L374.248 194.011L372.529 185.358L377.686 188.627C378.069 191.511 378.642 194.588 379.215 197.664ZM376.922 185.358L371.573 182.09C371.192 180.359 370.809 178.821 370.237 177.09V176.129L369.472 174.206C369.472 174.013 369.281 173.821 369.281 173.437L374.63 176.321C375.394 179.397 376.158 182.281 376.922 185.358ZM365.46 152.67L366.224 153.055C367.371 155.939 368.517 158.631 369.663 161.515L365.269 159.592V152.67H365.46ZM365.46 162.093L370.809 164.592C371.765 167.476 372.72 170.36 373.675 173.437L368.135 170.553C367.18 167.861 366.415 165.169 365.269 162.669V162.093H365.46ZM368.517 176.514V182.09H279.683V176.514L283.503 168.053H364.505L368.517 176.514ZM360.875 166.323L359.729 163.438H363.358L364.505 166.323H360.875ZM363.741 112.292V130.366L362.022 132.097V114.406H286.369V159.592H362.022V135.173L363.741 133.443V161.515H284.65V112.292H363.741ZM332.219 123.444C329.353 123.444 327.252 125.751 327.252 128.443C327.252 129.405 327.443 130.366 328.016 131.136L314.835 144.21C314.07 143.826 313.306 143.634 312.542 143.634C309.676 143.634 307.575 145.941 307.575 148.632C307.575 151.517 309.867 153.632 312.542 153.632C315.408 153.632 317.509 151.324 317.509 148.632C317.509 147.479 317.127 146.518 316.554 145.748L329.544 132.865C330.308 133.25 331.264 133.635 332.219 133.635C333.174 133.635 334.13 133.443 334.702 132.865L345.21 144.787C344.828 145.556 344.445 146.325 344.445 147.287C344.445 150.171 346.738 152.286 349.413 152.286C352.279 152.286 354.379 149.978 354.379 147.287C354.379 145.941 353.807 144.787 353.043 143.826L360.111 136.903V157.862H287.898V115.945H360.111V133.635L351.132 142.48C350.559 142.288 349.986 142.095 349.413 142.095C348.458 142.095 347.502 142.48 346.547 142.864L336.231 130.943C336.804 130.174 336.995 129.212 336.995 128.251C337.187 125.751 335.085 123.444 332.219 123.444ZM334.321 110.561L333.938 110.176L339.479 110.561H334.321ZM338.141 108.062L332.028 107.677C330.117 105.562 328.016 103.254 325.915 101.332H332.028C333.938 103.447 336.04 105.754 338.141 108.062ZM329.544 98.8318H323.24C321.167 96.7462 319 94.7574 316.744 92.8718L322.858 92.487C325.342 94.6016 327.443 96.7172 329.544 98.8318ZM320.565 90.1791L314.452 90.5639C312.16 88.6417 309.867 86.9109 307.575 84.9878L313.688 84.2191C315.789 86.3337 318.273 88.2569 320.565 90.1791ZM311.014 82.296L304.709 83.258C302.416 81.5273 299.933 79.7966 297.45 78.2573L303.563 76.9123C306.046 78.6431 308.53 80.5653 311.014 82.296ZM300.697 75.1816L294.584 76.5275C292.101 74.9892 289.617 73.4509 286.943 72.105L292.865 70.3742C295.539 71.9126 298.214 73.4509 300.697 75.1816ZM290.19 68.6444L284.077 70.3742C281.402 69.0283 278.919 67.6824 276.244 66.3365L281.975 64.2219C284.841 65.7602 287.516 67.1061 290.19 68.6444ZM279.109 62.876L273.379 64.9906C270.704 63.8371 268.03 62.6836 265.164 61.53L270.704 59.0297C273.57 60.3756 276.244 61.53 279.109 62.876ZM267.647 57.8762L261.916 60.3756C259.242 59.4145 256.376 58.4534 253.51 57.4914L258.859 54.6072C261.916 55.7616 264.781 56.7227 267.647 57.8762ZM248.544 51.7229C251.027 52.3001 253.51 53.0697 255.994 53.8384L250.453 56.7227C249.88 56.5303 249.116 56.3379 248.544 56.1455V51.7238V51.7229ZM248.544 58.6458C249.116 58.8382 249.88 59.0297 250.453 59.2221V59.4145H250.644C254.466 60.568 258.095 61.7224 261.916 63.0684H262.107C265.737 64.4143 269.558 65.9517 272.996 67.49V67.6824H273.187C276.792 69.4003 280.359 71.1956 283.886 73.067C287.324 74.9892 290.954 76.9123 294.202 79.0269C307.957 87.6797 320.374 98.4479 331.264 110.561H326.87C306.046 87.6797 278.919 70.7591 248.544 62.1063V58.6467V58.6458ZM248.544 64.4143C276.053 72.2974 300.697 87.1034 320.565 106.908C321.712 108.062 322.667 109.215 323.814 110.369H282.739V163.438H357.245L358.392 166.323H282.549L277.964 176.129V183.82H363.932C367.371 197.087 369.09 210.931 369.09 225.16C369.09 243.234 366.224 260.54 360.875 276.884C355.335 274.384 349.222 272.846 342.726 272.846C318.846 272.846 299.36 292.459 299.36 316.494C299.36 329.569 305.091 341.106 314.07 349.181C285.223 375.331 247.206 391.483 205.368 391.868V380.907C225.809 380.523 242.048 363.794 242.048 343.028C242.048 322.07 225.237 305.149 204.413 305.149C183.589 305.149 166.778 322.07 166.778 343.028C166.778 363.602 183.207 380.331 203.458 380.907V392.06H202.884C158.563 392.06 118.253 374.562 88.4516 345.912C97.4296 339.375 103.352 328.799 103.352 316.686H68.2007V280.537H67.4366C60.5586 280.537 54.0639 282.46 48.5235 285.92C41.2638 267.078 37.0612 246.503 37.0612 224.968C37.0612 210.739 38.7805 196.895 42.2182 183.628H113.095C117.298 183.628 120.737 180.167 120.737 175.937C120.737 171.706 117.298 168.245 113.095 168.245H47.1858C47.5682 167.476 47.7595 166.515 48.141 165.745H113.287C117.489 165.745 120.928 162.285 120.928 158.055C120.928 153.825 117.489 150.363 113.287 150.363H54.8279C55.2094 149.595 55.5919 148.632 56.1647 147.864H113.477C117.68 147.864 121.119 144.402 121.119 140.172C121.119 135.942 117.68 132.482 113.477 132.482H64.9524C65.5261 131.712 66.0989 130.751 66.6726 129.981H113.287C117.489 129.981 120.928 126.521 120.928 122.29C120.928 118.06 117.489 114.599 113.287 114.599H78.7077C81.0007 111.907 83.484 109.408 85.9673 106.716C106.217 86.3337 131.817 71.1439 160.473 63.4523V180.551C159.9 180.744 159.327 180.744 158.945 180.935L158.563 181.128H158.372L155.888 181.897C152.259 183.051 148.82 184.204 145.572 185.55C133.918 190.55 126.277 196.51 122.838 203.241L122.456 204.009L121.692 205.548C121.119 207.086 120.737 208.624 120.737 210.163V246.118C120.737 250.926 122.838 255.733 127.041 259.963C128.569 261.502 130.48 263.231 132.581 264.577L126.85 270.346H105.836V271.5H127.232L133.537 265.155C136.975 267.462 140.988 269.577 145.572 271.5C146.718 271.884 147.865 272.461 149.011 272.846C149.202 273.038 149.584 273.038 149.775 273.23C150.73 273.615 151.686 274 152.641 274.192C153.023 274.384 153.214 274.384 153.596 274.576C154.551 274.961 155.506 275.153 156.461 275.538C156.652 275.538 157.035 275.73 157.225 275.73C158.372 276.114 159.327 276.307 160.473 276.691C160.665 276.691 160.855 276.691 161.046 276.884C165.059 277.845 169.07 278.806 173.273 279.383L165.823 286.882H106.027V288.036H166.395L174.802 279.576C176.138 279.768 177.476 279.96 178.623 280.152L179.387 280.344C184.162 280.922 189.13 281.499 194.096 281.69H196.58C199.255 281.883 201.93 281.883 204.604 281.883H210.335C211.863 281.883 213.583 281.69 215.111 281.69H215.684C217.594 281.499 219.696 281.499 221.607 281.306H221.988C226.001 280.922 230.012 280.537 233.833 279.768H234.216C238.036 279.191 241.857 278.422 245.487 277.46H245.678C247.588 277.076 249.308 276.499 251.027 276.114H251.218C252.437 275.758 253.646 275.373 254.847 274.961L256.376 274.384H256.567C256.758 274.384 256.949 274.192 257.331 274.192L271.277 288.228H306.237V287.075H271.659L258.477 273.807C260.197 273.23 261.725 272.654 263.253 271.884C268.794 269.577 273.57 266.885 277.2 264.001L284.841 271.692H306.237V270.538H285.414L278.154 263.231C279.492 262.078 280.638 261.117 281.784 259.963C285.987 255.541 288.088 250.926 288.088 246.118V210.163C287.707 205.74 285.605 201.317 281.784 197.472C277.581 193.05 271.468 189.204 263.253 185.743C258.668 183.82 253.701 182.281 248.544 180.744V64.4143ZM315.789 350.719C316.744 351.487 317.509 352.065 318.464 352.833C291.718 377.253 257.331 393.596 218.55 397.058C214.156 397.443 209.571 397.635 205.177 397.635V394.366C247.779 393.789 286.56 377.445 315.789 350.719ZM240.329 343.412V344.95L222.371 334.374L223.708 333.606L240.329 343.412ZM224.281 333.221L225.618 332.452L226.191 332.067L227.529 331.298L228.101 330.914L229.439 330.144L230.012 329.759L231.35 328.991L231.923 328.606L233.26 327.837L233.833 327.452L235.17 326.684L235.744 326.299C235.935 326.684 236.125 327.068 236.316 327.26C236.699 328.03 237.08 328.798 237.272 329.375C237.463 329.76 237.463 329.952 237.654 330.337C237.844 331.106 238.227 331.682 238.418 332.452C238.418 332.644 238.609 333.028 238.609 333.413C238.8 333.99 238.991 334.567 239.182 335.336C239.182 335.528 239.373 335.913 239.373 336.105C239.565 336.682 239.565 337.259 239.565 337.836C239.565 338.028 239.565 338.412 239.755 338.604C239.755 339.182 239.946 339.758 239.946 340.335V342.835L224.281 333.221ZM240.137 345.719C240.137 346.296 240.137 346.681 239.946 347.257L220.078 335.528L221.416 334.759L240.137 345.719ZM239.946 347.834C239.946 348.411 239.755 348.796 239.755 349.373L218.167 336.682L219.505 335.913L239.946 347.834ZM239.755 350.141C239.755 350.526 239.565 351.103 239.373 351.487L216.258 337.836L217.594 337.066L239.755 350.141ZM222.562 362.447C222.752 362.447 223.135 362.447 223.326 362.256C223.708 362.256 224.09 362.063 224.281 361.871L231.731 366.293C231.35 366.677 231.159 367.062 230.776 367.254L222.562 362.447ZM230.394 368.023C230.203 368.216 230.012 368.6 229.821 368.793L229.439 369.178L218.741 362.832H221.416L230.394 368.023ZM221.988 354.564C222.562 354.756 222.944 354.756 223.135 355.141C223.326 355.333 223.516 355.717 223.516 356.102L220.652 354.372L221.988 354.564ZM219.887 349.18L217.786 348.027H220.46L220.842 348.218C220.652 348.603 220.269 348.988 219.887 349.18ZM225.237 361.678C225.427 361.486 225.618 361.486 225.809 361.294L226.382 360.717L233.26 364.755C233.069 365.14 232.687 365.524 232.495 365.909L225.237 361.678ZM226.765 360.332L227.337 359.179V358.987L234.216 363.024C234.024 363.409 233.642 363.793 233.451 364.178L226.765 360.332ZM227.529 358.409C227.72 358.025 227.72 357.448 227.72 356.871L235.17 361.294C234.98 361.678 234.788 362.063 234.406 362.447L227.529 358.409ZM227.911 356.295V355.91C227.911 355.525 227.911 355.141 227.72 354.756L236.316 359.755L235.744 360.91L227.911 356.295ZM227.529 353.795C227.529 353.603 227.337 353.218 227.337 353.026C226.956 352.257 226.191 351.872 225.237 351.487L223.516 351.103V350.911C223.708 350.719 223.899 350.526 224.281 350.334L224.472 350.141L237.272 357.833L236.699 358.987L227.529 353.795ZM224.854 349.757L225.237 349.373C225.427 349.18 225.809 348.988 226.001 348.796L238.036 355.91C237.844 356.295 237.654 356.871 237.463 357.256L224.854 349.757ZM226.382 348.411L226.573 348.218C226.765 348.027 226.956 347.642 227.146 347.45V347.257L238.8 354.179C238.609 354.564 238.418 355.141 238.227 355.525L226.382 348.411ZM227.146 346.488V345.143V344.95L239.182 352.065C238.991 352.449 238.991 353.026 238.8 353.41L227.146 346.488ZM226.382 344.565H223.708L214.156 338.989L215.493 338.22L226.382 344.565ZM222.562 344.565H219.887L212.437 340.143L213.773 339.374L222.562 344.565ZM218.55 344.565H215.875L210.335 341.296L211.673 340.528L218.55 344.565ZM214.92 344.758C214.92 344.758 214.729 344.95 214.729 345.143V346.296L208.234 342.451L209.571 341.681L214.92 344.758ZM214.729 347.065V347.642C214.729 348.027 214.92 348.218 215.302 348.218H216.639L219.505 349.949C219.123 350.334 218.741 350.526 218.359 350.911L206.323 343.797L207.66 343.027L214.729 347.065ZM217.786 351.103L217.594 351.295V352.449L205.368 345.143V344.181L205.75 343.988L217.786 351.103ZM217.594 353.218C217.594 353.41 217.594 353.603 217.786 353.603C217.977 353.795 218.167 353.795 218.359 353.987L218.932 354.179L223.516 356.871C223.516 357.256 223.326 357.641 223.326 357.833C223.326 358.025 223.135 358.025 223.135 358.217L205.368 347.642V346.104L217.594 353.218ZM222.562 358.602C222.18 358.794 221.797 358.987 221.416 358.987H220.652L205.368 349.949V348.411L222.562 358.602ZM219.505 358.987C218.932 358.987 218.55 358.987 217.977 358.794C217.403 358.794 216.83 358.602 216.258 358.602L205.368 352.257V350.719L219.505 358.987ZM214.92 358.794C214.729 358.794 214.729 358.987 214.729 359.371L214.538 360.14L205.368 354.756V353.218L214.92 358.794ZM214.347 360.717V361.294C214.537 361.486 214.729 361.678 215.111 361.871C215.493 362.063 215.875 362.063 216.448 362.256C216.639 362.256 216.83 362.256 217.022 362.447L228.866 369.37C228.484 369.754 228.101 369.946 227.72 370.331L205.177 356.871V355.333L214.347 360.717ZM227.529 370.907C227.146 371.292 226.765 371.485 226.382 371.869L205.368 359.371V357.641L227.529 370.907ZM225.809 372.062C225.427 372.446 225.045 372.638 224.663 373.023L205.368 361.678V360.14L225.809 372.062ZM223.899 373.408C223.516 373.6 222.944 373.984 222.562 374.176L205.177 363.985V362.447L223.899 373.408ZM221.988 374.561C221.607 374.754 221.033 375.138 220.652 375.33L205.368 366.293V364.755L221.988 374.561ZM219.887 375.715C219.314 375.907 218.932 376.292 218.359 376.484L205.177 368.793V367.254L219.887 375.715ZM217.594 376.676L215.875 377.253L205.177 370.907V369.37L217.594 376.676ZM215.302 377.638C214.674 377.856 214.036 378.049 213.392 378.214L205.368 373.408V371.869L215.302 377.638ZM212.437 378.214C211.863 378.407 211.099 378.407 210.335 378.599L205.177 375.522V373.984L212.437 378.214ZM209.571 378.791C208.807 378.984 208.043 378.984 207.279 378.984L205.368 377.83V376.292L209.571 378.791ZM206.132 379.176H205.368V378.791L206.132 379.176ZM203.649 344.181V379.37C194.096 379.177 185.5 375.139 179.195 368.794C172.7 362.256 168.688 353.219 168.688 343.22C168.688 337.067 170.216 331.299 172.891 326.3L203.649 344.181V344.181ZM203.649 394.366V397.827H202.884C157.035 397.827 114.815 379.369 83.6752 348.988C84.6296 348.411 85.7761 347.834 86.7314 347.257C116.916 376.484 157.99 394.366 203.075 394.366H203.649ZM36.6788 183.82H40.1173C36.87 197.087 34.9595 210.931 34.9595 225.16C34.9595 247.08 39.1621 268.039 46.613 287.266C45.6577 288.036 44.7024 288.613 43.9384 289.382C37.8253 274.192 33.813 257.848 32.2849 240.735C31.7121 235.351 31.5209 230.16 31.5209 224.968C31.7112 210.739 33.4314 196.895 36.6788 183.82ZM32.2849 193.05L28.8463 187.858C29.2279 186.511 29.4191 184.974 29.8016 183.628H33.813L34.1954 184.204C33.4314 187.281 32.8577 190.165 32.2849 193.05ZM109.083 180.167C107.937 179.013 107.364 177.667 107.364 175.937C107.364 174.206 107.937 172.86 109.083 171.706C110.23 170.553 111.566 169.976 113.287 169.976C115.006 169.976 116.343 170.553 117.489 171.706C118.636 172.86 119.209 174.206 119.209 175.937C119.209 177.667 118.636 179.013 117.489 180.167C116.343 181.32 115.006 181.897 113.287 181.897C112.507 181.901 111.734 181.75 111.012 181.453C110.291 181.156 109.635 180.719 109.083 180.167ZM109.083 162.476C107.937 161.323 107.364 159.977 107.364 158.246C107.364 156.516 107.937 155.171 109.083 154.016C110.23 152.863 111.566 152.286 113.287 152.286C115.006 152.286 116.343 152.863 117.489 154.016C118.636 155.171 119.209 156.516 119.209 158.246C119.209 159.977 118.636 161.323 117.489 162.476C116.343 163.631 115.006 164.207 113.287 164.207C111.758 164.207 110.23 163.438 109.083 162.476ZM109.083 144.595C107.937 143.441 107.364 142.095 107.364 140.365C107.364 138.634 107.937 137.288 109.083 136.134C110.23 134.981 111.566 134.404 113.287 134.404C115.006 134.404 116.343 134.981 117.489 136.134C118.636 137.288 119.209 138.634 119.209 140.365C119.209 142.095 118.636 143.441 117.489 144.595C116.343 145.748 115.006 146.325 113.287 146.325C111.758 146.325 110.23 145.556 109.083 144.595ZM109.083 126.713C107.937 125.559 107.364 124.213 107.364 122.483C107.364 120.752 107.937 119.406 109.083 118.253C110.23 117.098 111.566 116.522 113.287 116.522C115.006 116.522 116.343 117.098 117.489 118.253C118.636 119.406 119.209 120.752 119.209 122.483C119.209 124.213 118.636 125.559 117.489 126.713C116.725 127.482 115.579 128.059 114.432 128.251C114.051 128.251 113.668 128.443 113.287 128.443C112.507 128.446 111.734 128.295 111.012 127.999C110.291 127.702 109.635 127.265 109.083 126.713ZM142.516 216.892L142.707 217.085C142.897 217.469 143.088 217.853 143.471 218.43C144.235 219.776 145.381 221.122 146.718 222.468L146.909 222.661C147.292 223.045 147.865 223.429 148.246 224.007C148.437 224.199 148.629 224.391 148.82 224.391L136.402 229.775C133.345 227.852 130.862 225.737 128.76 223.814C124.94 219.776 123.03 215.546 123.03 211.508C123.03 209.585 123.411 207.855 124.175 205.932L141.943 207.471C141.56 208.817 141.178 210.163 141.178 211.508C141.369 213.432 141.752 215.161 142.516 216.892ZM204.413 221.315C221.224 221.315 236.699 224.199 247.588 228.814C236.508 233.428 221.224 236.312 204.413 236.312C187.602 236.312 172.127 233.428 161.237 228.814C172.127 224.199 187.41 221.315 204.413 221.315ZM171.172 223.045V190.742C180.723 188.05 192.186 186.704 204.222 186.704C221.224 186.704 236.508 189.588 247.588 194.203C253.128 196.51 257.523 199.203 260.579 202.279C263.636 205.163 265.164 208.432 265.164 211.508C265.164 214.777 263.636 217.853 260.579 220.737C258.095 223.238 254.657 225.545 250.453 227.468C238.991 222.083 222.562 218.815 204.413 218.815C192.186 219.008 180.915 220.545 171.172 223.045ZM250.072 264.386C248.925 264.386 247.97 265.347 247.97 266.5C247.97 267.654 248.925 268.616 250.072 268.616C250.453 268.616 250.644 268.616 250.836 268.424L254.657 272.269V273.038C251.027 274.192 247.397 275.153 243.576 276.114V243.619C247.397 242.658 251.218 241.697 254.657 240.542V270.538L251.791 267.654C251.982 267.27 252.173 267.078 252.173 266.5C252.173 265.155 251.218 264.386 250.072 264.386ZM243.003 241.12L234.406 235.543H234.597C236.125 235.159 237.463 234.774 238.8 234.39C239.182 234.39 239.373 234.198 239.755 234.198C240.71 233.813 241.857 233.62 242.812 233.236L252.746 238.428C249.689 239.389 246.442 240.351 243.003 241.12ZM209.762 247.464C220.652 247.08 231.35 245.927 241.284 243.811V276.307C231.35 278.422 220.652 279.576 209.762 279.96V247.464ZM209.762 244.965L208.998 238.62H211.099C212.818 238.62 214.729 238.428 216.448 238.235H217.594C219.314 238.043 220.842 237.85 222.562 237.658C222.944 237.658 223.326 237.467 223.708 237.467C225.237 237.274 226.765 237.082 228.293 236.697C228.675 236.697 229.057 236.505 229.439 236.505C230.203 236.312 230.776 236.312 231.541 236.121L240.137 241.697C230.203 243.619 220.078 244.772 209.762 244.965ZM204.413 247.464H207.469V279.96H204.413C201.738 279.96 199.064 279.96 196.389 279.768V247.273C199.064 247.465 201.738 247.464 204.413 247.464ZM196.771 244.965L198.49 238.62H206.705L207.469 244.965H204.604C201.997 245.157 199.378 245.157 196.771 244.965ZM175.374 277.653C164.867 275.922 154.933 273.422 146.527 269.769C142.133 267.846 138.313 265.923 135.256 263.809L147.292 251.695C147.482 251.887 147.865 251.887 148.056 251.887C149.202 251.887 150.157 250.926 150.157 249.772C150.157 248.619 149.202 247.657 148.056 247.657C146.909 247.657 145.954 248.619 145.954 249.772C145.954 250.157 146.145 250.541 146.337 250.926L134.109 263.231C132.009 261.693 130.098 260.156 128.569 258.617C124.749 254.579 122.838 250.349 122.838 246.311V219.969C123.794 221.892 125.13 223.622 126.85 225.352C128.952 227.659 131.817 229.775 135.065 231.89C135.256 232.082 135.447 232.274 135.829 232.274C138.695 234.005 141.943 235.736 145.572 237.082C154.551 240.927 165.059 243.619 176.138 245.35L177.094 245.542V275.922L175.374 277.653ZM177.094 277.46V277.845H176.712L177.094 277.46ZM146.527 234.966C143.662 233.813 141.178 232.467 138.886 231.313L151.112 226.122L151.303 226.314C151.686 226.506 152.067 226.891 152.45 227.083C152.641 227.083 152.831 227.276 152.831 227.276C153.214 227.468 153.405 227.659 153.787 227.852C154.36 228.237 154.933 228.429 155.506 228.814L157.799 229.775C157.799 229.775 157.99 229.775 157.99 229.967C158.18 230.16 158.372 230.16 158.563 230.16C158.945 230.352 159.136 230.352 159.518 230.544C159.709 230.544 159.9 230.736 160.091 230.736C160.665 230.928 161.237 231.121 161.62 231.313H161.81C162.002 231.313 162.193 231.506 162.384 231.506C163.339 231.89 164.295 232.274 165.25 232.467C165.631 232.659 166.014 232.659 166.395 232.852C166.778 232.852 166.969 233.044 167.351 233.044C167.542 233.044 167.733 233.236 167.924 233.236C168.115 233.236 168.497 233.428 168.688 233.428C168.879 233.428 169.261 233.62 169.452 233.62H169.834L170.98 234.005C171.553 234.198 172.127 234.39 172.7 234.39C173.082 234.582 173.655 234.582 174.037 234.774C174.802 234.966 175.566 235.159 176.138 235.351C176.712 235.543 177.094 235.543 177.667 235.736C178.623 235.928 179.387 236.121 180.342 236.312C180.915 236.312 181.487 236.505 181.87 236.505H182.252L177.476 242.658C166.395 241.697 155.506 238.812 146.527 234.966ZM179.387 275.153L186.455 268.039C186.646 268.231 187.028 268.231 187.219 268.231C188.366 268.231 189.321 267.27 189.321 266.116C189.321 264.962 188.366 264.001 187.219 264.001C186.073 264.001 185.117 264.962 185.117 266.116C185.117 266.5 185.309 266.885 185.5 267.27L179.387 273.422V245.734C184.162 246.311 188.938 246.888 193.715 247.08H194.096V279.576C189.13 279.383 184.162 278.806 179.387 278.23V275.153ZM180.532 243.619L185.309 237.467C185.691 237.467 186.264 237.658 186.646 237.658C187.41 237.85 188.366 237.85 189.13 238.043C189.511 238.043 190.085 238.235 190.466 238.235C191.804 238.428 192.951 238.428 194.287 238.62H195.816L194.096 244.965C189.702 244.581 184.927 244.196 180.532 243.619ZM168.879 223.814C165.059 224.968 161.429 226.314 158.372 227.659C156.652 226.891 155.124 225.93 153.787 225.16C153.405 224.968 153.023 224.584 152.641 224.391V224.199C152.45 223.814 152.067 223.429 151.495 223.429C148.437 221.122 146.337 218.815 144.999 216.315V206.701C146.527 203.624 149.584 200.549 153.787 197.856C157.799 195.357 162.957 193.05 169.07 191.319V223.814H168.879ZM258.668 238.812C260.196 238.235 261.534 237.658 263.062 237.082C271.277 233.62 277.39 229.583 281.594 225.352C283.313 223.622 284.65 221.699 285.605 219.969V246.311C285.605 250.349 283.694 254.579 279.874 258.617C278.919 259.771 277.581 260.732 276.244 261.885L265.355 250.926C265.546 250.541 265.737 250.349 265.737 249.772C265.737 248.619 264.781 247.657 263.636 247.657C262.489 247.657 261.534 248.619 261.534 249.772C261.534 250.926 262.489 251.887 263.636 251.887C264.017 251.887 264.208 251.887 264.4 251.695L275.098 262.463C271.659 265.155 267.266 267.462 261.916 269.769C260.197 270.538 258.477 271.115 256.758 271.692V239.389L258.668 238.812ZM162.193 21.1517H246.823V180.551C246.059 180.358 245.487 180.166 244.723 179.973V177.474H235.744V178.243C235.361 178.243 234.98 178.05 234.406 178.05V177.474H231.35C227.529 176.897 223.708 176.513 219.887 176.128H224.281V167.09H215.302V175.743H213.965V167.09H204.986V175.551H203.649V167.09H194.86V175.743H193.523V167.09H184.544V176.128H189.13C185.117 176.513 181.297 176.897 177.476 177.474H174.228V177.859C173.846 177.859 173.464 178.05 172.891 178.05V177.282H163.912V179.781C163.148 179.973 162.575 180.166 161.81 180.358V21.1508H162.193V21.1517ZM204.413 177.86C225.427 177.86 246.442 181.32 262.298 188.05C270.322 191.319 276.244 195.357 280.065 199.203C283.886 203.241 285.796 207.471 285.796 211.508C285.796 215.546 283.886 219.776 280.065 223.814C276.244 227.852 270.322 231.698 262.298 234.966C260.387 235.736 258.095 236.505 255.994 237.274L245.869 231.89C246.633 231.506 247.397 231.313 248.161 230.928C248.352 230.928 248.352 230.736 248.544 230.736C249.308 230.352 250.072 230.16 250.836 229.775H251.027L253.319 228.814C256.949 226.891 260.006 224.776 262.489 222.468C265.737 219.199 267.647 215.546 267.647 211.508C267.647 207.471 265.737 203.817 262.489 200.549C257.523 195.741 249.498 191.704 239.565 188.819C229.63 185.935 217.594 184.397 204.604 184.397C192.377 184.397 181.106 185.935 171.553 188.435L170.599 188.627L161.81 183.051C174.61 179.589 189.511 177.86 204.413 177.86ZM167.159 189.396C166.395 189.588 165.44 189.973 164.676 190.165C164.485 190.165 164.485 190.165 164.295 190.358C162.957 190.934 161.429 191.319 160.282 191.896H160.091C155.888 193.626 152.067 195.741 149.202 198.048C148.82 198.433 148.246 198.818 147.865 199.203L147.482 199.587C147.101 199.779 146.909 200.164 146.527 200.356L146.337 200.549L145.381 201.51C144.999 201.895 144.617 202.279 144.426 202.663C144.044 203.048 143.852 203.433 143.662 204.009V204.202C143.471 204.394 143.471 204.586 143.28 204.779L125.704 203.241C128.952 197.664 136.02 192.088 146.909 187.473C150.539 185.935 154.551 184.589 158.945 183.243L167.159 189.396ZM160.282 51.339V55.5683C159.327 55.7616 158.372 56.1455 157.416 56.3379L160.282 51.339ZM157.416 51.7238L154.36 57.1075C151.495 57.8762 148.629 58.8382 145.954 59.7993L148.629 54.2233C151.495 53.4536 154.551 52.4925 157.416 51.7229V51.7238ZM136.02 1.73072H150.348V10.3834H136.02V1.73072ZM136.02 12.3056H150.348V40.3793H136.02V12.3056ZM136.02 41.9167H150.348V44.417H136.02V41.9167ZM136.02 46.3393H150.348V51.5305C145.572 53.0697 140.796 54.6072 136.02 56.5312V46.3393ZM136.975 58.6458C139.841 57.4914 142.707 56.3379 145.572 55.3768L142.707 61.1452C139.841 62.1073 137.166 63.2599 134.492 64.4143L136.975 58.6458ZM133.918 59.7984L131.626 65.5678C128.952 66.7213 126.277 68.0672 123.602 69.4131L125.513 63.6447C128.188 62.2988 131.053 61.1452 133.918 59.7993V59.7984ZM110.23 16.3443H124.558V35.7643H110.23V16.3443ZM110.23 37.4951H124.558V61.53C119.59 63.8371 115.006 66.5289 110.23 69.2207V37.4951ZM122.647 65.183L120.737 71.1439C118.062 72.4898 115.579 74.0281 113.095 75.5664L114.623 69.6055C117.107 68.0672 119.781 66.5289 122.647 65.183ZM103.734 76.1427C106.217 74.4129 108.892 72.6822 111.566 71.1439L110.038 77.2971C107.555 78.8345 105.072 80.5653 102.587 82.296L103.734 76.1427ZM101.251 78.0658L100.104 84.4115C97.8121 86.1413 95.3287 88.0645 93.0357 89.7952L93.6085 83.6419C96.0928 81.7188 98.5761 79.7966 101.251 78.0658ZM84.4384 35.5719H98.7673V48.4548H84.4384V35.5719ZM84.4384 49.9931H88.0691L84.4393 52.8773V49.9931H84.4384ZM84.4384 55.1844L90.7437 50.1855H94.5638L84.4393 58.261V55.1844H84.4384ZM84.4384 60.3756L97.4296 49.9931H98.7673V52.1077L84.4384 63.4523V60.3756ZM84.4384 65.7602L98.7673 54.4157V57.4923L84.4384 68.8368V65.7602ZM84.4384 70.9515L98.7673 59.6069V62.6836L84.4384 74.0281V70.9515ZM84.4384 76.3351L98.7673 64.9906V68.0672L84.4384 79.4118V76.3351ZM84.4384 81.7188L98.7673 70.3742V73.4509L84.4384 84.7954V81.7188ZM84.4384 86.91L98.7673 75.5655V76.9123C93.7998 80.3729 89.0244 84.2182 84.4384 88.2569V86.9109V86.91ZM84.0577 91.7174C86.3498 89.6028 88.6419 87.6797 91.1252 85.7574L90.5524 92.1022C88.2594 94.0253 86.1586 95.9476 83.8656 98.0631L84.0568 91.7174H84.0577ZM92.6542 93.0633C95.7103 90.3715 98.9586 88.0645 102.015 85.565C105.262 83.2571 108.51 80.9501 111.758 78.8345H111.949V78.6421C115.196 76.5275 118.636 74.6044 122.266 72.6822H122.456V72.4898C125.895 70.5667 129.334 68.8359 132.964 67.2985H133.154V67.1061C136.784 65.5678 140.414 64.0295 144.044 62.6836H144.235V62.4912C147.865 61.1452 151.686 59.7993 155.316 58.8382L155.506 59.0297L155.697 58.8373L160.282 57.6847V61.1452C126.85 70.1818 97.4296 89.218 75.4594 114.791H71.0665C77.7524 107.1 84.8208 99.7938 92.6542 93.0633ZM81.7647 93.8329L81.5735 100.178C79.4717 102.293 77.3709 104.408 75.4603 106.523L75.2691 100.37C77.3709 98.2555 79.4717 95.9476 81.7647 93.8329ZM72.9761 102.678L73.1673 109.023C71.448 110.946 69.92 112.868 68.2007 114.791H67.2454L66.8629 109.792C68.7735 107.292 70.8752 104.985 72.9761 102.678ZM64.7621 112.292L64.9524 114.984H62.6603C63.2526 114.007 63.9581 113.103 64.7621 112.292ZM35.1507 128.443C33.4314 128.443 32.0937 127.867 30.9472 126.713C29.8016 125.559 29.2279 124.213 29.2279 122.483C29.2279 120.752 29.8016 119.406 30.9472 118.253C32.0937 117.098 33.4305 116.522 35.1507 116.522H108.51C106.791 117.868 105.645 119.983 105.645 122.483C105.645 124.79 106.791 126.905 108.51 128.443H35.1507ZM63.8068 130.174C63.2331 130.943 62.6603 131.904 62.0875 132.673H58.0752C58.6489 131.904 59.2217 130.943 59.7945 130.174H63.8068ZM57.12 130.174C56.5472 130.943 55.9744 131.904 55.4007 132.673H52.727L52.1533 130.174H57.12ZM44.5112 136.134C45.6577 134.981 46.9945 134.404 48.7147 134.404H108.51C106.791 135.75 105.645 137.865 105.645 140.365C105.645 142.672 106.791 144.98 108.51 146.325H48.7147C46.9945 146.325 45.6577 145.748 44.5112 144.595C43.3656 143.441 42.7919 142.095 42.7919 140.365C42.7919 138.826 43.3656 137.288 44.5112 136.134ZM53.2998 148.056C52.9174 148.825 52.5349 149.786 52.1533 150.556H48.5235C48.9051 149.786 49.2875 148.825 49.67 148.056H53.2998ZM43.3656 145.748C43.9827 146.366 44.6913 146.885 45.4665 147.287L46.2305 149.786C46.0402 149.978 46.0402 150.363 45.8489 150.556H41.0726C41.8366 149.017 42.6007 147.479 43.3656 145.748ZM23.4972 164.207C21.7779 164.207 20.4402 163.631 19.2946 162.476C18.1481 161.323 17.5744 159.977 17.5744 158.246C17.5744 156.516 18.1481 155.171 19.2946 154.016C20.4402 152.863 21.7779 152.286 23.4972 152.286H108.51C106.791 153.632 105.645 155.747 105.645 158.246C105.645 160.554 106.791 162.669 108.51 164.207H23.4972ZM45.6577 165.938C45.2752 166.707 45.0849 167.669 44.7024 168.437H41.2638C41.6463 167.669 41.8366 166.707 42.2191 165.938H45.6577ZM39.5446 165.938C39.1621 166.707 38.9708 167.669 38.5893 168.437H37.8253L36.6788 165.938H39.5446ZM35.341 168.437H34.0042C34.1945 167.861 34.3867 167.476 34.577 166.899L35.341 168.437ZM7.64016 181.897C5.92087 181.897 4.58404 181.32 3.43754 180.167C2.29104 179.013 1.71825 177.667 1.71825 175.937C1.71825 174.206 2.29104 172.86 3.43754 171.706C4.58404 170.553 5.92087 169.976 7.64016 169.976H108.51C106.791 171.322 105.645 173.437 105.645 175.937C105.645 178.244 106.791 180.359 108.51 181.897H7.64016ZM28.0823 191.126L31.7121 196.51C31.1302 199.429 30.7472 202.384 30.5656 205.355L26.7446 200.356C27.127 197.087 27.5086 194.203 28.0823 191.126ZM26.363 203.624L30.1831 208.624C29.9928 211.508 29.8016 214.585 29.6103 217.469L25.5981 212.854C25.5981 209.778 25.9805 206.701 26.363 203.624ZM25.0253 224.968C25.0253 222.083 25.0253 219.008 25.2156 216.123L29.4191 220.93C29.4191 222.276 29.2288 223.622 29.2288 224.968C29.2288 226.506 29.2288 228.237 29.4191 229.775L25.0253 225.352V224.968ZM25.0253 228.621L29.4191 233.044C29.6094 235.736 29.8016 238.428 29.9928 240.927C29.9928 241.312 29.9928 241.504 30.1831 241.888L25.4068 237.85C25.2165 234.774 25.0262 231.698 25.0262 228.621H25.0253ZM25.7893 241.312V241.12L30.5656 245.157C30.9472 248.042 31.3296 251.118 31.7121 254.002L26.7455 250.349C26.363 247.464 25.9805 244.389 25.7893 241.312ZM27.3173 253.618L32.2849 257.271C32.8577 260.156 33.4314 263.04 34.1954 265.924L29.0375 262.655C28.2726 259.771 27.6998 256.694 27.3173 253.618ZM29.6103 265.924L34.9595 269.385C35.7235 272.269 36.4875 275.153 37.4428 277.845L31.9024 274.961C31.1384 271.884 30.3744 269 29.6094 265.924H29.6103ZM32.8577 278.037L38.3981 280.922C39.3533 283.806 40.3086 286.498 41.4551 289.19L35.9147 286.69C34.7682 283.806 33.813 280.922 32.8577 278.037ZM36.87 289.767L41.4551 291.881C40.4998 292.843 39.7358 293.804 38.9718 294.766C38.2068 293.227 37.634 291.497 36.8691 289.767H36.87ZM68.2007 350.527H67.4366C58.648 350.527 50.434 347.066 44.1296 341.105C37.4428 334.76 33.813 326.107 33.813 316.686C33.813 298.611 47.9507 283.806 65.9077 282.845V318.993H101.059C100.487 327.068 97.2384 334.568 91.5077 340.336C85.3945 346.682 76.9884 350.335 68.2007 350.527ZM77.5612 352.258H83.8656C85.9673 354.372 88.2603 356.296 90.5524 358.218L84.4393 358.603C81.9675 356.691 79.6661 354.568 77.5612 352.258ZM86.7314 360.911L92.8445 360.526C95.1375 362.448 97.4296 364.179 99.9129 366.102L93.7998 366.871C91.5077 364.756 89.0235 362.833 86.7314 360.911ZM96.4743 368.601L102.587 367.833V367.64C105.072 369.371 107.555 371.101 110.038 372.639L103.925 373.985C101.442 372.255 98.7673 370.524 96.4743 368.601ZM106.6 375.908L112.522 374.562V374.37C115.006 375.908 117.68 377.446 120.355 378.792L114.432 380.523C111.758 379.177 109.274 377.446 106.6 375.908ZM117.298 382.253L123.22 380.523V380.331L131.244 384.368L125.513 386.484C122.647 385.137 119.973 383.791 117.298 382.253ZM128.379 387.83L134.109 385.714V385.522C136.784 386.675 139.65 387.83 142.516 388.983L136.784 391.483C133.918 390.329 131.053 389.176 128.379 387.83ZM139.841 392.636L145.381 390.137V389.944L153.978 392.829L148.629 395.713C145.572 394.752 142.707 393.79 139.841 392.636ZM151.495 396.674L156.844 393.79V393.597C159.709 394.367 162.766 395.136 165.631 395.713L160.282 398.982C157.416 398.405 154.36 397.636 151.495 396.674ZM163.53 399.943L168.688 396.674L168.497 396.482C171.363 397.059 174.419 397.636 177.476 398.02L172.509 401.674C169.452 401.289 166.587 400.712 163.53 399.943ZM175.757 402.25L180.723 398.597L180.532 398.405C183.589 398.79 186.646 399.174 189.702 399.366L184.927 403.404C181.849 403.21 178.787 402.824 175.757 402.25ZM188.174 403.788L192.759 399.943L192.568 399.751C195.625 399.943 198.681 400.135 201.738 400.135L197.344 404.366C194.096 404.173 191.04 403.981 188.174 403.788ZM202.884 404.366H200.401L203.458 401.289V404.366H202.884ZM210.335 421.671V428.785H198.49V421.671H210.335ZM199.637 333.607C199.255 333.607 199.064 333.414 199.064 333.029V330.722C199.064 330.337 199.255 330.145 199.637 330.145H202.502V319.763H199.445C199.255 319.763 199.255 319.57 199.255 319.378V318.032V317.455C199.255 317.262 199.445 317.262 199.637 317.07L201.93 316.109C202.311 315.916 202.502 315.916 202.694 315.916H205.559C205.941 315.916 206.132 316.109 206.132 316.494V330.337H209.188C209.38 330.337 209.571 330.337 209.571 330.53C209.571 330.53 209.762 330.722 209.762 330.915V333.222C209.762 333.414 209.762 333.607 209.571 333.607C209.571 333.607 209.38 333.799 209.188 333.799H199.637V333.607ZM205.368 404.366V399.943C208.234 399.943 210.909 399.751 213.773 399.558L209.571 404.173C208.234 404.366 206.705 404.366 205.368 404.366ZM219.314 403.788C217.213 403.981 215.111 404.173 213.009 404.173L217.022 399.751L216.83 399.558C217.594 399.558 218.359 399.558 219.123 399.366C221.416 399.174 223.708 398.79 226.001 398.597L222.18 403.404C221.033 403.404 220.269 403.596 219.314 403.788ZM225.237 403.02L228.866 398.212L228.675 398.02C231.731 397.636 234.788 397.059 237.654 396.482L234.216 401.674C231.35 402.25 228.293 402.635 225.237 403.02ZM246.442 398.982C243.576 399.751 240.519 400.328 237.463 400.904L240.901 395.905L240.71 395.713C243.767 395.136 246.633 394.367 249.689 393.597L246.442 398.982ZM258.287 395.52C255.421 396.482 252.555 397.251 249.498 398.212L252.555 393.021L252.364 392.829C255.285 392.041 258.156 391.078 260.961 389.944L258.287 395.52ZM269.94 391.29C267.074 392.444 264.208 393.597 261.343 394.559L264.017 388.983L263.826 388.791C266.692 387.637 269.558 386.675 272.232 385.329L269.94 391.29ZM281.211 386.291C278.537 387.637 275.671 388.983 272.805 390.137L275.098 384.561H274.907C277.581 383.215 280.447 381.869 283.122 380.523L281.211 386.291ZM292.292 380.331C289.617 381.869 286.943 383.407 284.268 384.753L286.179 378.985H285.987C288.662 377.446 291.337 376.1 293.82 374.37L292.292 380.331ZM302.799 373.793C300.315 375.523 297.641 377.062 295.157 378.792L296.686 372.831H296.494C298.978 371.293 301.461 369.562 303.945 367.833L302.799 373.793ZM312.733 366.487C310.25 368.409 307.957 370.14 305.473 372.063L306.62 365.909H306.429C308.912 364.179 311.205 362.256 313.497 360.333L312.733 366.487ZM322.285 358.41C319.993 360.526 317.7 362.448 315.408 364.371L315.98 358.218H315.789C317.318 356.872 319.037 355.526 320.565 353.988C321.138 354.372 321.712 354.757 322.285 354.95V358.41ZM371.765 345.72C364.314 353.219 353.998 357.834 342.726 357.834C331.455 357.834 321.138 353.219 313.688 345.72C305.972 337.956 301.644 327.447 301.652 316.494C301.652 305.149 306.237 294.766 313.688 287.266C321.138 279.768 331.455 275.153 342.726 275.153C353.998 275.153 364.314 279.768 371.765 287.266C379.48 295.03 383.808 305.54 383.801 316.494C383.801 328.03 379.215 338.221 371.765 345.72Z" fill="white"/>
<path d="M183.4 23.0742H174.421V32.1117H183.4V23.0742ZM181.68 30.3801H176.14V24.9973H181.68V30.381V30.3801ZM193.525 23.0742H184.546V32.1117H193.525V23.0742ZM191.806 30.3801H186.266V24.9973H191.806V30.381V30.3801ZM194.862 32.1117H203.841V23.0742H194.862V32.1117ZM196.582 24.9964H202.122V30.5734H196.582V24.9973V24.9964ZM213.966 32.1117V23.0742H204.987V32.1117H213.966ZM206.707 24.9964H212.247V30.5734H206.707V24.9973V24.9964ZM224.283 32.1117V23.0742H215.304V32.1117H224.283ZM217.023 24.9964H222.564V30.5734H217.023V24.9973V24.9964ZM234.408 23.0742H225.429V32.1117H234.408V23.0742ZM232.688 30.3801H227.148V24.9973H232.688V30.381V30.3801ZM244.724 23.0742H235.745V32.1117H244.724V23.0742ZM243.004 30.3801H237.465V24.9973H243.004V30.381V30.3801ZM164.105 42.4943H173.084V33.4567H164.105V42.4943ZM171.365 35.1875V40.7635H165.824V35.1875H171.365ZM174.421 42.4943H183.4V33.4567H174.421V42.4943ZM181.68 35.1875V40.7635H176.14V35.1875H181.68ZM193.525 42.4943V33.4567H184.546V42.4943H193.525ZM186.266 35.1875H191.806V40.7635H186.266V35.1875ZM203.841 42.4943V33.4567H194.862V42.4943H203.841ZM196.582 35.1866H202.122V40.7626H196.582V35.1866ZM204.987 42.4943H213.966V33.4567H204.987V42.4943ZM212.247 35.1875V40.7635H206.707V35.1875H212.247ZM215.304 42.4943H224.283V33.4567H215.304V42.4943ZM222.564 35.1875V40.7635H217.023V35.1875H222.564ZM225.429 42.4943H234.408V33.4567H225.429V42.4943ZM232.688 35.1875V40.7635H227.148V35.1875H232.688ZM235.745 42.4943H244.724V33.4567H235.745V42.4943ZM237.465 35.1875H243.004V40.7635H237.465V35.1875ZM173.084 52.6844V43.6478H164.105V52.6853H173.084V52.6844ZM165.824 45.5709H171.365V51.147H165.824V45.5709ZM174.421 43.6478V52.6853H183.4V43.6478H174.421ZM181.68 45.5709V51.147H176.14V45.5709H181.68ZM184.546 43.6478V52.6853H193.525V43.6478H184.546ZM191.806 50.9546H186.266V45.3785H191.806V50.9546ZM203.841 43.6478H194.862V52.6853H203.841V43.6478ZM196.582 45.5709H202.122V51.147H196.582V45.5709ZM204.987 43.6478V52.6853H213.966V43.6478H204.987ZM212.247 50.9546H206.707V45.3785H212.247V50.9546ZM215.304 43.6478V52.6853H224.283V43.6478H215.304ZM217.023 50.9546V45.3785H222.564V50.9546H217.023ZM225.429 43.6478V52.6853H234.408V43.6478H225.429ZM232.688 50.9546H227.148V45.3785H232.688V50.9546ZM244.724 43.6478H235.745V52.6853H244.724V43.6478ZM237.465 45.5709H243.004V51.147H237.465V45.5709ZM173.084 54.0312H164.105V63.0687H173.084V54.0312ZM165.824 61.3371V55.7619H171.365V61.338H165.824V61.3371ZM183.4 54.0312H174.421V63.0687H183.4V54.0312ZM176.14 61.3371V55.7619H181.68V61.338H176.14V61.3371ZM193.525 54.0312H184.546V63.0687H193.525V54.0312ZM186.266 61.3371V55.7619H191.806V61.338H186.266V61.3371ZM203.841 54.0312H194.862V63.0687H203.841V54.0312ZM196.582 61.3371V55.7619H202.122V61.338H196.582V61.3371ZM213.966 54.0312H204.987V63.0687H213.966V54.0312ZM224.283 54.0312H215.304V63.0687H224.283V54.0312ZM217.023 61.3371V55.7619H222.564V61.338H217.023V61.3371ZM234.408 54.0312H225.429V63.0687H234.408V54.0312ZM227.148 61.3371V55.7619H232.688V61.338H227.148V61.3371ZM235.745 54.0312V63.0687H244.724V54.0312H235.745ZM243.004 61.3371H237.465V55.7619H243.004V61.338V61.3371ZM164.105 73.2588H173.084V64.2222H164.105V73.2588ZM165.824 66.1444H171.365V71.7205H165.824V66.1444ZM174.421 73.2588H183.4V64.2222H174.421V73.2588ZM176.14 66.1444H181.68V71.7205H176.14V66.1444ZM184.546 73.2588H193.525V64.2222H184.546V73.2588ZM186.266 66.1444H191.806V71.7205H186.266V66.1444ZM194.862 73.2588H203.841V64.2222H194.862V73.2588ZM196.582 66.1444H202.122V71.7205H196.582V66.1444ZM213.966 64.2222H204.987V73.2588H213.966V64.2222ZM215.304 73.2588H224.283V64.2222H215.304V73.2588ZM217.023 66.1444H222.564V71.7205H217.023V66.1444ZM225.429 73.2588H234.408V64.2222H225.429V73.2588ZM227.148 66.1444H232.688V71.7205H227.148V66.1444ZM235.745 73.2588H244.724V64.2222H235.745V73.2588ZM237.465 66.1444H243.004V71.7205H237.465V66.1444ZM164.105 83.6423H173.084V74.6047H164.105V83.6423ZM165.824 76.3364H171.365V81.9115H165.824V76.3355V76.3364ZM174.421 83.6423H183.4V74.6047H174.421V83.6423ZM176.14 76.3364H181.68V81.9115H176.14V76.3355V76.3364ZM184.546 83.6423H193.525V74.6047H184.546V83.6423ZM186.266 76.3364H191.806V81.9115H186.266V76.3355V76.3364ZM194.862 83.6423H203.841V74.6047H194.862V83.6423ZM196.582 76.3364H202.122V81.9115H196.582V76.3355V76.3364ZM213.966 74.6047H204.987V83.6423H213.966V74.6047ZM224.283 74.6047H215.304V83.6423H224.283V74.6047ZM225.429 83.6423H234.408V74.6047H225.429V83.6423ZM227.148 76.3364H232.688V81.9115H227.148V76.3355V76.3364ZM235.745 83.6423H244.724V74.6047H235.745V83.6423ZM237.465 76.3364H243.004V81.9115H237.465V76.3355V76.3364ZM164.105 93.8333H173.084V84.7958H164.105V93.8333ZM165.824 86.7189H171.365V92.295H165.824V86.7189ZM174.421 93.8333H183.4V84.7958H174.421V93.8333ZM176.14 86.7189H181.68V92.295H176.14V86.7189ZM184.546 93.8333H193.525V84.7958H184.546V93.8333ZM186.266 86.7189H191.806V92.295H186.266V86.7189ZM203.841 84.7958H194.862V93.8333H203.841V84.7958ZM213.966 84.7958H204.987V93.8333H213.966V84.7958ZM224.283 84.7958H215.304V93.8333H224.283V84.7958ZM225.429 93.8333H234.408V84.7958H225.429V93.8333ZM227.148 86.7189H232.688V92.295H227.148V86.7189ZM235.745 93.8333H244.724V84.7958H235.745V93.8333ZM237.465 86.7189H243.004V92.295H237.465V86.7189ZM164.105 104.216H173.084V95.1792H164.105V104.216ZM165.824 96.9099H171.365V102.486H165.824V96.9099ZM174.421 104.216H183.4V95.1792H174.421V104.216ZM176.14 96.9099H181.68V102.486H176.14V96.9099ZM193.525 95.1792H184.546V104.216H193.525V95.1792ZM203.841 95.1792H194.862V104.216H203.841V95.1792ZM213.966 95.1792H204.987V104.216H213.966V95.1792ZM224.283 95.1792H215.304V104.216H224.283V95.1792ZM225.429 104.216H234.408V95.1792H225.429V104.216ZM227.148 96.9099H232.688V102.486H227.148V96.9099ZM235.745 104.216H244.724V95.1792H235.745V104.216ZM237.465 96.9099H243.004V102.486H237.465V96.9099ZM164.105 114.407H173.084V105.37H164.105V114.407ZM165.824 107.292H171.365V112.869H165.824V107.292ZM183.4 105.37H174.421V114.407H183.4V105.37ZM193.525 105.37H184.546V114.407H193.525V105.37ZM203.841 105.37H194.862V114.407H203.841V105.37ZM213.966 105.37H204.987V114.407H213.966V105.37ZM224.283 105.37H215.304V114.407H224.283V105.37ZM234.408 105.37H225.429V114.407H234.408V105.37ZM235.745 114.407H244.724V105.37H235.745V114.407ZM237.465 107.292H243.004V112.869H237.465V107.292ZM164.105 124.79H173.084V115.753H164.105V124.79ZM165.824 117.483H171.365V123.06H165.824V117.483ZM183.4 115.753H174.421V124.79H183.4V115.753ZM193.525 115.753H184.546V124.79H193.525V115.753ZM203.841 115.753H194.862V124.79H203.841V115.753ZM213.966 115.753H204.987V124.79H213.966V115.753ZM224.283 115.753H215.304V124.79H224.283V115.753ZM234.408 115.753H225.429V124.79H234.408V115.753ZM244.724 115.753H235.745V124.79H244.724V115.753ZM173.084 125.944H164.105V134.981H173.084V125.944ZM183.4 125.944H174.421V134.981H183.4V125.944ZM193.525 125.944H184.546V134.981H193.525V125.944ZM203.841 125.944H194.862V134.981H203.841V125.944ZM213.966 125.944H204.987V134.981H213.966V125.944ZM224.283 125.944H215.304V134.981H224.283V125.944ZM234.408 125.944H225.429V134.981H234.408V125.944ZM244.724 125.944H235.745V134.981H244.724V125.944ZM173.084 136.327H164.105V145.364H173.084V136.327ZM183.4 136.327H174.421V145.364H183.4V136.327ZM193.525 136.327H184.546V145.364H193.525V136.327ZM203.841 136.327H194.862V145.364H203.841V136.327ZM213.966 136.327H204.987V145.364H213.966V136.327ZM224.283 136.327H215.304V145.364H224.283V136.327ZM234.408 136.327H225.429V145.364H234.408V136.327ZM244.724 136.327H235.745V145.364H244.724V136.327ZM173.084 146.518H164.105V155.555H173.084V146.518ZM183.4 146.518H174.421V155.555H183.4V146.518ZM193.525 146.518H184.546V155.555H193.525V146.518ZM203.841 146.518H194.862V155.555H203.841V146.518ZM213.966 146.518H204.987V155.555H213.966V146.518ZM224.283 146.518H215.304V155.555H224.283V146.518ZM234.408 146.518H225.429V155.555H234.408V146.518ZM244.724 146.518H235.745V155.555H244.724V146.518ZM173.084 156.902H164.105V165.938H173.084V156.902ZM183.4 156.902H174.421V165.938H183.4V156.902ZM193.525 156.902H184.546V165.938H193.525V156.902ZM203.841 156.902H194.862V165.938H203.841V156.902ZM213.966 156.902H204.987V165.938H213.966V156.902ZM224.283 156.902H215.304V165.938H224.283V156.902ZM234.408 156.902H225.429V165.938H234.408V156.902ZM244.724 156.902H235.745V165.938H244.724V156.902ZM173.084 167.092H164.105V176.129H173.084V167.092ZM183.4 167.092H174.421V176.129H183.4V167.092ZM234.408 167.092H225.429V176.129H234.408V167.092ZM244.724 167.092H235.745V176.129H244.724V167.092ZM173.084 23.0742H164.105V32.1117H173.084V23.0742ZM171.365 30.3801H165.824V24.9973H171.365V30.381V30.3801ZM299.362 261.694H298.788C298.598 261.694 298.407 261.886 298.407 261.886V259.579H301.081V258.233H297.069V263.424H298.407C298.407 263.232 298.598 263.04 298.788 263.04C298.98 263.04 298.98 262.848 299.171 262.848C299.553 262.848 299.744 263.04 299.744 263.424V265.732C299.744 266.116 299.744 266.308 299.553 266.308C299.362 266.501 299.362 266.501 299.171 266.501C298.98 266.501 298.788 266.501 298.598 266.308C298.407 266.116 298.407 265.924 298.407 265.54V265.347L296.878 265.54C296.878 266.308 297.069 266.886 297.451 267.27C297.833 267.654 298.407 267.847 298.98 267.847C299.744 267.847 300.317 267.654 300.699 267.27C301.081 266.886 301.273 266.116 301.273 265.155V263.232C301.273 262.655 301.081 262.271 300.89 262.078C300.317 261.886 299.935 261.694 299.362 261.694ZM306.622 266.116V260.348C306.622 259.771 306.43 259.194 306.048 258.81C305.666 258.425 305.093 258.233 304.52 258.233C304.137 258.233 303.947 258.233 303.756 258.425C303.565 258.425 303.182 258.618 302.992 258.81C302.801 259.002 302.609 259.194 302.609 259.386C302.418 259.579 302.418 259.964 302.418 260.348V266.116C302.418 266.501 302.418 266.693 302.609 267.078C302.801 267.27 302.801 267.463 302.992 267.654C303.182 267.847 303.373 268.039 303.756 268.039C303.947 268.039 304.329 268.231 304.52 268.231C304.901 268.231 305.093 268.231 305.284 268.039C305.475 268.039 305.857 267.847 305.857 267.654C306.048 267.463 306.239 267.27 306.239 267.078C306.622 266.693 306.622 266.501 306.622 266.116ZM305.093 266.116C305.093 266.308 305.093 266.501 304.901 266.501C304.711 266.693 304.711 266.693 304.52 266.693C304.329 266.693 304.137 266.693 304.137 266.501C303.947 266.308 303.947 266.308 303.947 266.116V260.156C303.947 259.964 303.947 259.771 304.137 259.771C304.329 259.579 304.329 259.579 304.52 259.579C304.711 259.579 304.901 259.579 304.901 259.771C305.093 259.964 305.093 259.964 305.093 260.156V266.116ZM297.451 276.499V278.23L298.789 277.076V285.152H300.317V275.346H298.789L297.451 276.499ZM306.622 283.229V277.46C306.622 276.884 306.43 276.307 306.048 275.922C305.666 275.538 305.093 275.346 304.52 275.346C304.137 275.346 303.947 275.346 303.756 275.538C303.565 275.538 303.182 275.73 302.992 275.922C302.801 276.115 302.609 276.307 302.609 276.499C302.418 276.692 302.418 277.076 302.418 277.46V283.229C302.418 283.614 302.418 283.806 302.609 284.191C302.801 284.382 302.801 284.575 302.992 284.767C303.182 284.96 303.373 285.152 303.756 285.152C303.947 285.152 304.329 285.345 304.52 285.345C304.901 285.345 305.093 285.345 305.284 285.152C305.475 285.152 305.857 284.96 305.857 284.767C306.048 284.575 306.239 284.382 306.239 284.191C306.622 283.806 306.622 283.421 306.622 283.229ZM305.093 283.229C305.093 283.421 305.093 283.614 304.901 283.614C304.711 283.806 304.711 283.806 304.52 283.806C304.329 283.806 304.137 283.806 304.137 283.614C303.947 283.421 303.947 283.421 303.947 283.229V277.268C303.947 277.076 303.947 276.884 304.137 276.884C304.329 276.692 304.329 276.692 304.52 276.692C304.711 276.692 304.901 276.692 304.901 276.884C305.093 277.076 305.093 277.076 305.093 277.268V283.229ZM110.995 263.039H109.466V265.155H108.13L110.231 258.425H108.702L106.602 265.347V266.693H109.466V268.039H110.995V266.693H111.568V265.155H110.995V263.039ZM112.715 260.348V266.116C112.715 266.501 112.715 266.693 112.906 267.078C113.097 267.27 113.097 267.463 113.288 267.654C113.479 267.847 113.67 268.039 114.052 268.039C114.244 268.039 114.625 268.231 114.816 268.231C115.198 268.231 115.389 268.231 115.581 268.039C115.772 268.039 116.153 267.847 116.153 267.654C116.345 267.463 116.536 267.27 116.536 267.078C116.727 266.886 116.727 266.501 116.727 266.116V260.348C116.727 259.771 116.536 259.194 116.153 258.81C115.772 258.425 115.198 258.233 114.625 258.233C114.244 258.233 114.052 258.233 113.861 258.425C113.67 258.425 113.288 258.618 113.097 258.81C112.906 259.002 112.715 259.194 112.715 259.386V260.348ZM114.244 260.348C114.244 260.156 114.244 259.964 114.434 259.964C114.625 259.771 114.625 259.771 114.816 259.771C115.008 259.771 115.198 259.771 115.198 259.964C115.389 260.156 115.389 260.156 115.389 260.348V266.308C115.389 266.501 115.389 266.693 115.198 266.693C115.008 266.886 115.008 266.886 114.816 266.886C114.625 266.886 114.434 266.886 114.434 266.693C114.244 266.501 114.244 266.501 114.244 266.308V260.348ZM109.085 285.152H110.613V275.346H109.276L107.748 276.499V278.23L109.085 277.076V285.152ZM113.288 284.767C113.479 284.96 113.67 285.152 114.052 285.152C114.243 285.152 114.625 285.345 114.816 285.345C115.198 285.345 115.389 285.345 115.581 285.152C115.772 285.152 116.153 284.96 116.153 284.767C116.345 284.575 116.536 284.382 116.536 284.191C116.727 283.999 116.727 283.614 116.727 283.229V277.46C116.727 276.884 116.536 276.307 116.153 275.922C115.772 275.538 115.198 275.346 114.625 275.346C114.243 275.346 114.052 275.346 113.861 275.538C113.67 275.538 113.288 275.73 113.097 275.922C112.906 276.115 112.715 276.307 112.715 276.499C112.523 276.692 112.523 277.076 112.523 277.46V283.229C112.523 283.614 112.523 283.806 112.715 284.191C113.097 284.382 113.097 284.575 113.288 284.767ZM114.243 277.268C114.243 277.076 114.243 276.884 114.434 276.884C114.625 276.692 114.625 276.692 114.816 276.692C115.008 276.692 115.198 276.692 115.198 276.884C115.389 277.076 115.389 277.076 115.389 277.268V283.229C115.389 283.421 115.389 283.614 115.198 283.614C115.008 283.806 115.008 283.806 114.816 283.806C114.625 283.806 114.434 283.806 114.434 283.614C114.243 283.421 114.243 283.421 114.243 283.229V277.268ZM298.407 179.398H341.582V174.206H298.407V179.398ZM300.126 175.937H339.863V177.475H300.126V175.937Z" fill="white"/>
</g>
<defs>
<clipPath id="clip0">
<rect width="387" height="432" fill="white"/>
</clipPath>
</defs>
</svg>
