<svg width="32" height="32" viewBox="0 0 32 32" fill="none" xmlns="http://www.w3.org/2000/svg">
<path fill-rule="evenodd" clip-rule="evenodd" d="M16.0007 30.6673C7.90047 30.6673 1.33398 24.1008 1.33398 16.0007C1.33398 7.90047 7.90047 1.33398 16.0007 1.33398C24.1008 1.33398 30.6673 7.90047 30.6673 16.0007C30.6673 24.1008 24.1008 30.6673 16.0007 30.6673ZM16.0007 28.0007C22.6281 28.0007 28.0007 22.6281 28.0007 16.0007C28.0007 9.37323 22.6281 4.00065 16.0007 4.00065C9.37323 4.00065 4.00065 9.37323 4.00065 16.0007C4.00065 22.6281 9.37323 28.0007 16.0007 28.0007ZM20.3912 11.0579L13.334 18.1151L10.2768 15.0579L8.39118 16.9435L13.334 21.8863L22.2768 12.9435L20.3912 11.0579Z" fill="black"/>
<path fill-rule="evenodd" clip-rule="evenodd" d="M16.0007 30.6673C7.90047 30.6673 1.33398 24.1008 1.33398 16.0007C1.33398 7.90047 7.90047 1.33398 16.0007 1.33398C24.1008 1.33398 30.6673 7.90047 30.6673 16.0007C30.6673 24.1008 24.1008 30.6673 16.0007 30.6673ZM16.0007 28.0007C22.6281 28.0007 28.0007 22.6281 28.0007 16.0007C28.0007 9.37323 22.6281 4.00065 16.0007 4.00065C9.37323 4.00065 4.00065 9.37323 4.00065 16.0007C4.00065 22.6281 9.37323 28.0007 16.0007 28.0007ZM20.3912 11.0579L13.334 18.1151L10.2768 15.0579L8.39118 16.9435L13.334 21.8863L22.2768 12.9435L20.3912 11.0579Z" fill="#537AFF"/>
</svg>
