<?xml version="1.0" encoding="UTF-8"?> <svg xmlns="http://www.w3.org/2000/svg" width="1057" height="376" viewBox="0 0 1057 376" fill="none"> <path fill-rule="evenodd" clip-rule="evenodd" d="M840.987 117.299L811.168 76.2984L844.715 45.0818L875.931 88.4124L840.987 117.299ZM861.488 295.281L890.841 324.168C899.383 317.645 917.025 304.413 919.262 303.668C921.498 302.922 913.36 284.72 909.012 275.713C902.955 271.519 889.816 263.133 885.716 263.133C881.615 263.133 867.855 284.565 861.488 295.281ZM782.747 267.326V234.246L931.376 108.447L961.195 114.038L966.32 140.13L811.168 274.781L782.747 272.917V267.326Z" fill="#6C49FF"></path> <path d="M965.763 95.6789L981.848 114.064L963.463 130.149L947.378 111.764L965.763 95.6789Z" fill="black"></path> <path d="M783.025 255.559L799.11 273.944L780.725 290.029L764.64 271.644L783.025 255.559Z" fill="black"></path> <path d="M932.045 92.7209L948.131 111.106L783.025 255.559L766.939 237.174L932.045 92.7209Z" fill="black"></path> <path d="M964.216 129.491L980.301 147.876L815.195 292.329L799.11 273.944L964.216 129.491Z" fill="black"></path> <path d="M846.235 32.3899L862.32 50.7748L809.567 96.9288L793.482 78.5438L846.235 32.3899Z" fill="black"></path> <path d="M878.405 69.1598L894.49 87.5447L841.738 133.699L825.653 115.314L878.405 69.1598Z" fill="black"></path> <path d="M894.49 87.5447L876.105 103.63L827.85 48.4752L846.235 32.3899L894.49 87.5447Z" fill="black"></path> <path d="M860.123 117.613L841.738 133.699L793.482 78.5438L811.867 62.4587L860.123 117.613Z" fill="black"></path> <path d="M894.112 243.736L910.198 262.121L857.445 308.275L841.36 289.89L894.112 243.736Z" fill="black"></path> <path d="M926.283 280.506L942.368 298.891L889.615 345.045L873.53 326.66L926.283 280.506Z" fill="black"></path> <path d="M942.368 298.891L923.983 314.976L875.727 259.821L894.112 243.736L942.368 298.891Z" fill="black"></path> <path d="M908 328.96L889.615 345.045L841.36 289.89L859.745 273.805L908 328.96Z" fill="black"></path> <path fill-rule="evenodd" clip-rule="evenodd" d="M524.056 334.268L467.113 278.528L478.261 224.547V91.3553L520.507 46.1758L620.253 41.4817L671.3 94.8756L666.606 289.089L621.427 334.268H524.056ZM607.59 129.041H535.888V249.695H607.59V129.041Z" fill="#6C49FF"></path> <path d="M488.491 56.2576H512.919V80.6858H488.491V56.2576Z" fill="black"></path> <path d="M632.594 56.2576H657.022V80.6858H632.594V56.2576Z" fill="black"></path> <path d="M512.919 31.8293H632.594L632.594 56.2576H512.919L512.919 31.8293Z" fill="black"></path> <path d="M512.919 323.492H632.594V347.921H512.919V323.492Z" fill="black"></path> <path d="M488.491 299.064H512.919L512.919 323.492L488.491 323.492V299.064Z" fill="black"></path> <path d="M632.594 299.064H657.022V323.492L632.594 323.492L632.594 299.064Z" fill="black"></path> <path d="M535.841 249.783H607.467V274.212H535.841V249.783Z" fill="black"></path> <path d="M535.841 104.542H607.467V128.97H535.841V104.542Z" fill="black"></path> <path d="M464.062 80.6858L488.491 80.6858L488.491 300.064H464.062V80.6858Z" fill="black"></path> <path d="M657.022 80.6858L681.451 80.6858V300.064H657.022L657.022 80.6858Z" fill="black"></path> <path d="M607.467 128.97H631.896V249.783L607.467 249.783V128.97Z" fill="black"></path> <path d="M511.413 128.97H535.841V249.783L511.413 249.783V128.97Z" fill="black"></path> <path d="M229.419 250.597L226.601 333.458H397.397V309.22L405.852 289.491H328.627V259.616L397.397 191.41L400.779 73.0364L375.413 40.3428H282.405L229.419 93.329L226.601 132.223L267.186 148.57L275.641 112.494L305.516 90.5105L320.172 100.093V169.99L298.188 191.41L275.641 216.212L248.021 239.887L244.639 250.597H229.419Z" fill="#6C49FF"></path> <path fill-rule="evenodd" clip-rule="evenodd" d="M386.825 31.8293H265.221V56.2576H240.793V80.6858H216.365V152.36H240.793V152.36H287.233L287.233 142.159L287.233 127.932L287.233 103.503L313.004 103.503V176.52H288.576V200.948L264.147 200.948V225.376H288.576V200.948H313.004V176.52H337.432V103.503V80.6858V79.0752H287.233V103.503H262.805V127.932H240.793V80.6858H265.221V56.2576H386.825V201.753H411.254V56.2576L386.825 56.2576V31.8293ZM264.147 226.182H239.719V250.61L215.291 250.61V346.981H228.981H239.719H409.106L409.106 322.552V275.038H404.274H384.678H337.969V250.61H362.397V226.182L386.825 226.182V201.753H362.397V226.182H337.969V250.61L313.541 250.61V275.038V284.971V299.466H384.678V322.552L239.719 322.552V250.61H264.147V226.182Z" fill="black"></path> <path d="M74.5818 260.916L94.1536 284.463L102.41 291.19L118.924 273.453L126.264 236.145L134.826 226.665L167.548 223.912L185.285 208.01L186.814 197.307L171.523 181.711L126.264 174.371L122.594 130.029L101.493 114.433L78.8631 131.864V177.429L34.2149 181.711L17.0896 194.555L12.8083 200.059L29.6278 220.243L74.5818 234.004V260.916Z" fill="#6C49FF"></path> <path d="M24.1364 165.123H76.6716V189.41H24.1364V165.123Z" fill="black"></path> <path d="M126.632 165.123H179.167V189.41H126.632V165.123Z" fill="black"></path> <path d="M179.167 189.41L203.167 189.41V213.41H179.167V189.41Z" fill="black"></path> <path d="M0.136391 189.41L24.1364 189.41V213.41H0.136391V189.41Z" fill="black"></path> <path d="M89.6517 99.895H113.652V123.895H89.6517V99.895Z" fill="black"></path> <path d="M89.6516 278.926H113.652V302.926H89.6516V278.926Z" fill="black"></path> <path d="M24.1364 213.41H76.6716V237.697H24.1364V213.41Z" fill="black"></path> <path d="M125.795 213.41H178.33V237.697H125.795V213.41Z" fill="black"></path> <path d="M65.3646 189.41V123.895L89.6517 123.895L89.6516 189.41H65.3646Z" fill="black"></path> <path d="M113.652 189.41L113.652 123.895L137.939 123.895V189.41H113.652Z" fill="black"></path> <path d="M113.652 278.926L113.652 213.41H137.939V278.925L113.652 278.926Z" fill="black"></path> <path d="M65.3646 278.926V213.411H89.6516L89.6516 278.926H65.3646Z" fill="black"></path> </svg> 