<?xml version="1.0" encoding="UTF-8"?> <svg xmlns="http://www.w3.org/2000/svg" width="931" height="383" viewBox="0 0 931 383" fill="none"> <rect x="24.8047" y="12.6211" width="894" height="346" fill="white"></rect> <rect x="36.8047" y="0.621094" width="870" height="12" fill="black"></rect> <rect x="36.8047" y="358.621" width="870" height="12" fill="black"></rect> <rect x="24.8047" y="12.6211" width="12" height="12" fill="black"></rect> <rect x="906.805" y="12.6211" width="12" height="12" fill="black"></rect> <rect x="906.805" y="346.621" width="12" height="12" fill="black"></rect> <rect x="24.8047" y="346.621" width="12" height="12" fill="black"></rect> <rect x="12.8047" y="346.621" width="12" height="12" fill="#D4D4D4"></rect> <rect x="0.80481" y="346.621" width="12" height="12" fill="#D4D4D4"></rect> <rect x="24.8047" y="358.621" width="12" height="12" fill="#D4D4D4"></rect> <rect x="12.8047" y="358.621" width="12" height="12" fill="#D4D4D4"></rect> <rect x="24.8047" y="370.621" width="882" height="12" fill="#D4D4D4"></rect> <rect x="12.8048" y="346.621" width="322" height="12" transform="rotate(-90 12.8048 346.621)" fill="black"></rect> <rect x="0.80481" y="346.621" width="322" height="12" transform="rotate(-90 0.80481 346.621)" fill="#CCCCCC"></rect> <rect x="918.805" y="346.621" width="322" height="12" transform="rotate(-90 918.805 346.621)" fill="black"></rect> </svg> 