<?xml version="1.0" encoding="UTF-8"?> <svg xmlns="http://www.w3.org/2000/svg" width="1213" height="248" viewBox="0 0 1213 248" fill="none"> <g filter="url(#filter0_d)"> <path d="M20.5 133.5H11V192H20.5V202.5H31.5V213H39.5V223H50.5V233H119.5V223H130.5V213H140.5V202.5H151V192H159.5V133.5H151V123.5H140.5V113H130.5V103H119.5V92H50.5V103H39.5V113H31.5V123.5H20.5V133.5Z" fill="#6C49FF"></path> <path d="M20.5 133.5H11V192H20.5V202.5H31.5V213H39.5V223H50.5V233H119.5V223H130.5V213H140.5V202.5H151V192H159.5V133.5H151V123.5H140.5V113H130.5V103H119.5V92H50.5V103H39.5V113H31.5V123.5H20.5V133.5Z" stroke="#3E1EBD" stroke-width="12"></path> </g> <path d="M79 87.5V40H88.5V30.5H98.5V21H129.5V30.5H139.5V40H149V50H138.5V41H129.5V30.5H128.5H98.5V41H88.5V87.5H79Z" fill="#0E0E0E"></path> <rect x="149" y="30" width="10" height="10" fill="#F2BF00"></rect> <rect x="169" y="30" width="10" height="10" fill="#F2BF00"></rect> <rect x="159" y="20" width="10" height="10" fill="#F2BF00"></rect> <rect x="159" y="40" width="10" height="10" fill="#F2BF00"></rect> <rect x="149" y="40" width="10" height="10" fill="#FEFE41"></rect> <rect x="159" y="30" width="10" height="10" fill="#FEFE41"></rect> <rect x="159" width="10" height="20" fill="#A81917"></rect> <rect x="159" y="50" width="10" height="20" fill="#A81917"></rect> <rect x="169" y="20" width="10" height="10" fill="#A81917"></rect> <rect x="169" y="40" width="10" height="10" fill="#A81917"></rect> <rect x="149" y="20" width="10" height="10" fill="#A81917"></rect> <rect x="139" y="10" width="10" height="10" fill="#A81917"></rect> <rect x="139" y="30" width="10" height="10" fill="#A81917"></rect> <rect x="149" y="50" width="10" height="10" fill="#A81917"></rect> <rect x="179" y="10" width="10" height="10" fill="#A81917"></rect> <rect x="179" y="50" width="10" height="10" fill="#A81917"></rect> <rect x="179" y="30" width="20" height="10" fill="#A81917"></rect> <path d="M55 130H76V169H55V130Z" fill="white"></path> <path d="M85 139V160L46 160L46 139L85 139Z" fill="white"></path> <path d="M237 222V126H205V110H301V126H269V222H237ZM333 222V206H317V158H333V142H413V158H429V190H349V206H413V222H333ZM349 174H397V158H349V174ZM445 222V206H461V190H477V174H461V158H445V142H477V158H493V174H509V158H525V142H557V158H541V174H525V190H541V206H557V222H525V206H509V190H493V206H477V222H445ZM621 222V158H589V142H621V110H653V142H685V158H653V222H621ZM701 222V110H797V126H813V158H797V174H813V206H797V222H701ZM733 158H781V126H733V158ZM733 206H781V174H733V206ZM845 222V206H829V158H845V142H925V158H941V206H925V222H845ZM861 206H909V158H861V206ZM957 222V142H1053V158H1069V222H1037V158H1021V222H989V158H973V222H957ZM1101 222V206H1085V110H1117V142H1181V158H1197V206H1181V222H1101ZM1117 206H1165V158H1117V206Z" fill="black"></path> <defs> <filter id="filter0_d" x="0" y="86" width="165.5" height="162" filterUnits="userSpaceOnUse" color-interpolation-filters="sRGB"> <feFlood flood-opacity="0" result="BackgroundImageFix"></feFlood> <feColorMatrix in="SourceAlpha" type="matrix" values="0 0 0 0 0 0 0 0 0 0 0 0 0 0 0 0 0 0 127 0"></feColorMatrix> <feOffset dx="-5" dy="9"></feOffset> <feColorMatrix type="matrix" values="0 0 0 0 0 0 0 0 0 0 0 0 0 0 0 0 0 0 0.25 0"></feColorMatrix> <feBlend mode="normal" in2="BackgroundImageFix" result="effect1_dropShadow"></feBlend> <feBlend mode="normal" in="SourceGraphic" in2="effect1_dropShadow" result="shape"></feBlend> </filter> </defs> </svg> 