<?xml version="1.0" encoding="UTF-8"?> <svg xmlns="http://www.w3.org/2000/svg" width="512" height="512" viewBox="0 0 512 512" fill="none"><path d="M512 406C512 400.477 507.523 396 502 396H158V310C158 304.477 153.523 300 148 300H52C46.4766 300 42 304.477 42 310V396H10C4.47656 396 0 400.477 0 406C0 411.523 4.47656 416 10 416H14.2383C5.38281 426.188 0 439.473 0 454C0 468.527 5.38281 481.812 14.2383 492H10C4.47656 492 0 496.477 0 502C0 507.523 4.47656 512 10 512H502C507.523 512 512 507.523 512 502C512 496.477 507.523 492 502 492H497.762C506.617 481.812 512 468.527 512 454C512 439.473 506.617 426.188 497.762 416H502C507.523 416 512 411.523 512 406V406ZM76.1445 396L100 372.141L123.855 396H76.1445ZM138 381.855L114.145 358L138 334.141V381.855ZM100 343.855L76.1445 320H123.859L100 343.855ZM85.8555 358L62 381.855V334.141L85.8555 358ZM148 416H212.238C203.383 426.188 198 439.473 198 454C198 468.527 203.383 481.812 212.238 492H101.762C110.617 481.812 116 468.527 116 454C116 439.473 110.617 426.188 101.762 416H148ZM218 454C218 433.047 235.047 416 256 416C276.953 416 294 433.047 294 454C294 474.953 276.953 492 256 492C235.047 492 218 474.953 218 454V454ZM299.762 416H410.238C401.383 426.188 396 439.473 396 454C396 468.527 401.383 481.812 410.238 492H299.762C308.617 481.812 314 468.527 314 454C314 439.473 308.617 426.188 299.762 416ZM20 454C20 433.047 37.0469 416 58 416C78.9531 416 96 433.047 96 454C96 474.953 78.9531 492 58 492C37.0469 492 20 474.953 20 454ZM492 454C492 474.953 474.953 492 454 492C433.047 492 416 474.953 416 454C416 433.047 433.047 416 454 416C474.953 416 492 433.047 492 454Z" fill="#6C49FF"></path><path d="M256 444C253.371 444 250.789 445.07 248.93 446.93C247.07 448.789 246 451.371 246 454C246 456.629 247.07 459.211 248.93 461.07C250.789 462.93 253.371 464 256 464C258.629 464 261.211 462.93 263.07 461.07C264.93 459.211 266 456.629 266 454C266 451.371 264.93 448.789 263.07 446.93C261.211 445.07 258.629 444 256 444Z" fill="#6C49FF"></path><path d="M454 464C456.629 464 459.211 462.93 461.07 461.07C462.93 459.211 464 456.629 464 454C464 451.371 462.93 448.789 461.07 446.93C459.211 445.07 456.629 444 454 444C451.371 444 448.789 445.07 446.93 446.93C445.07 448.789 444 451.371 444 454C444 456.629 445.07 459.211 446.93 461.07C448.789 462.93 451.371 464 454 464Z" fill="#6C49FF"></path><path d="M58 444C55.3711 444 52.7891 445.07 50.9297 446.93C49.0703 448.789 48 451.371 48 454C48 456.629 49.0703 459.211 50.9297 461.07C52.7891 462.93 55.3711 464 58 464C60.6289 464 63.2109 462.93 65.0703 461.07C66.9297 459.211 68 456.629 68 454C68 451.371 66.9297 448.789 65.0703 446.93C63.2109 445.07 60.6289 444 58 444Z" fill="#FF9F05"></path><path d="M263.199 65.0703C265.059 63.2109 266.129 60.6289 266.129 58C266.129 55.3672 265.059 52.7891 263.199 50.9297C261.34 49.0703 258.762 48 256.129 48C253.488 48 250.922 49.0703 249.059 50.9297C247.191 52.7891 246.129 55.3672 246.129 58C246.129 60.6289 247.191 63.2109 249.059 65.0703C250.922 66.9297 253.488 68 256.129 68C258.762 68 261.34 66.9297 263.199 65.0703Z" fill="#6C49FF"></path><path d="M100 28C97.3711 28 94.7891 29.0703 92.9297 30.9297C91.0703 32.7891 90 35.3672 90 38C90 40.6289 91.0703 43.2109 92.9297 45.0703C94.7891 46.9297 97.3711 48 100 48C102.629 48 105.211 46.9297 107.07 45.0703C108.93 43.2109 110 40.6289 110 38C110 35.3711 108.93 32.7891 107.07 30.9297C105.211 29.0703 102.629 28 100 28Z" fill="#6C49FF"></path><path d="M502 0H10C4.47656 0 0 4.47656 0 10V58C0 63.5234 4.47656 68 10 68H54.1992C55.1289 72.5664 59.1641 76 64 76H90V125.023L15.3828 181.438C12.8828 183.328 11.4141 186.281 11.4141 189.414V262.336C11.4141 267.855 15.8906 272.336 21.4141 272.336C26.9375 272.336 31.4141 267.855 31.4141 262.336V194.391L100 142.535L168.586 194.391V262.332C168.586 267.855 173.062 272.332 178.586 272.332C184.109 272.332 188.586 267.855 188.586 262.332V189.414C188.586 186.281 187.117 183.328 184.617 181.438L110 125.023V76H136C140.84 76 144.871 72.5664 145.801 68H216.332C221.855 68 226.332 63.5234 226.332 58C226.332 52.4766 221.855 48 216.332 48H146V20H368.172V48H297C291.477 48 287 52.4766 287 58C287 63.5234 291.477 68 297 68H368.371C369.297 72.5625 373.332 76 378.172 76H404.172V125.023L329.555 181.438C327.055 183.328 325.586 186.281 325.586 189.414V255C325.586 258.988 327.953 262.594 331.613 264.18L356.172 274.805V298C356.172 303.523 360.648 308 366.172 308H462.172C467.691 308 472.172 303.523 472.172 298V274.93L496.766 264.16C500.406 262.566 502.758 258.973 502.758 255V189.414C502.758 186.281 501.285 183.328 498.785 181.438L424.172 125.023V76H450.172C455.008 76 459.043 72.5664 459.969 68H502C507.523 68 512 63.5234 512 58V10C512 4.47656 507.523 0 502 0V0ZM376.172 226.141L400.027 250L376.172 273.855V226.141ZM414.172 264.141L438.027 288H390.312L414.172 264.141ZM428.312 250L452.172 226.145V273.859L428.312 250ZM414.172 235.855L390.312 212H438.027L414.172 235.855ZM482.758 248.461L472.172 253.098V202C472.172 196.477 467.695 192 462.172 192H366.172C360.648 192 356.172 196.477 356.172 202V253.012L345.586 248.43V194.391L414.172 142.535L482.758 194.391V248.461ZM440.172 56H388.172V20H440.172V56ZM20 20H54V48H20V20ZM74 20H126V56H74V20ZM492 48H460.172V20H492V48Z" fill="#6C49FF"></path><path d="M407.102 45.0703C408.961 46.9297 411.539 48 414.172 48C416.801 48 419.379 46.9297 421.238 45.0703C423.102 43.2109 424.172 40.6289 424.172 38C424.172 35.3672 423.102 32.7891 421.238 30.9297C419.379 29.0703 416.801 28 414.172 28C411.539 28 408.961 29.0703 407.102 30.9297C405.238 32.7891 404.172 35.3672 404.172 38C404.172 40.6289 405.238 43.2109 407.102 45.0703Z" fill="#6C49FF"></path><path d="M235.402 294.496C235.402 300.02 239.879 304.496 245.402 304.496H328.406C333.93 304.496 338.406 300.02 338.406 294.496C338.406 288.973 333.93 284.496 328.406 284.496H245.402C239.879 284.496 235.402 288.973 235.402 294.496Z" fill="#6C49FF"></path><path d="M203.898 284.5C201.27 284.5 198.691 285.559 196.828 287.43C194.969 289.289 193.898 291.859 193.898 294.5C193.898 297.129 194.969 299.699 196.828 301.57C198.691 303.43 201.27 304.5 203.898 304.5C206.531 304.5 209.109 303.43 210.969 301.57C212.828 299.699 213.898 297.129 213.898 294.5C213.898 291.859 212.828 289.289 210.969 287.43C209.109 285.559 206.531 284.5 203.898 284.5Z" fill="#6C49FF"></path><path d="M213.25 254.5C213.25 260.023 217.727 264.5 223.25 264.5H286.902C292.426 264.5 296.902 260.023 296.902 254.5C296.902 248.977 292.426 244.5 286.902 244.5H223.25C217.727 244.5 213.25 248.977 213.25 254.5V254.5Z" fill="#6C49FF"></path></svg> 