<?xml version="1.0" encoding="UTF-8"?> <svg xmlns="http://www.w3.org/2000/svg" width="512" height="512" viewBox="0 0 512 512" fill="none"><path d="M500.769 77.9133C500.795 74.9759 499.659 72.1471 497.608 70.0445L430.826 3.26191C428.733 1.19478 425.899 0.0521739 422.957 0.0897391V0H144.696C138.549 0 133.565 4.98365 133.565 11.1308V200.437L120.721 200.549C117.785 200.591 114.985 201.791 112.929 203.888L14.3364 303.861C12.2881 305.937 11.1371 308.735 11.1309 311.652V445.106C11.1277 448.1 12.3319 450.968 14.47 453.064L58.0571 495.76C60.1388 497.796 62.9364 498.935 65.8487 498.933H65.9604C68.8967 498.891 71.6964 497.691 73.752 495.593L82.3117 486.856C91.3044 492.69 101.8 495.784 112.519 495.76H113.109C120.13 495.682 127.073 494.269 133.566 491.598V500.869C133.566 507.016 138.55 512 144.697 512H489.741C495.888 512 500.871 507.016 500.871 500.869V77.9133H500.769ZM434.087 37.9993L462.87 66.7826H434.087V37.9993ZM123.125 345.044C120.17 345.041 117.335 346.214 115.245 348.304L91.6153 371.934C82.9419 380.598 70.223 383.822 58.4693 380.337L52.1468 401.686C71.7298 407.503 92.9259 402.124 107.365 387.673L127.733 367.304H133.565V465.897C127.76 470.712 120.482 473.394 112.941 473.499C104.069 473.682 95.5065 470.237 89.2331 463.96C87.1983 461.784 84.3068 460.615 81.3308 460.766C78.3945 460.808 75.5948 462.008 73.5392 464.105L65.7475 472.064L33.3914 440.431V316.215L125.506 222.72L133.565 222.698V267.13C133.566 269.769 134.505 272.321 136.215 274.331L158.72 297.26C160.807 299.348 163.638 300.52 166.589 300.52L233.739 300.522V311.496C233.672 322.479 228.319 332.759 219.359 339.11C213.767 342.963 207.139 345.032 200.348 345.043H123.125V345.044ZM478.609 489.738H155.826V367.304H200.348C231.041 367.347 255.957 342.501 256 311.808C256 311.756 256 311.703 256 311.652V300.522C255.963 288.242 246.018 278.298 233.739 278.261H171.186L155.826 262.934V22.2605H411.825V66.7826C411.825 79.0768 421.791 89.0431 434.086 89.0431H478.608V489.738H478.609Z" fill="#6C49FF"></path><path d="M200.348 66.7826H178.087V89.0431H200.348V66.7826Z" fill="#6C49FF"></path><path d="M244.869 66.7826H222.608V89.0431H244.869V66.7826Z" fill="#6C49FF"></path><path d="M434.087 133.565H178.087V155.826H434.087V133.565Z" fill="#6C49FF"></path><path d="M434.087 200.348H178.087V222.608H434.087V200.348Z" fill="#6C49FF"></path><path d="M378.435 66.7826H267.13V89.0431H378.435V66.7826Z" fill="#6C49FF"></path><path d="M389.565 267.13H300.521V289.391H389.565V267.13Z" fill="#6C49FF"></path><path d="M434.087 267.13H411.826V289.391H434.087V267.13Z" fill="#6C49FF"></path><path d="M389.565 333.913H300.521V356.173H389.565V333.913Z" fill="#6C49FF"></path><path d="M434.087 333.913H411.826V356.173H434.087V333.913Z" fill="#6C49FF"></path><path d="M434.087 389.565H178.087V411.825H434.087V389.565Z" fill="#6C49FF"></path></svg> 