<?xml version="1.0" encoding="UTF-8"?> <svg xmlns="http://www.w3.org/2000/svg" width="512" height="512" viewBox="0 0 512 512" fill="none"><path d="M110 284H109.167V277.167C109.167 272.972 108.129 269.016 106.306 265.534C106.315 265.356 106.333 265.18 106.333 265V170.053C106.333 164.531 101.855 160.053 96.333 160.053C90.811 160.053 86.333 164.531 86.333 170.053V252.112C85.564 252.041 84.787 252 84 252H56C42.123 252 30.833 263.29 30.833 277.167V284H30C13.458 284 0 297.458 0 314V362C0 378.542 13.458 392 30 392H110C126.542 392 140 378.542 140 362V314C140 297.458 126.542 284 110 284ZM50.833 277.167C50.833 274.318 53.151 272 56 272H84C86.849 272 89.167 274.318 89.167 277.167V284H50.833V277.167ZM120 362C120 367.514 115.514 372 110 372H30C24.486 372 20 367.514 20 362V348H120V362ZM120 328H20V314C20 308.486 24.486 304 30 304H40.833H99.167H110C115.514 304 120 308.486 120 314V328Z" fill="#6C49FF"></path><path d="M422.74 414.6C420.87 412.729 418.3 411.67 415.67 411.67C413.04 411.67 410.46 412.73 408.59 414.6C406.73 416.46 405.67 419.04 405.67 421.67C405.67 424.3 406.73 426.87 408.59 428.74C410.46 430.599 413.04 431.67 415.67 431.67C418.3 431.67 420.87 430.6 422.74 428.74C424.599 426.87 425.67 424.3 425.67 421.67C425.67 419.04 424.6 416.46 422.74 414.6Z" fill="#6C49FF"></path><path d="M407.667 96H400.097C406.683 87.415 410.611 76.688 410.611 65.057V50.943C410.61 22.854 387.757 0 359.667 0C331.576 0 308.723 22.854 308.723 50.943V65.056C308.723 76.688 312.65 87.414 319.237 95.999H311.668C288.291 95.999 267.73 108.226 256.001 126.61C244.271 108.227 223.71 96 200.333 96H192.764C199.35 87.415 203.278 76.688 203.278 65.057V50.943C203.277 22.854 180.424 0 152.333 0C124.243 0 101.39 22.854 101.39 50.943V65.056C101.39 76.688 105.317 87.414 111.903 95.999H104.333C67.94 95.999 38.333 125.606 38.333 161.999V239.999C38.333 245.521 42.811 249.999 48.333 249.999C53.855 249.999 58.333 245.521 58.333 239.999V161.999C58.333 136.635 78.969 115.999 104.333 115.999H200.333C223.702 115.999 243.042 133.52 245.943 156.112C245.771 158.053 245.667 160.014 245.667 161.999V245.999C245.667 247.846 245.763 249.671 245.933 251.475C243.752 266.513 232.735 278.72 218.333 282.654V262V170.053C218.333 164.531 213.855 160.053 208.333 160.053C202.811 160.053 198.333 164.531 198.333 170.053V252H139C133.478 252 129 256.478 129 262C129 267.522 133.478 272 139 272H198.333V492H162.333V383.082C162.333 377.56 157.855 373.082 152.333 373.082C146.811 373.082 142.333 377.56 142.333 383.082V492H106.333V415.667C106.333 410.145 101.855 405.667 96.333 405.667C90.811 405.667 86.333 410.145 86.333 415.667V502C86.333 507.522 90.811 512 96.333 512H208.333C213.855 512 218.333 507.522 218.333 502V303.119C233.889 300.403 247.33 291.477 256 278.987C264.67 291.476 278.111 300.403 293.667 303.119V502C293.667 507.522 298.145 512 303.667 512H415.667C421.189 512 425.667 507.522 425.667 502V461C425.667 455.478 421.189 451 415.667 451C410.145 451 405.667 455.478 405.667 461V492H369.667V383.082C369.667 377.56 365.189 373.082 359.667 373.082C354.145 373.082 349.667 377.56 349.667 383.082V492H313.667V272H373C378.522 272 383 267.522 383 262C383 256.478 378.522 252 373 252H313.667V170.053C313.667 164.531 309.189 160.053 303.667 160.053C298.145 160.053 293.667 164.531 293.667 170.053V262V282.655C279.265 278.721 268.248 266.514 266.067 251.476C266.237 249.672 266.333 247.847 266.333 246V162C266.333 160.015 266.229 158.054 266.057 156.113C268.958 133.52 288.299 116 311.667 116H407.667C433.031 116 453.667 136.636 453.667 162V240C453.667 245.522 458.145 250 463.667 250C469.189 250 473.667 245.522 473.667 240V162C473.667 125.607 444.06 96 407.667 96ZM183.277 65.056C183.277 82.119 169.395 95.999 152.333 95.999C135.271 95.999 121.39 82.119 121.39 65.057V50.943C121.39 33.881 135.271 20 152.333 20C169.395 20 183.277 33.881 183.277 50.943V65.056ZM390.61 65.056C390.61 82.119 376.729 96 359.667 96C342.605 96 328.723 82.119 328.723 65.057V50.943C328.723 33.88 342.605 20 359.667 20C376.729 20 390.61 33.881 390.61 50.943V65.056V65.056Z" fill="#6C49FF"></path><path d="M482 284H481.167V277.167C481.167 263.29 469.877 252 456 252H428C427.213 252 426.436 252.041 425.667 252.112V170.053C425.667 164.531 421.189 160.053 415.667 160.053C410.145 160.053 405.667 164.531 405.667 170.053V265C405.667 265.18 405.685 265.356 405.694 265.534C403.871 269.016 402.833 272.972 402.833 277.167V284H402C385.458 284 372 297.458 372 314V362C372 378.542 385.458 392 402 392H482C498.542 392 512 378.542 512 362V314C512 297.458 498.542 284 482 284ZM422.833 277.167C422.833 274.318 425.151 272 428 272H456C458.849 272 461.167 274.318 461.167 277.167V284H422.833V277.167V277.167ZM492 362C492 367.514 487.514 372 482 372H402C396.486 372 392 367.514 392 362V348H492V362ZM492 328H392V314C392 308.486 396.486 304 402 304H412.833H471.167H482C487.514 304 492 308.486 492 314V328Z" fill="#6C49FF"></path></svg> 