<?xml version="1.0" encoding="UTF-8"?> <svg xmlns="http://www.w3.org/2000/svg" width="3628" height="2239" viewBox="0 0 3628 2239" fill="none"> <path d="M1008.47 998.893H1039.03V1125.86H1008.47V998.893Z" fill="#272645"></path> <path d="M960.264 1077.66L960.264 1047.09L1087.23 1047.09V1077.66L960.264 1077.66Z" fill="#272645"></path> <path d="M1106.88 119.429H1128.24V208.144H1106.88V119.429Z" fill="#272645"></path> <path d="M1073.2 174.465L1073.2 153.108L1161.92 153.108V174.465L1073.2 174.465Z" fill="#272645"></path> <path d="M2492.68 388.947H2523.25V515.916H2492.68V388.947Z" fill="#272645"></path> <path d="M2444.48 467.715L2444.48 437.148L2571.45 437.148V467.715L2444.48 467.715Z" fill="#272645"></path> <path d="M2492.68 1512.23H2523.25V1639.2H2492.68V1512.23Z" fill="#272645"></path> <path d="M2444.48 1591L2444.48 1560.43L2571.45 1560.43V1591L2444.48 1591Z" fill="#272645"></path> <path d="M1241.39 1928.91H1258.11V1998.36H1241.39V1928.91Z" fill="#272645"></path> <path d="M1215.03 1971.99L1215.03 1955.27L1284.48 1955.27V1971.99L1215.03 1971.99Z" fill="#272645"></path> <path d="M57.6404 1958.24H74.3607V2027.69H57.6404V1958.24Z" fill="#272645"></path> <path d="M31.2738 2001.32L31.2738 1984.6L100.727 1984.6V2001.32L31.2738 2001.32Z" fill="#272645"></path> <path d="M1944.34 1690.4H1962.2V1764.61H1944.34V1690.4Z" fill="#272645"></path> <path d="M1916.17 1736.44L1916.17 1718.57L1990.38 1718.57V1736.44L1916.17 1736.44Z" fill="#272645"></path> <path d="M391.254 1590.09H414.9V1688.31H391.254V1590.09Z" fill="#272645"></path> <path d="M353.965 1651.02L353.965 1627.37L452.189 1627.37V1651.02L353.965 1651.02Z" fill="#272645"></path> <path d="M3397.69 1209.91H3421.34V1308.14H3397.69V1209.91Z" fill="#272645"></path> <path d="M3360.4 1270.85L3360.4 1247.2L3458.63 1247.2V1270.85L3360.4 1270.85Z" fill="#272645"></path> <path d="M558.165 473.55H578.564V558.282H558.165V473.55Z" fill="#272645"></path> <path d="M525.999 526.115L525.999 505.717L610.73 505.717V526.115L525.999 526.115Z" fill="#272645"></path> <path d="M1911.7 1006.03H1927.83V1073.04H1911.7V1006.03Z" fill="#272645"></path> <path d="M1886.25 1047.6L1886.25 1031.47L1953.27 1031.47V1047.6L1886.25 1047.6Z" fill="#272645"></path> <path d="M1753.7 418.923H1769.84V485.94H1753.7V418.923Z" fill="#272645"></path> <path d="M1728.26 460.498L1728.26 444.365L1795.28 444.365V460.498L1728.26 460.498Z" fill="#272645"></path> <path d="M2731.29 972.518H2747.42V1039.53H2731.29V972.518Z" fill="#272645"></path> <path d="M2705.85 1014.09L2705.85 997.959L2772.86 997.959V1014.09L2705.85 1014.09Z" fill="#272645"></path> <path d="M3022.59 1876.1H3038.72V1943.11H3022.59V1876.1Z" fill="#272645"></path> <path d="M2997.15 1917.67L2997.15 1901.54L3064.17 1901.54V1917.67L2997.15 1917.67Z" fill="#272645"></path> <path d="M3585.44 2171.38H3601.58V2238.39H3585.44V2171.38Z" fill="#272645"></path> <path d="M3560 2212.95L3560 2196.82L3627.02 2196.82V2212.95L3560 2212.95Z" fill="#272645"></path> <path d="M3318.83 208.145H3334.96V275.161H3318.83V208.145Z" fill="#272645"></path> <path d="M3293.39 249.72L3293.39 233.586L3360.4 233.586V249.72L3293.39 249.72Z" fill="#272645"></path> <path d="M25.6438 0.777344H41.7775V67.794H25.6438V0.777344Z" fill="#272645"></path> <path d="M0.202302 42.3524L0.202301 26.2188L67.219 26.2188V42.3524L0.202302 42.3524Z" fill="#272645"></path> <path d="M59.1521 1028.87H75.2858V1095.89H59.1521V1028.87Z" fill="#272645"></path> <path d="M33.7106 1070.44L33.7106 1054.31L100.727 1054.31V1070.44L33.7106 1070.44Z" fill="#272645"></path> </svg> 