<?xml version="1.0" encoding="UTF-8"?> <svg xmlns="http://www.w3.org/2000/svg" width="512" height="512" viewBox="0 0 512 512" fill="none"><path d="M33.0322 264.258H247.742V148.645H33.0322V264.258ZM49.5484 165.161H231.226V247.742H49.5484V165.161Z" fill="#6C49FF"></path><path d="M49.5483 338.581H99.0967V289.032H49.5483V338.581ZM66.0645 305.548H82.5806V322.064H66.0645V305.548Z" fill="#6C49FF"></path><path d="M115.613 338.581H165.161V289.032H115.613V338.581ZM132.129 305.548H148.645V322.064H132.129V305.548Z" fill="#6C49FF"></path><path d="M181.677 338.581H231.226V289.032H181.677V338.581ZM198.194 305.548H214.71V322.064H198.194V305.548Z" fill="#6C49FF"></path><path d="M49.5483 404.645H99.0967V355.097H49.5483V404.645ZM66.0645 371.613H82.5806V388.129H66.0645V371.613Z" fill="#6C49FF"></path><path d="M115.613 404.645H165.161V355.097H115.613V404.645ZM132.129 371.613H148.645V388.129H132.129V371.613Z" fill="#6C49FF"></path><path d="M181.677 404.645H231.226V355.097H181.677V404.645ZM198.194 371.613H214.71V388.129H198.194V371.613Z" fill="#6C49FF"></path><path d="M49.5483 470.71H99.0967V421.161H49.5483V470.71ZM66.0645 437.678H82.5806V454.194H66.0645V437.678Z" fill="#6C49FF"></path><path d="M115.613 470.71H165.161V421.161H115.613V470.71ZM132.129 437.678H148.645V454.194H132.129V437.678Z" fill="#6C49FF"></path><path d="M181.677 470.71H231.226V421.161H181.677V470.71ZM198.194 437.678H214.71V454.194H198.194V437.678Z" fill="#6C49FF"></path><path d="M214.71 214.71H198.194V231.226H214.71V214.71Z" fill="#6C49FF"></path><path d="M181.677 214.71H132.129V231.226H181.677V214.71Z" fill="#6C49FF"></path><path d="M198.193 49.5483H82.5806V66.0645H198.193V49.5483Z" fill="#6C49FF"></path><path d="M198.194 82.5806H181.677V99.0967H198.194V82.5806Z" fill="#6C49FF"></path><path d="M412.903 153.03V115.613C412.903 101.954 401.788 90.8387 388.129 90.8387H280.774V82.5806C280.774 64.3634 265.959 49.5484 247.742 49.5484H231.226V0H49.5484V49.5484H33.0323C14.815 49.5484 0 64.3634 0 82.5806L0.0412903 339.406L14.3195 482.263C16.0124 499.208 30.1502 512 47.1948 512H233.579C250.616 512 264.754 499.208 266.446 482.254L278.305 363.355H324.426C322.89 372.397 322.065 381.547 322.065 390.714C322.065 423.077 331.553 454.416 349.506 481.346L355.097 489.728V512H371.613V484.724L363.247 472.171C347.111 447.975 338.581 419.799 338.581 390.714C338.581 378.723 340.059 366.741 342.957 355.089L354.841 307.555L355.097 232.77C355.097 222.803 363.19 214.71 373.149 214.71C382.241 214.71 389.938 221.506 391.069 230.524L405.611 346.839H428.552L437.933 262.4L412.903 220.68V174.542L495.484 243.357V320.999L454.466 476.862L454.194 512H470.71V480.033L511.727 324.17L512 235.611L412.903 153.03ZM66.0645 16.5161H82.5806V33.0323H99.0968V16.5161H115.613V33.0323H132.129V16.5161H148.645V33.0323H165.161V16.5161H181.677V33.0323H198.194V16.5161H214.71V115.613H66.0645V16.5161ZM250.013 480.611C249.171 489.092 242.102 495.484 233.579 495.484H47.1948C38.6725 495.484 31.6036 489.092 30.7613 480.611L16.5161 338.581V82.5806C16.5161 73.4803 23.9236 66.0645 33.0323 66.0645H49.5484V115.613H33.0323V132.129H247.742V115.613H231.226V66.0645H247.742C256.842 66.0645 264.258 73.4803 264.258 82.5806L264.299 337.755L250.013 480.611ZM396.387 207.302C390.202 201.662 382.051 198.194 373.149 198.194C354.089 198.194 338.581 213.702 338.581 232.77V304.533L327.994 346.839H279.948L280.774 338.581V156.903V107.355H388.129C392.687 107.355 396.387 111.054 396.387 115.613V207.302ZM420.905 266.116L416.793 303.121L412.903 272.037V252.788L420.905 266.116Z" fill="#6C49FF"></path><path d="M313.806 189.936C319.628 189.936 325.318 188.367 330.323 185.427C335.327 188.367 341.017 189.936 346.839 189.936C365.056 189.936 379.871 175.121 379.871 156.903C379.871 138.686 365.056 123.871 346.839 123.871C341.017 123.871 335.327 125.44 330.323 128.38C325.318 125.44 319.628 123.871 313.806 123.871C295.589 123.871 280.774 138.686 280.774 156.903C280.774 175.121 295.589 189.936 313.806 189.936ZM313.806 140.387C317.812 140.387 321.709 141.915 324.798 144.69L330.323 149.669L335.847 144.69C338.936 141.915 342.834 140.387 346.839 140.387C355.939 140.387 363.355 147.795 363.355 156.903C363.355 166.012 355.939 173.419 346.839 173.419C342.834 173.419 338.936 171.892 335.847 169.117L330.323 164.137L324.798 169.117C321.709 171.892 317.812 173.419 313.806 173.419C304.698 173.419 297.29 166.012 297.29 156.903C297.29 147.795 304.698 140.387 313.806 140.387Z" fill="#6C49FF"></path><path d="M313.806 206.452H297.29V297.29H313.806V206.452Z" fill="#6C49FF"></path><path d="M313.806 313.806H297.29V330.323H313.806V313.806Z" fill="#6C49FF"></path></svg> 