<svg width="138" height="19" viewBox="0 0 138 19" fill="none" xmlns="http://www.w3.org/2000/svg">
<path d="M0 12.2373C0 16.2448 2.75518 18.9821 6.70904 18.9821C9.24953 18.9821 11.1638 18.0876 12.3804 16.4953L10.7702 14.903C9.87571 15.9586 8.51601 16.4953 6.83428 16.4953C4.52637 16.4953 2.88041 14.7778 2.88041 12.2373C2.88041 9.71469 4.52637 7.97928 6.83428 7.97928C8.44444 7.96139 9.71469 8.5339 10.645 9.48211L12.2194 7.63936C11.0028 6.22599 9.12429 5.45669 6.70904 5.45669C2.75518 5.45669 0 8.21187 0 12.2373ZM14.1337 12.2194C14.1337 16.2269 16.9605 18.9821 21.0932 18.9821C25.1902 18.9821 28.0348 16.2269 28.0348 12.2194C28.0348 8.19397 25.1902 5.45669 21.0932 5.45669C16.9605 5.45669 14.1337 8.19397 14.1337 12.2194ZM17.0141 12.2373C17.0141 9.6968 18.678 7.9435 21.0932 7.9435C23.4727 7.9435 25.1544 9.6968 25.1544 12.2373C25.1544 14.8315 23.4727 16.5847 21.0932 16.5847C18.678 16.5847 17.0141 14.8315 17.0141 12.2373ZM31.1657 18.8748H34.0461V0.304143H31.1657V18.8748ZM38.5546 18.8748H41.435V0.304143H38.5546V18.8748ZM44.5659 12.2373C44.5659 16.2448 47.2674 18.9821 51.3644 18.9821C53.6723 18.9821 55.5866 18.1591 56.8748 16.7279L55.3541 15.0998C54.3701 16.1017 53.0461 16.6563 51.597 16.6563C49.4859 16.6563 47.9115 15.3682 47.4642 13.3286H57.5367C57.8766 8.51601 55.9802 5.45669 51.2928 5.45669C47.339 5.47458 44.5659 8.21187 44.5659 12.2373ZM47.4105 11.2175C47.7326 9.08851 49.2175 7.7646 51.3286 7.7646C53.4934 7.7646 54.9247 9.07062 55.032 11.2175H47.4105ZM59.29 12.2373C59.29 16.2448 62.0452 18.9821 65.9991 18.9821C68.5217 18.9821 70.4539 18.0876 71.6525 16.4953L70.0603 14.903C69.1478 15.9586 67.806 16.4953 66.1243 16.4953C63.8164 16.4953 62.1704 14.7778 62.1704 12.2373C62.1704 9.71469 63.8164 7.97928 66.1243 7.97928C67.7345 7.96139 69.0047 8.5339 69.935 9.48211L71.5094 7.63936C70.2749 6.22599 68.3964 5.45669 65.9991 5.45669C62.0452 5.45669 59.29 8.21187 59.29 12.2373ZM73.3164 8.21187H75.1949V15.1177C75.1949 17.855 76.9124 19 78.9162 19C80.0433 19 81.1525 18.6601 82.2081 18.0339L81.4746 15.8333C80.7053 16.209 80.0791 16.4058 79.4708 16.4058C78.5763 16.4058 78.0396 15.9765 78.0396 14.5989V8.21187H81.9755V6.06497H78.0396V2.39736H75.1949V6.06497H73.3164V8.21187ZM83.5141 8.21187H85.3927V15.1177C85.3927 17.855 87.1102 19 89.1139 19C90.2411 19 91.3503 18.6601 92.4058 18.0339L91.6723 15.8333C90.903 16.209 90.2768 16.4058 89.6685 16.4058C88.774 16.4058 88.2373 15.9765 88.2373 14.5989V8.21187H92.1733V6.06497H88.2373V2.39736H85.3927V6.06497H83.5141V8.21187ZM93.694 8.21187H95.5725V15.1177C95.5725 17.855 97.3079 19 99.3117 19C100.439 19 101.548 18.6601 102.586 18.0339L101.87 15.8333C101.083 16.209 100.457 16.4058 99.8663 16.4058C98.9539 16.4058 98.435 15.9765 98.435 14.5989V8.21187H102.371V6.06497H98.435V2.39736H95.5725V6.06497H93.694V8.21187ZM105.001 1.7533C105.001 2.75518 105.717 3.47081 106.683 3.47081C107.631 3.47081 108.347 2.75518 108.347 1.7533C108.347 0.715631 107.631 0 106.683 0C105.717 0 105.001 0.715631 105.001 1.7533ZM105.251 18.8748H108.096V5.56403H105.251V18.8748ZM110.261 5.56403L115.413 18.8748H118.401L123.5 5.56403H120.62L116.97 16.048L113.266 5.56403H110.261ZM124.251 12.2373C124.251 16.2448 126.971 18.9821 131.068 18.9821C133.376 18.9821 135.272 18.1591 136.578 16.7279L135.057 15.0998C134.073 16.1017 132.75 16.6563 131.3 16.6563C129.189 16.6563 127.615 15.3682 127.168 13.3286H137.24C137.58 8.51601 135.684 5.45669 130.996 5.45669C127.042 5.47458 124.251 8.21187 124.251 12.2373ZM127.114 11.2175C127.436 9.08851 128.921 7.7646 131.014 7.7646C133.197 7.7646 134.628 9.07062 134.735 11.2175H127.114Z" fill="black"/>
</svg>
