<svg width="12" height="8" viewBox="0 0 12 8" fill="none" xmlns="http://www.w3.org/2000/svg">
<path d="M11.1405 1.1041L10.2052 0.188735C10.0775 0.063698 9.92077 0 9.73757 0C9.55437 0 9.39768 0.063698 9.26993 0.188735L4.75497 4.61457L2.73252 2.62813C2.60477 2.5031 2.44808 2.4394 2.26488 2.4394C2.08168 2.4394 1.92499 2.5031 1.79723 2.62813L0.859531 3.5435C0.731772 3.66853 0.666687 3.82188 0.666687 4.00118C0.666687 4.18048 0.731772 4.33383 0.859531 4.45886L3.35204 6.8959L4.28733 7.81127C4.41509 7.9363 4.57177 8 4.75497 8C4.93817 8 5.09486 7.9363 5.22262 7.81127L6.15791 6.8959L11.1405 2.02182C11.2683 1.89679 11.3334 1.74344 11.3334 1.56414C11.3334 1.38248 11.2707 1.2315 11.1405 1.1041Z" fill="#219653"/>
</svg>
