<svg width="59" height="40" viewBox="0 0 59 40" fill="none" xmlns="http://www.w3.org/2000/svg">
<path d="M38.7867 40C27.7514 40 18.7867 31.0353 18.7867 20C18.7867 8.96471 27.7514 0 38.7867 0C49.822 0 58.7867 8.96471 58.7867 20C58.7867 31.0353 49.7985 40 38.7867 40Z" fill="#D9CBC1" style="mix-blend-mode:multiply"/>
<path d="M36.9647 38.5882C47.2307 38.5882 55.5529 30.2659 55.5529 19.9999C55.5529 9.73392 47.2307 1.41168 36.9647 1.41168C26.6987 1.41168 18.3765 9.73392 18.3765 19.9999C18.3765 30.2659 26.6987 38.5882 36.9647 38.5882Z" fill="#FFB800"/>
<path d="M40.6117 32.7294V24.5882L36.847 20.8235L40.6352 17.0118V8.84705L28.7058 20.8L40.6117 32.7294Z" fill="#EB9D00"/>
<path d="M39.4588 31.553V23.3883L35.6941 19.6236L39.4823 15.8118V7.67065L27.5529 19.6236L39.4588 31.553Z" fill="#B05311"/>
<path d="M51.6471 18.2824C51.6471 27.3412 44.2823 34.6824 35.2471 34.6824C31.1059 34.6824 27.3176 33.1294 24.4235 30.5647C27.4353 33.9765 31.8118 36.1412 36.7294 36.1412C45.7882 36.1412 53.1294 28.7765 53.1294 19.7412C53.1294 14.8471 50.9647 10.4471 47.5529 7.4353C50.0706 10.3529 51.6471 14.1177 51.6471 18.2824Z" fill="#FFDD38"/>
<path d="M22.1647 21.5999C22.1647 12.541 29.5294 5.19985 38.5647 5.19985C42.7058 5.19985 46.4941 6.75279 49.3882 9.3175C46.3764 5.90573 42 3.74103 37.0823 3.74103C28.0235 3.74103 20.6823 11.1057 20.6823 20.141C20.6823 25.0351 22.847 29.4351 26.2588 32.4469C23.7176 29.5528 22.1647 25.7646 22.1647 21.5999Z" fill="#EB9D00"/>
<path d="M36.9647 40C25.9294 40 16.9647 31.0353 16.9647 20C16.9647 8.96471 25.9294 0 36.9647 0C48 0 56.9647 8.96471 56.9647 20C56.9647 31.0353 47.9765 40 36.9647 40ZM36.9647 2.18824C27.1294 2.18824 19.153 10.1882 19.153 20C19.153 29.8353 27.153 37.8118 36.9647 37.8118C46.8 37.8118 54.7765 29.8118 54.7765 20C54.7765 10.1647 46.7765 2.18824 36.9647 2.18824Z" fill="#B05311"/>
<path d="M28.3294 38.5882C38.5954 38.5882 46.9177 30.2659 46.9177 19.9999C46.9177 9.73392 38.5954 1.41168 28.3294 1.41168C18.0634 1.41168 9.74121 9.73392 9.74121 19.9999C9.74121 30.2659 18.0634 38.5882 28.3294 38.5882Z" fill="#FFB800"/>
<path d="M31.9765 32.7294V24.5882L28.2118 20.8235L32.0001 17.0118V8.84705L20.0471 20.8L31.9765 32.7294Z" fill="#EB9D00"/>
<path d="M30.8471 31.553V23.3883L27.0824 19.6236L30.8706 15.8118V7.67065L18.9177 19.6236L30.8471 31.553Z" fill="#B05311"/>
<path d="M43.0118 18.2824C43.0118 27.3412 35.6471 34.6824 26.6118 34.6824C22.4706 34.6824 18.6824 33.1294 15.7883 30.5647C18.8 33.9765 23.1765 36.1412 28.0941 36.1412C37.153 36.1412 44.4942 28.7765 44.4942 19.7412C44.4942 14.8471 42.3294 10.4471 38.9177 7.4353C41.4353 10.3529 43.0118 14.1177 43.0118 18.2824Z" fill="#FFDD38"/>
<path d="M13.5294 21.5999C13.5294 12.541 20.8941 5.19985 29.9294 5.19985C34.0706 5.19985 37.8588 6.75279 40.7529 9.3175C37.7412 5.90573 33.3647 3.74103 28.4471 3.74103C19.3882 3.74103 12.0471 11.1057 12.0471 20.141C12.0471 25.0351 14.2118 29.4351 17.6235 32.4469C15.0824 29.5528 13.5294 25.7646 13.5294 21.5999Z" fill="#EB9D00"/>
<path d="M28.3295 40C17.2942 40 8.32947 31.0353 8.32947 20C8.32947 8.96471 17.2942 0 28.3295 0C39.3648 0 48.3295 8.96471 48.3295 20C48.3295 31.0353 39.3412 40 28.3295 40ZM28.3295 2.18824C18.4942 2.18824 10.5177 10.1882 10.5177 20C10.5177 29.8353 18.5177 37.8118 28.3295 37.8118C38.1648 37.8118 46.1412 29.8118 46.1412 20C46.1412 10.1647 38.1412 2.18824 28.3295 2.18824Z" fill="#B05311"/>
<path d="M21.8118 40C10.7765 40 1.81177 31.0353 1.81177 20C1.81177 8.96471 10.7765 0 21.8118 0C32.8471 0 41.8118 8.96471 41.8118 20C41.8118 31.0353 32.8235 40 21.8118 40Z" fill="#D9CBC1" style="mix-blend-mode:multiply"/>
<path d="M20 38.5882C30.266 38.5882 38.5883 30.2659 38.5883 19.9999C38.5883 9.73392 30.266 1.41168 20 1.41168C9.73404 1.41168 1.4118 9.73392 1.4118 19.9999C1.4118 30.2659 9.73404 38.5882 20 38.5882Z" fill="#FFB800"/>
<path d="M23.6471 32.7294V24.5882L19.8824 20.8235L23.6706 17.0118V8.84705L11.7177 20.8L23.6471 32.7294Z" fill="#EB9D00"/>
<path d="M22.5177 31.553V23.3883L18.753 19.6236L22.5412 15.8118V7.67065L10.5883 19.6236L22.5177 31.553Z" fill="#B05311"/>
<path d="M34.6824 18.2824C34.6824 27.3412 27.3177 34.6824 18.2824 34.6824C14.1412 34.6824 10.353 33.1294 7.45886 30.5647C10.4706 33.9765 14.8471 36.1412 19.7647 36.1412C28.8236 36.1412 36.1647 28.7765 36.1647 19.7412C36.1647 14.8471 34 10.4471 30.5883 7.4353C33.1294 10.3529 34.6824 14.1177 34.6824 18.2824Z" fill="#FFDD38"/>
<path d="M5.2 21.5999C5.2 12.541 12.5647 5.19985 21.6 5.19985C25.7412 5.19985 29.5294 6.75279 32.4235 9.3175C29.4118 5.90573 25.0353 3.74103 20.1177 3.74103C11.0588 3.74103 3.71765 11.1057 3.71765 20.141C3.71765 25.0351 5.88236 29.4351 9.29412 32.4469C6.75294 29.5528 5.2 25.7646 5.2 21.5999Z" fill="#EB9D00"/>
<path d="M20 40C8.96471 40 0 31.0353 0 20C0 8.96471 8.96471 0 20 0C31.0353 0 40 8.96471 40 20C40 31.0353 31.0353 40 20 40ZM20 2.18824C10.1647 2.18824 2.18824 10.1882 2.18824 20C2.18824 29.8353 10.1882 37.8118 20 37.8118C29.8353 37.8118 37.8118 29.8118 37.8118 20C37.8118 10.1647 29.8353 2.18824 20 2.18824Z" fill="#B05311"/>
</svg>
