<svg width="192" height="57" viewBox="0 0 192 57" fill="none" xmlns="http://www.w3.org/2000/svg">
<g clip-path="url(#clip0)">
<path d="M190.777 50.269C190.777 50.9864 190.636 51.6967 190.362 52.3594C190.087 53.022 189.685 53.624 189.178 54.131C188.672 54.638 188.07 55.04 187.408 55.3139C186.746 55.5879 186.036 55.7286 185.32 55.7278H6.73112C5.28365 55.7294 3.89484 55.1551 2.87012 54.1314C1.8454 53.1078 1.26869 51.7185 1.2668 50.269V6.73692C1.26869 5.28686 1.84518 3.89681 2.86969 2.872C3.8942 1.84718 5.28299 1.27137 6.73112 1.271H185.319C186.035 1.271 186.745 1.41239 187.407 1.68709C188.069 1.9618 188.671 2.36444 189.178 2.87201C189.685 3.37959 190.087 3.98216 190.361 4.64531C190.635 5.30846 190.776 6.01919 190.776 6.73692L190.777 50.269Z" fill="white"/>
<path d="M185.32 56.9987H6.73109C4.94798 56.9983 3.23783 56.2896 1.97591 55.0281C0.713991 53.7667 0.0033699 52.0555 -2.28882e-05 50.27L-2.28882e-05 6.73926C0.00261498 4.95287 0.712767 3.24047 1.97465 1.97771C3.23653 0.714941 4.94709 0.00492575 6.73109 0.00341797L185.318 0.00341797C187.102 0.00567809 188.812 0.715935 190.074 1.97854C191.336 3.24114 192.046 4.9531 192.05 6.73926V50.27C192.052 53.9814 189.028 56.9987 185.32 56.9987Z" fill="#A6A6A6"/>
<path d="M190.777 50.269C190.777 50.9864 190.636 51.6967 190.362 52.3594C190.087 53.022 189.685 53.624 189.178 54.131C188.672 54.638 188.07 55.04 187.408 55.3139C186.746 55.5879 186.036 55.7286 185.32 55.7278H6.73112C5.28365 55.7294 3.89484 55.1551 2.87012 54.1314C1.8454 53.1078 1.26869 51.7185 1.2668 50.269V6.73692C1.26869 5.28686 1.84518 3.89681 2.86969 2.872C3.8942 1.84718 5.28299 1.27137 6.73112 1.271H185.319C186.035 1.271 186.745 1.41239 187.407 1.68709C188.069 1.9618 188.671 2.36444 189.178 2.87201C189.685 3.37959 190.087 3.98216 190.361 4.64531C190.635 5.30846 190.776 6.01919 190.776 6.73692L190.777 50.269Z" fill="black"/>
<path d="M42.8833 28.2C42.842 23.6063 46.6396 21.3715 46.8132 21.2674C44.6625 18.1276 41.329 17.6986 40.1575 17.6644C37.3578 17.3693 34.642 19.3419 33.2158 19.3419C31.7611 19.3419 29.5648 17.6929 27.1978 17.7413C24.1517 17.7883 21.3022 19.5543 19.7393 22.2965C16.5139 27.8878 18.9194 36.1045 22.0096 40.6241C23.5553 42.839 25.3616 45.309 27.7258 45.222C30.0388 45.128 30.9028 43.7469 33.694 43.7469C36.4596 43.7469 37.2709 45.222 39.6821 45.1664C42.1645 45.128 43.7274 42.943 45.219 40.7096C47.0054 38.174 47.7228 35.6741 47.7512 35.5458C47.6943 35.5259 42.9317 33.7044 42.8833 28.2ZM38.3285 14.6912C39.5725 13.1334 40.4237 11.014 40.1874 8.86328C38.3869 8.9431 36.1351 10.1104 34.8384 11.634C33.6912 12.9766 32.6663 15.1772 32.9311 17.2467C34.9537 17.3978 37.0304 16.2248 38.3285 14.6912Z" fill="white"/>
<path d="M185.32 0.00244141H89.6623L127.13 56.9977H185.32C187.103 56.9962 188.814 56.2866 190.075 55.0244C191.337 53.7623 192.048 52.0506 192.051 50.2647V6.73828C192.048 4.95201 191.338 3.23983 190.076 1.97715C188.814 0.714461 187.104 0.0043255 185.32 0.00244141V0.00244141Z" fill="url(#paint0_linear)"/>
<path d="M76.3851 44.9041H73.1526L71.382 39.3327H65.2273L63.5406 44.9041H60.3936L66.4927 25.9365H70.2589L76.3851 44.9041ZM70.8482 36.9952L69.2469 32.0424C69.0775 31.5364 68.7587 30.3449 68.2918 28.4692H68.2349C68.047 29.276 67.7467 30.4675 67.3353 32.0424L65.7611 36.9952H70.8482ZM92.0393 37.8974C92.0393 40.2235 91.4088 42.0621 90.1463 43.4118C89.0161 44.6133 87.6112 45.2134 85.9359 45.2134C84.1268 45.2134 82.8259 44.5677 82.0359 43.2736V50.4498H79.0013V35.7225C79.0013 34.2616 78.9628 32.7636 78.8888 31.2272H81.5576L81.727 33.395H81.784C82.796 31.7616 84.3318 30.9449 86.3928 30.9449C88.0041 30.9449 89.3492 31.582 90.4252 32.8577C91.4999 34.1361 92.0393 35.8151 92.0393 37.8974ZM88.9478 38.0086C88.9478 36.6774 88.6489 35.5799 88.0482 34.7148C87.392 33.8155 86.511 33.3651 85.4064 33.3651C84.6577 33.3651 83.9774 33.6159 83.3696 34.1105C82.7604 34.6093 82.3619 35.2607 82.1754 36.0674C82.0921 36.3691 82.0448 36.6796 82.0345 36.9924V39.2743C82.0345 40.2677 82.3391 41.1072 82.9483 41.7941C83.5575 42.4783 84.3489 42.8218 85.3225 42.8218C86.4654 42.8218 87.355 42.3785 87.9913 41.4991C88.6289 40.6169 88.9478 39.4538 88.9478 38.0086ZM107.749 37.8974C107.749 40.2235 107.119 42.0621 105.856 43.4118C104.724 44.6133 103.321 45.2134 101.644 45.2134C99.8351 45.2134 98.5342 44.5677 97.7442 43.2736V50.4498H94.7096V35.7225C94.7096 34.2616 94.6712 32.7636 94.5971 31.2272H97.266L97.4353 33.395H97.4923C98.5029 31.7616 100.039 30.9449 102.101 30.9449C103.711 30.9449 105.056 31.582 106.135 32.8577C107.208 34.1361 107.749 35.8151 107.749 37.8974ZM104.656 38.0086C104.656 36.6774 104.356 35.5799 103.755 34.7148C103.099 33.8155 102.221 33.3651 101.116 33.3651C100.367 33.3651 99.6871 33.6159 99.0765 34.1105C98.4673 34.6093 98.0702 35.2607 97.8837 36.0674C97.7912 36.4437 97.7414 36.7501 97.7414 36.9924V39.2743C97.7414 40.2677 98.0474 41.1072 98.6537 41.7941C99.2629 42.4768 100.054 42.8218 101.031 42.8218C102.175 42.8218 103.065 42.3785 103.7 41.4991C104.337 40.6169 104.656 39.4538 104.656 38.0086ZM125.313 39.5835C125.313 41.1984 124.75 42.511 123.63 43.5244C122.397 44.6304 120.676 45.1849 118.47 45.1849C116.432 45.1849 114.798 44.7915 113.565 44.0033L114.267 41.4706C115.598 42.2602 117.059 42.6536 118.651 42.6536C119.795 42.6536 120.685 42.3942 121.319 41.8796C121.956 41.3637 122.277 40.6739 122.277 39.813C122.277 39.0419 122.011 38.3963 121.489 37.8704C120.964 37.3459 120.095 36.857 118.876 36.408C115.559 35.1695 113.899 33.3579 113.899 30.9749C113.899 29.4185 114.486 28.1443 115.656 27.148C116.826 26.1532 118.377 25.6558 120.307 25.6558C122.031 25.6558 123.467 25.9565 124.607 26.5565L123.846 29.0337C122.773 28.4521 121.561 28.1614 120.206 28.1614C119.136 28.1614 118.296 28.4251 117.696 28.9496C117.19 29.4185 116.934 29.99 116.934 30.6684C116.934 31.4167 117.226 32.0381 117.807 32.5256C118.31 32.9745 119.23 33.4634 120.559 33.9879C122.191 34.6464 123.389 35.4132 124.156 36.294C124.929 37.1748 125.313 38.2737 125.313 39.5835ZM135.372 33.5076H132.028V40.1479C132.028 41.8369 132.617 42.6792 133.798 42.6792C134.34 42.6792 134.79 42.6336 135.146 42.5381L135.23 44.8456C134.632 45.0694 133.845 45.182 132.87 45.182C131.672 45.182 130.735 44.8157 130.059 44.0831C129.386 43.3505 129.047 42.1234 129.047 40.3959V33.5019H127.054V31.2215H129.047V28.7172L132.028 27.8165V31.2215H135.372V33.5076ZM150.435 37.953C150.435 40.0553 149.834 41.7813 148.635 43.131C147.381 44.5207 145.713 45.2134 143.634 45.2134C141.627 45.2134 140.031 44.5478 138.841 43.218C137.651 41.8853 137.056 40.2064 137.056 38.1811C137.056 36.0617 137.671 34.3257 138.897 32.976C140.125 31.6248 141.779 30.9492 143.859 30.9492C145.863 30.9492 147.472 31.6163 148.691 32.9475C149.855 34.2388 150.435 35.9063 150.435 37.953ZM147.289 38.0229C147.289 36.77 147.018 35.6954 146.476 34.796C145.84 33.71 144.929 33.167 143.749 33.167C142.533 33.167 141.601 33.71 140.966 34.796C140.423 35.6954 140.152 36.7886 140.152 38.0799C140.152 39.3341 140.423 40.4116 140.966 41.3081C141.622 42.3942 142.538 42.9372 143.723 42.9372C144.883 42.9372 145.793 42.3828 146.451 41.281C147.008 40.3603 147.289 39.2785 147.289 38.0229ZM160.303 33.8995C159.987 33.8425 159.667 33.8143 159.346 33.8155C158.279 33.8155 157.453 34.2174 156.872 35.0269C156.369 35.7396 156.115 36.6403 156.115 37.7278V44.9041H153.081V35.5343C153.083 34.0986 153.054 32.663 152.992 31.2286H155.636L155.747 33.8454H155.831C156.152 32.946 156.656 32.2206 157.348 31.6775C157.981 31.203 158.75 30.9461 159.541 30.9449C159.822 30.9449 160.075 30.9649 160.3 31.0005L160.303 33.8995ZM173.875 37.4185C173.882 37.8805 173.845 38.3421 173.764 38.7968H164.66C164.694 40.1479 165.135 41.1827 165.981 41.8953C166.748 42.531 167.74 42.8503 168.958 42.8503C170.306 42.8503 171.536 42.6365 172.642 42.2046L173.117 44.3126C171.825 44.877 170.299 45.1578 168.538 45.1578C166.42 45.1578 164.758 44.5335 163.548 43.2878C162.341 42.0407 161.736 40.3646 161.736 38.2652C161.736 36.2042 162.298 34.4868 163.424 33.1171C164.603 31.6547 166.196 30.9236 168.2 30.9236C170.168 30.9236 171.658 31.6547 172.67 33.1171C173.472 34.2758 173.875 35.7125 173.875 37.4185ZM170.981 36.6304C171.002 35.7282 170.803 34.9514 170.392 34.2943C169.866 33.4477 169.058 33.0258 167.975 33.0258C166.983 33.0258 166.174 33.4378 165.559 34.2644C165.054 34.9215 164.754 35.7111 164.661 36.6275L170.981 36.6304Z" fill="white"/>
<path d="M64.3519 19.2308C63.5079 19.2308 62.7777 19.1895 62.1699 19.1197V9.94945C63.02 9.81796 63.879 9.75315 64.7391 9.75561C68.2192 9.75561 69.8219 11.4702 69.8219 14.2652C69.8219 17.4891 67.9289 19.2308 64.3519 19.2308ZM64.8615 10.9315C64.3918 10.9315 63.9918 10.96 63.6602 11.0284V17.9994C63.8395 18.0279 64.184 18.0407 64.6679 18.0407C66.9482 18.0407 68.2463 16.7409 68.2463 14.3065C68.2463 12.1358 67.072 10.9315 64.8615 10.9315ZM74.8165 19.3007C72.8551 19.3007 71.5841 17.8341 71.5841 15.843C71.5841 13.7678 72.8822 12.2883 74.9276 12.2883C76.8605 12.2883 78.16 13.6851 78.16 15.7332C78.16 17.8341 76.8206 19.3007 74.8165 19.3007ZM74.8735 13.3801C73.796 13.3801 73.1057 14.3892 73.1057 15.8002C73.1057 17.1841 73.8102 18.1932 74.8592 18.1932C75.9083 18.1932 76.6128 17.1143 76.6128 15.7717C76.6128 14.4034 75.9225 13.3801 74.8735 13.3801ZM89.3449 12.4266L87.2454 19.1482H85.8775L85.0079 16.2292C84.7916 15.5152 84.6116 14.7907 84.4684 14.0585H84.4399C84.3303 14.7911 84.1225 15.5251 83.9019 16.2292L82.9767 19.1482H81.5946L79.619 12.4266H81.152L81.912 15.622C82.0914 16.3831 82.2423 17.1015 82.3675 17.7799H82.396C82.5056 17.2141 82.6849 16.5071 82.9482 15.6363L83.9019 12.428H85.1175L86.0298 15.5679C86.2505 16.329 86.4298 17.0758 86.5693 17.7813H86.6092C86.7059 17.0901 86.8582 16.3561 87.0646 15.5679L87.8802 12.428L89.3449 12.4266ZM97.0737 19.1482H95.5821V15.2885C95.5821 14.0998 95.1266 13.5041 94.2284 13.5041C93.3445 13.5041 92.7368 14.2652 92.7368 15.1503V19.1482H91.2451V14.3478C91.2451 13.7535 91.2308 13.1164 91.1896 12.4252H92.5019L92.5716 13.4628H92.6129C93.0143 12.7444 93.8285 12.2883 94.7409 12.2883C96.15 12.2883 97.0752 13.3673 97.0752 15.1232L97.0737 19.1482ZM101.187 19.1482H99.6942V9.34229H101.187V19.1482ZM106.626 19.3007C104.666 19.3007 103.394 17.8341 103.394 15.843C103.394 13.7678 104.692 12.2883 106.736 12.2883C108.67 12.2883 109.968 13.6851 109.968 15.7332C109.969 17.8341 108.629 19.3007 106.626 19.3007ZM106.681 13.3801C105.604 13.3801 104.914 14.3892 104.914 15.8002C104.914 17.1841 105.62 18.1932 106.666 18.1932C107.716 18.1932 108.419 17.1143 108.419 15.7717C108.421 14.4034 107.732 13.3801 106.681 13.3801ZM115.849 19.1482L115.741 18.3742H115.701C115.246 18.9971 114.581 19.3007 113.739 19.3007C112.536 19.3007 111.682 18.4569 111.682 17.3224C111.682 15.6634 113.118 14.8054 115.605 14.8054V14.6814C115.605 13.7963 115.136 13.353 114.211 13.353C113.549 13.353 112.969 13.5198 112.458 13.8519L112.154 12.8698C112.775 12.4822 113.549 12.2883 114.459 12.2883C116.212 12.2883 117.098 13.2148 117.098 15.069V17.5447C117.098 18.2232 117.128 18.7491 117.194 19.1496L115.849 19.1482ZM115.644 15.8002C113.988 15.8002 113.156 16.2021 113.156 17.1556C113.156 17.8611 113.585 18.2061 114.18 18.2061C114.938 18.2061 115.644 17.626 115.644 16.8378V15.8002ZM124.341 19.1482L124.271 18.0692H124.23C123.802 18.8845 123.082 19.3007 122.075 19.3007C120.457 19.3007 119.258 17.8754 119.258 15.87C119.258 13.7678 120.501 12.2869 122.198 12.2869C123.096 12.2869 123.732 12.5905 124.091 13.2005H124.121V9.34229H125.614V17.3366C125.614 17.9866 125.629 18.5952 125.669 19.1482H124.341ZM124.121 15.193C124.121 14.2524 123.499 13.4499 122.549 13.4499C121.443 13.4499 120.767 14.4319 120.767 15.8145C120.767 17.1699 121.469 18.0977 122.519 18.0977C123.457 18.0977 124.121 17.2811 124.121 16.3133V15.193ZM135.081 19.3007C133.121 19.3007 131.849 17.8341 131.849 15.843C131.849 13.7678 133.148 12.2883 135.192 12.2883C137.126 12.2883 138.424 13.6851 138.424 15.7332C138.425 17.8341 137.086 19.3007 135.081 19.3007ZM135.136 13.3801C134.06 13.3801 133.37 14.3892 133.37 15.8002C133.37 17.1841 134.074 18.1932 135.122 18.1932C136.172 18.1932 136.875 17.1143 136.875 15.7717C136.878 14.4034 136.188 13.3801 135.136 13.3801ZM146.446 19.1482H144.953V15.2885C144.953 14.0998 144.498 13.5041 143.599 13.5041C142.715 13.5041 142.109 14.2652 142.109 15.1503V19.1482H140.616V14.3478C140.616 13.7535 140.602 13.1164 140.561 12.4252H141.873L141.943 13.4628H141.984C142.384 12.7444 143.199 12.2869 144.11 12.2869C145.52 12.2869 146.446 13.3658 146.446 15.1218V19.1482ZM156.482 13.5468H154.841V16.8107C154.841 17.6417 155.129 18.0564 155.709 18.0564C155.973 18.0564 156.193 18.0279 156.371 17.9866L156.413 19.1211C156.124 19.2323 155.736 19.2878 155.255 19.2878C154.08 19.2878 153.377 18.6379 153.377 16.9361V13.5468H152.397V12.4266H153.377V11.1951L154.841 10.7519V12.4252H156.482V13.5468ZM164.379 19.1482H162.889V15.317C162.889 14.1141 162.435 13.5055 161.535 13.5055C160.762 13.5055 160.042 14.0314 160.042 15.0961V19.1482H158.552V9.34229H160.042V13.3801H160.072C160.542 12.6475 161.222 12.2869 162.09 12.2869C163.511 12.2869 164.379 13.3929 164.379 15.1503V19.1482ZM172.47 16.1465H167.993C168.022 17.4193 168.863 18.1376 170.108 18.1376C170.77 18.1376 171.379 18.0265 171.917 17.8198L172.149 18.8574C171.514 19.1339 170.767 19.2722 169.898 19.2722C167.798 19.2722 166.555 17.9438 166.555 15.8843C166.555 13.8233 167.828 12.2741 169.73 12.2741C171.445 12.2741 172.521 13.5468 172.521 15.4695C172.53 15.6964 172.513 15.9237 172.47 16.1465ZM171.102 15.0819C171.102 14.0443 170.579 13.3117 169.626 13.3117C168.769 13.3117 168.091 14.0585 167.994 15.0819H171.102Z" fill="white"/>
</g>
<defs>
<linearGradient id="paint0_linear" x1="140.855" y1="57.149" x2="140.855" y2="-148.403" gradientUnits="userSpaceOnUse">
<stop stop-color="#1A1A1A" stop-opacity="0.1"/>
<stop offset="0.123" stop-color="#212121" stop-opacity="0.151"/>
<stop offset="0.308" stop-color="#353535" stop-opacity="0.227"/>
<stop offset="0.532" stop-color="#575757" stop-opacity="0.318"/>
<stop offset="0.783" stop-color="#858585" stop-opacity="0.421"/>
<stop offset="1" stop-color="#B3B3B3" stop-opacity="0.51"/>
</linearGradient>
<clipPath id="clip0">
<rect width="192" height="57" fill="white"/>
</clipPath>
</defs>
</svg>
