<svg width="56" height="56" viewBox="0 0 56 56" fill="none" xmlns="http://www.w3.org/2000/svg">
<path d="M17.0664 5.5701C17.4459 5.21227 17.9139 4.94787 18.4287 4.8004C18.9435 4.65294 19.4892 4.62698 20.0173 4.72483C20.5454 4.82269 21.0396 5.04132 21.4558 5.36131C21.872 5.68129 22.1974 6.0927 22.4031 6.55897C22.6088 7.02524 22.6884 7.53193 22.6348 8.03398C22.5813 8.53604 22.3962 9.01791 22.096 9.43676C21.7959 9.85561 21.39 10.1985 20.9144 10.4348C20.4388 10.6712 19.9083 10.7938 19.3699 10.7917H4.66666M21.9675 28.2633C22.347 28.6211 22.815 28.8855 23.3298 29.033C23.8446 29.1804 24.3903 29.2064 24.9184 29.1085C25.4465 29.0107 25.9407 28.792 26.3569 28.4721C26.7731 28.1521 27.0985 27.7407 27.3042 27.2744C27.5099 26.8081 27.5895 26.3014 27.5359 25.7994C27.4824 25.2973 27.2973 24.8155 26.9971 24.3966C26.697 23.9778 26.2911 23.6349 25.8155 23.3985C25.3399 23.1622 24.8094 23.0396 24.271 23.0417H4.66666M30.3647 10.3782C30.8399 9.934 31.4245 9.60635 32.0669 9.42428C32.7093 9.24221 33.3897 9.21133 34.0479 9.33436C34.7061 9.45739 35.3217 9.73054 35.8405 10.1297C36.3592 10.5288 36.765 11.0416 37.022 11.6227C37.279 12.2038 37.3793 12.8353 37.3139 13.4613C37.2486 14.0874 37.0196 14.6887 36.6473 15.2121C36.275 15.7355 35.7709 16.1648 35.1794 16.4621C34.588 16.7594 33.9275 16.9156 33.2564 16.9167H4.66666" stroke="#EB322F" stroke-width="2" stroke-linecap="round" stroke-linejoin="round"/>
<path d="M41.8823 26.8333L48.5975 36.1313C48.5975 36.1313 50.7929 38.9628 51.1535 40.6902C51.5142 42.4175 51.3297 44.2081 50.6235 45.8354C49.9172 47.4627 48.7209 48.8537 47.186 49.8323C45.651 50.811 43.8462 51.3333 42 51.3333C40.1538 51.3333 38.349 50.811 36.814 49.8323C35.2791 48.8537 34.0828 47.4627 33.3765 45.8354C32.6703 44.2081 32.4858 42.4175 32.8465 40.6902C33.2071 38.9628 35.4025 36.1313 35.4025 36.1313L41.8823 26.8333Z" stroke="#EB322F" stroke-width="2" stroke-linecap="round" stroke-linejoin="round"/>
<path d="M20.3504 37.3333L24.1278 42.6464C24.1278 42.6464 25.3627 44.2645 25.5655 45.2515C25.7684 46.2386 25.6646 47.2618 25.2674 48.1917C24.8701 49.1216 24.1972 49.9164 23.3338 50.4756C22.4703 51.0348 21.4552 51.3333 20.4167 51.3333C19.3782 51.3333 18.363 51.0348 17.4996 50.4756C16.6361 49.9164 15.9632 49.1216 15.566 48.1917C15.1687 47.2618 15.0649 46.2386 15.2678 45.2515C15.4706 44.2645 16.7056 42.6464 16.7056 42.6464L20.3504 37.3333Z" stroke="#EB322F" stroke-width="2" stroke-linecap="round" stroke-linejoin="round"/>
</svg>
