<svg width="64" height="64" viewBox="0 0 64 64" fill="none" xmlns="http://www.w3.org/2000/svg">
<path d="M32.0001 58.6667C17.2725 58.6667 5.33341 46.7276 5.33341 32C5.33341 17.2724 17.2725 5.33337 32.0001 5.33337C46.7277 5.33337 58.6667 17.2724 58.6667 32C58.6667 46.7276 46.7277 58.6667 32.0001 58.6667Z" stroke="#222222" stroke-opacity="0.4" stroke-linecap="round" stroke-linejoin="round"/>
<path d="M42.8108 24.2925V30.2925H36.8108" stroke="#222222" stroke-opacity="0.4" stroke-linecap="round" stroke-linejoin="round"/>
<path d="M40.3009 35.2925C39.6509 37.1324 38.4205 38.7112 36.7951 39.791C35.1697 40.8708 33.2374 41.393 31.2893 41.2791C29.3413 41.1651 27.4831 40.4211 25.9947 39.1592C24.5063 37.8972 23.4683 36.1857 23.0373 34.2825C22.6062 32.3794 22.8054 30.3877 23.6048 28.6076C24.4042 26.8274 25.7605 25.3554 27.4693 24.4131C29.1781 23.4709 31.1468 23.1096 33.0789 23.3836C35.0109 23.6577 36.8015 24.5522 38.1809 25.9325L42.8109 30.2925" stroke="#222222" stroke-opacity="0.4" stroke-linecap="round" stroke-linejoin="round"/>
</svg>
