<svg id="Capa_1" fill="#f0c287" enable-background="new 0 0 512 512" height="512" viewBox="0 0 512 512" width="512" xmlns="http://www.w3.org/2000/svg"><g><path d="m167.062 391.737c40.869-45.185 8.652-117.979-52.297-117.979-61.709 0-93.32 73.859-51.622 118.697-36.421 14.951-62.14 50.796-62.14 92.542v27.003h229.992v-27.003c.001-42.428-26.564-78.764-63.933-93.26zm-52.296-87.979c22.361 0 40.553 18.224 40.553 40.625s-18.192 40.625-40.553 40.625-40.553-18.224-40.553-40.625 18.191-40.625 40.553-40.625zm-83.699 178.242c1.574-37.208 32.336-66.992 69.925-66.992h30.016c37.588 0 68.351 29.784 69.925 66.992z"/><path d="m447.062 391.737c40.869-45.185 8.652-117.979-52.297-117.979-61.709 0-93.32 73.859-51.622 118.697-36.421 14.951-62.14 50.796-62.14 92.542v27.003h229.992v-27.003c.001-42.428-26.564-78.764-63.933-93.26zm-52.296-87.979c22.361 0 40.553 18.224 40.553 40.625s-18.192 40.625-40.553 40.625-40.553-18.224-40.553-40.625 18.191-40.625 40.553-40.625zm-83.699 178.242c1.574-37.208 32.336-66.992 69.925-66.992h30.016c37.588 0 68.351 29.784 69.925 66.992z"/><path d="m183.996 263.012 39.21-49.012h65.581l39.209 49.012 39.21-49.012h55.791v-214h-334v214h55.791zm-65-233.012h274v154h-40.209l-24.791 30.988-24.79-30.988h-94.419l-24.791 30.988-24.79-30.988h-40.209v-154z"/><path d="m300.202 79.719-24.412-17.438-31.256 43.759-19.784-14.22-17.508 24.36 44.216 31.78z"/></g></svg>