<?xml version="1.0" encoding="iso-8859-1"?>
<!-- Generator: Adobe Illustrator 19.0.0, SVG Export Plug-In . SVG Version: 6.00 Build 0)  -->
<svg version="1.1" id="Capa_1" xmlns="http://www.w3.org/2000/svg" xmlns:xlink="http://www.w3.org/1999/xlink" x="0px" y="0px"
	 viewBox="0 0 475.801 475.801" style="enable-background:new 0 0 475.801 475.801;" xml:space="preserve">
<g>
	<g>
		<path d="M462.8,210.551l-67.8-63.4c-7.5-7.2-17.6-11.2-28-11.2h-18v-26h16.8c5.5,0,10-4.5,10-10s-4.5-10-10-10H216.5
			c-5.5,0-10,4.5-10,10s4.5,10,10,10H233v26h-17c-11.4,0.1-22.2,4.8-30,13.1l-57.2,61.2c-4,4.3-9.6,6.7-15.4,6.7H62.1
			c-34.2,0.1-61.9,27.7-62.1,61.9v24.9c0.1,22.7,18.6,41.1,41.3,41.2h7.8c6.1,23,27.5,40.9,52.8,40.9c25.4,0,46.8-17.9,52.8-40.9
			h166.9c6.1,23,27.5,40.9,52.8,40.9s46.8-17.9,52.8-40.9h7.3c22.7,0,41.2-18.4,41.3-41.2v-63.2
			C475.9,229.151,471.2,218.351,462.8,210.551z M367,155.951c5.3,0,10.5,2.1,14.4,5.8l59,55.2H369l-28.3-61H367z M347,216.951h-71
			v-61h42.7L347,216.951z M253,109.951h76v26h-76V109.951z M200.6,162.751c4-4.3,9.6-6.7,15.4-6.8h40v61H149.9L200.6,162.751z
			 M102,365.851c-19.1,0-34.6-15.5-34.6-34.6s15.5-34.6,34.6-34.6c19.1,0,34.6,15.5,34.6,34.6
			C136.5,350.351,121,365.751,102,365.851z M256.1,324.951h-99.9c-3.4-27.4-26.6-48.1-54.2-48.2c-27.6,0.1-50.9,20.8-54.2,48.2h-6.5
			c-11.7,0-21.2-9.5-21.3-21.2v-24.9c0.1-23.2,18.9-41.9,42.1-41.9h51.3c1.2,0,2.7,0.1,3.7-0.1v0.1h139V324.951z M374.6,365.851
			c-19.1,0-34.6-15.5-34.6-34.6s15.5-34.6,34.6-34.6s34.6,15.5,34.6,34.6C409.1,350.351,393.6,365.751,374.6,365.851z M456,303.751
			c-0.1,11.7-9.6,21.1-21.3,21.2h-5.9c-3.5-29.9-30.6-51.3-60.5-47.8c-25.1,2.9-44.9,22.7-47.8,47.8H276v-88h179.5
			c0.3,1.2,0.5,2.4,0.5,3.6V303.751z"/>
	</g>
</g>
<g>
</g>
<g>
</g>
<g>
</g>
<g>
</g>
<g>
</g>
<g>
</g>
<g>
</g>
<g>
</g>
<g>
</g>
<g>
</g>
<g>
</g>
<g>
</g>
<g>
</g>
<g>
</g>
<g>
</g>
</svg>
