<svg id="Layer_3" enable-background="new 0 0 64 64" height="512" viewBox="0 0 64 64" width="512" xmlns="http://www.w3.org/2000/svg"><path d="m29.586 1-8.586 8.586v26l-12.086 12.086c-.212.212-.493.328-.793.328-.618 0-1.121-.503-1.121-1.121 0-.295.12-.584.328-.793l9.379-9.379-1.414-1.414-9.379 9.379c-.581.581-.914 1.385-.914 2.207 0 1.271.766 2.362 1.858 2.849l-4.322 4.322c-.991.99-1.536 2.306-1.536 3.708 0 2.89 2.352 5.242 5.243 5.242 1.399 0 2.716-.545 3.707-1.535l11.05-11.051v4.586h42v-54zm-5.172 8 4.586-4.586v4.586zm2.586 2h4v-4h26v10h-30zm6.95 23.536-4.486-4.486c2.138-1.754 4.733-2.802 7.497-3.011-.209 2.765-1.256 5.36-3.011 7.497zm-5.95-3.122 4.586 4.586-16.586 16.586-4.586-4.586zm-19.464 28.636c-.613.613-1.428.95-2.293.95-1.788 0-3.243-1.454-3.243-3.242 0-.867.337-1.681.95-2.293l6.05-6.051 4.586 4.586zm52.464-7.05h-38v-4.586l11.464-11.465c2.925-2.924 4.536-6.812 4.536-10.949v-1h-1c-4.136 0-8.024 1.61-10.95 4.535l-4.05 4.051v-22.586h2v8h34v-14h-28v-2h30z"/><path d="m57.624 47.511c-.595-1.06-1.411-2.511-3.12-2.511s-2.525 1.45-3.121 2.51c-.57 1.013-.892 1.49-1.378 1.49-.487 0-.81-.478-1.379-1.49-.597-1.06-1.413-2.51-3.124-2.51-1.71 0-2.526 1.45-3.123 2.51-.569 1.012-.891 1.49-1.379 1.49h-1.211c-.318 0-.626-.093-.891-.27l-.909-.606c.246-.177.468-.346.666-.503.855-.677 1.345-1.701 1.345-2.809v-.207c0-1.988-1.617-3.605-3.605-3.605h-.789c-1.989 0-3.606 1.617-3.606 3.605 0 1.208.6 2.329 1.605 3l.618.412c-1.24.561-2.684.983-4.223.983v2c2.348 0 4.476-.798 6.137-1.707l1.652 1.102c.594.396 1.286.605 2 .605h1.211c1.71 0 2.527-1.45 3.123-2.51.57-1.013.892-1.49 1.379-1.49.488 0 .81.478 1.38 1.49.596 1.06 1.413 2.51 3.123 2.51s2.526-1.451 3.122-2.51c.57-1.013.892-1.49 1.378-1.49s.807.478 1.376 1.49c.595 1.059 1.41 2.51 3.119 2.51v-2c-.485 0-.807-.478-1.376-1.489zm-20.212-1.456c-.329.261-.739.564-1.215.875l-1.482-.988c-.448-.299-.715-.798-.715-1.337 0-.885.72-1.605 1.605-1.605h.789c.886 0 1.606.72 1.606 1.605v.207c0 .494-.214.946-.588 1.243z"/><path d="m41 23h18v2h-18z"/><path d="m41 27h18v2h-18z"/><path d="m41 31h18v2h-18z"/><path d="m41 35h14v2h-14z"/><path d="m57 35h2v2h-2z"/><path d="m45 39h14v2h-14z"/><path d="m52 9c-1.654 0-3 1.346-3 3s1.346 3 3 3 3-1.346 3-3-1.346-3-3-3zm0 4c-.551 0-1-.448-1-1s.449-1 1-1 1 .448 1 1-.449 1-1 1z"/><path d="m44 9c-1.654 0-3 1.346-3 3s1.346 3 3 3 3-1.346 3-3-1.346-3-3-3zm0 4c-.551 0-1-.448-1-1s.449-1 1-1 1 .448 1 1-.449 1-1 1z"/><path d="m36 9c-1.654 0-3 1.346-3 3s1.346 3 3 3 3-1.346 3-3-1.346-3-3-3zm0 4c-.551 0-1-.448-1-1s.449-1 1-1 1 .448 1 1-.449 1-1 1z"/><path d="m25 21h2v2h-2z"/><path d="m25 25h2v2h-2z"/></svg>