<svg id="Capa_1" enable-background="new 0 0 512 512" height="512" viewBox="0 0 512 512" width="512" xmlns="http://www.w3.org/2000/svg" fill="#fcd199"><g><path d="m144.976 330.661c11.552-.242 20.06-6.832 22.203-17.199 2.252-10.889-3.571-22.201-13.846-26.897l-38.448-17.583c-9.865-4.525-28.338-10.883-41.208-2.626-7.705 4.943-11.612 13.75-11.612 26.174v12.933c0 13.896 11.267 25.201 25.114 25.201h57.64c.052-.002.104-.002.157-.003zm-57.797-14.999c-5.577 0-10.114-4.576-10.114-10.201v-12.933c0-6.984 1.585-11.543 4.712-13.549 1.72-1.103 4.114-1.642 7.01-1.642 5.303 0 12.282 1.81 19.854 5.282l38.456 17.587c4.455 2.036 6.104 6.784 5.394 10.218-.864 4.182-4.679 5.16-7.757 5.238z"/><path d="m489.133 364.338s.005-82.072.009-83.184c.052-12.94-.316-14.505-6.565-27.914l-13.307-28.496h2.942c18.933 0 34.335-15.493 34.335-34.536s-15.402-34.536-34.335-34.536h-35.197l-18.415-39.437c-7.654-16.403-12.043-24.7-19.195-29.892-7.689-5.581-16.774-5.984-30.823-5.984h-28.013l-19.651-38.451-.34-.668c-1.42-2.815-4.376-8.672-11.605-8.672h-107.058c-7.501 0-10.174 2.629-12.735 7.808-.162.328-.339.686-.537 1.075l-19.893 38.909h-28.014c-14.048 0-23.133.403-30.825 5.982-7.154 5.19-11.551 13.485-19.222 29.893l-18.408 39.438h-35.177c-18.933 0-34.335 15.493-34.335 34.536s15.402 34.536 34.335 34.536h2.936l-13.298 28.49c-6.278 13.412-6.648 14.979-6.597 27.933.004 1.108.009 83.786.009 83.786-11.614 3.281-20.154 13.978-20.154 26.641 0 15.265 12.406 27.684 27.655 27.684h2.691v38.064c0 12.18 9.909 22.089 22.089 22.089h66.803c12.18 0 22.089-9.909 22.089-22.089v-38.064h41.944c2.915 6.711 9.608 11.42 17.388 11.42h110.653c7.78 0 14.473-4.709 17.388-11.42h41.972v38.064c0 12.18 9.909 22.089 22.089 22.089h66.803c12.18 0 22.089-9.909 22.089-22.089v-38.064h2.663c15.265 0 27.684-12.419 27.684-27.684 0-13.622-9.892-24.969-22.867-27.257zm-16.921-193.666c10.661 0 19.335 8.764 19.335 19.536s-8.674 19.536-19.335 19.536h-9.947l-18.245-39.072zm-270.212-122.397c.126-.247.244-.483.356-.708h104.611c.077.151.151.298.218.43l16.537 32.362h-138.126zm-164.896 161.47c-10.661 0-19.335-8.764-19.335-19.536s8.674-19.536 19.335-19.536h28.175l-18.237 39.072zm-22.104 181.85c0-6.994 5.677-12.685 12.655-12.685h56.954c4.143 0 7.5-3.358 7.5-7.5s-3.357-7.5-7.5-7.5h-49.454s-.005-81.676-.01-82.802c-.04-10.355-.04-10.355 5.187-21.522l63.946-137.003c6.666-14.257 10.333-21.121 14.439-24.099 3.709-2.69 9.528-3.125 22.018-3.125h227.846c12.488 0 18.307.434 22.012 3.124 4.103 2.977 7.762 9.839 14.414 24.097l63.976 137.003c5.201 11.158 5.201 11.158 5.16 21.512-.005 1.13-.01 82.815-.01 82.815h-354.666c-4.143 0-7.5 3.358-7.5 7.5s3.357 7.5 7.5 7.5h62.244v25.369h-154.056c-6.978 0-12.655-5.69-12.655-12.684zm111.327 65.748c0 3.909-3.18 7.089-7.089 7.089h-66.802c-3.909 0-7.089-3.18-7.089-7.089v-38.064h80.98zm184.985-41.644h-110.653c-2.141 0-3.948-1.795-3.948-3.92v-32.869h118.55v32.869c0 2.161-1.772 3.92-3.949 3.92zm155.341 41.644c0 3.909-3.18 7.089-7.089 7.089h-66.803c-3.909 0-7.089-3.18-7.089-7.089v-38.064h80.98v38.064zm17.663-53.064h-154.055v-25.369h154.056c6.994 0 12.684 5.69 12.684 12.685s-5.69 12.684-12.685 12.684z"/><path d="m397.122 268.978-38.454 17.586c-10.283 4.701-16.112 16.019-13.859 26.913 2.142 10.358 10.644 16.942 22.188 17.184.053.001.104.001.157.001h57.668c13.848 0 25.114-11.305 25.114-25.201v-12.933c0-12.426-3.91-21.233-11.623-26.176-12.885-8.26-31.346-1.897-41.191 2.626zm37.814 23.551v12.933c0 5.625-4.537 10.201-10.114 10.201h-57.582c-3.072-.078-6.879-1.053-7.741-5.222-.711-3.438.942-8.193 5.407-10.234l38.468-17.592c11.505-5.287 22.041-6.712 26.845-3.633 3.13 2.005 4.717 6.563 4.717 13.547z"/><path d="m87.607 227.285h150.421c4.143 0 7.5-3.358 7.5-7.5s-3.357-7.5-7.5-7.5h-138.83l35.676-79.416c2.328-5.186 3.513-5.18 11.191-5.166l216.063.001 1.098-.001c7.697-.019 8.888-.02 11.217 5.167l35.676 79.414h-137.204c-4.143 0-7.5 3.358-7.5 7.5s3.357 7.5 7.5 7.5h148.795c2.544 0 4.915-1.29 6.297-3.426s1.587-4.827.545-7.147l-40.424-89.985c-6.313-14.064-16.62-14.053-24.936-14.023l-216.033.001-1.061-.001c-8.266-.032-18.597-.042-24.909 14.021l-40.424 89.987c-1.042 2.321-.837 5.012.545 7.147 1.382 2.138 3.753 3.427 6.297 3.427z"/><path d="m322.989 262.361h-133.978c-3.832 0-7.67 1.853-10.018 4.835-2.11 2.681-2.874 6.063-2.09 9.307l10.699 43.571c1.557 6.433 6.312 10.589 12.114 10.589h112.566c5.876 0 10.507-4.059 12.078-10.561l10.742-43.625c.777-3.217.014-6.599-2.097-9.28-2.346-2.984-6.184-4.836-10.016-4.836zm-59.532 15h18.459v38.301h-18.459zm-15 38.301h-18.487v-38.301h18.487zm-55.897-38.301h22.41v38.301h-13.005zm117.447 38.301h-13.091v-38.301h22.521z"/></g></svg>